<?xml version="1.0" standalone="no"?>
<!DOCTYPE svg PUBLIC "-//W3C//DTD SVG 1.1//EN" "http://www.w3.org/Graphics/SVG/1.1/DTD/svg11.dtd" >
<svg>
<metadata>
Created by FontForge 20110222 at Thu Sep  3 15:01:24 2015
 By www-data
The typeface was designed at ParaType (ParaGraph) in 1989-2003 by Vladimir Yefimov and Olga Chaeva. A spinoff the Encyclopedia-4 type family of the Polygraphmash type design bureau (1987, Vladimir Yefimov and Isay Slutsker). Inspired by Helvetica (Neue Haas Grotesk) of the Haas typefoundry, 1957 by Eduard Hoffman and Max Miedinger. Based on the 19th century Grotesque designs, Helvetica brought a new level of mathematical accuracy to the sans serif category. Widely used for many applications, from magazines and books to advertising and headlines. Eight additional styles were developed in 2003 for ParaType by Olga Chaeva. Condensed styles were developed in 1993-2004 by Vladimir Yefimov, Alexander Tarbeev and Manvel Shmavonyan, with participation of Dmitry Kirsanov. Extended styles developed in 2004 by Olga Chaeva and Manvel Shmavonyan.
</metadata>
<defs>
<font id="PragmaticaMedium" horiz-adv-x="600" >
  <font-face 
    font-family="Pragmatica Medium"
    font-weight="500"
    font-stretch="normal"
    units-per-em="1000"
    panose-1="2 11 6 3 4 5 2 2 2 4"
    ascent="800"
    descent="-200"
    x-height="508"
    cap-height="700"
    bbox="-440 -270 1314 982"
    underline-thickness="50"
    underline-position="-50"
    stemh="82"
    stemv="120"
    unicode-range="U+0020-FB04"
  />
<missing-glyph horiz-adv-x="233" 
 />
    <glyph glyph-name="fi" unicode="fi" horiz-adv-x="532" 
d="M108 508v64c0 116 73 133 136 133c27 0 48 -2 68 -5v-82c-5 0 -21 2 -30 2c-54 0 -54 -43 -54 -64v-48h232v-508h-120v426h-112v-426h-120v426h-94v82h94zM340 594v106h120v-106h-120z" />
    <glyph glyph-name="fl" unicode="fl" horiz-adv-x="532" 
d="M228 508h112v192h120v-700h-120v426h-112v-426h-120v426h-94v82h94v64c0 116 73 133 136 133c27 0 48 -2 68 -5v-82c-5 0 -21 2 -30 2c-54 0 -54 -43 -54 -64v-48z" />
    <glyph glyph-name="afii10017.var.accented" unicode="&#x410;`" horiz-adv-x="648" 
d="M184 147l-51 -147h-137l264 700h128l264 -700h-137l-51 147h-280zM218 253h212l-106 311zM321 900h136l-118 -140h-96z" />
    <glyph glyph-name="afii10022.var.accented" unicode="&#x415;`" horiz-adv-x="638" 
d="M213 412h356v-106h-356v-200h408v-106h-536v700h525v-106h-397v-182zM316 900h136l-118 -140h-96z" />
    <glyph glyph-name="afii10026.var.accented" unicode="&#x418;`" horiz-adv-x="756" 
d="M213 188l333 512h125v-700h-128v512l-333 -512h-125v700h128v-512zM375 900h136l-118 -140h-96z" />
    <glyph glyph-name="afii10032.var.accented" unicode="&#x41e;`" horiz-adv-x="776" 
d="M45 350c0 363 282 371 343 371s343 -8 343 -371s-282 -371 -343 -371s-343 8 -343 371zM182 350c0 -108 33 -265 206 -265s206 157 206 265s-33 265 -206 265s-206 -157 -206 -265zM385 900h136l-118 -140h-96z" />
    <glyph glyph-name="afii10037.var.accented" unicode="&#x423;`" horiz-adv-x="623" 
d="M345 322l148 378h134l-235 -564c-59 -143 -137 -146 -198 -146c-33 0 -57 1 -91 11v111c22 -7 47 -12 73 -12c45 0 84 14 100 84l-267 516h157zM308 900h136l-118 -140h-96z" />
    <glyph glyph-name="afii10045.var.accented" unicode="&#x42b;`" horiz-adv-x="908" 
d="M213 700v-270h182c76 0 243 -15 243 -219c0 -87 -44 -211 -244 -211h-309v700h128zM213 324v-218h156c68 0 137 15 137 111c0 100 -81 107 -134 107h-159zM695 700h128v-700h-128v700zM451 900h136l-118 -140h-96z" />
    <glyph glyph-name="afii10047.var.accented" unicode="&#x42d;`" horiz-adv-x="748" 
d="M259 412h306c-4 89 -56 203 -206 203c-110 0 -167 -53 -177 -121h-127c9 95 66 227 300 227c261 0 348 -184 348 -383c0 -239 -144 -359 -351 -359c-231 0 -298 156 -307 260h127c6 -74 63 -154 186 -154c156 0 203 132 207 221h-306v106zM371 900h136l-118 -140h-96z
" />
    <glyph glyph-name="afii10048.var.accented" unicode="&#x42e;`" horiz-adv-x="1030" 
d="M213 420h90c10 122 86 301 339 301c61 0 343 -8 343 -371s-282 -371 -343 -371c-264 0 -335 192 -342 335h-87v-314h-128v700h128v-280zM642 85c173 0 206 157 206 265s-33 265 -206 265s-206 -157 -206 -265s33 -265 206 -265zM512 900h136l-118 -140h-96z" />
    <glyph glyph-name="afii10049.var.accented" unicode="&#x42f;`" horiz-adv-x="720" 
d="M507 261h-122l-168 -261h-162l198 275c-65 8 -186 47 -186 206c0 210 180 219 279 219h289v-700h-128v261zM507 594h-167c-35 0 -141 0 -141 -116c0 -102 94 -111 150 -111h158v227zM381 900h136l-118 -140h-96z" />
    <glyph glyph-name="afii10065.var.accented" unicode="&#x430;`" horiz-adv-x="577" 
d="M164 351h-114c-2 93 65 177 232 177c205 0 219 -120 219 -180v-203c0 -48 2 -65 44 -62v-83c-30 -2 -43 -3 -53 -3c-31 0 -88 4 -99 66c-44 -56 -101 -75 -169 -75c-176 0 -187 105 -187 147c0 106 94 136 117 142c39 11 76 13 118 19c16 2 33 5 49 7c42 6 60 5 60 55
c0 80 -60 88 -99 88c-87 0 -121 -48 -118 -95zM381 226v18c-13 -9 -29 -14 -86 -21c-82 -11 -134 -18 -134 -84c0 -39 23 -69 79 -69c59 0 141 24 141 156zM284 700h130l-110 -132h-90z" />
    <glyph glyph-name="afii10070.var.accented" unicode="&#x435;`" horiz-adv-x="594" 
d="M429 147h114c-12 -66 -61 -167 -242 -167c-51 0 -258 9 -258 265c0 171 84 283 259 283c220 0 243 -176 248 -276c0 -10 1 -19 1 -29h-380c-1 -65 34 -161 140 -161c54 0 110 29 118 85zM171 305h253c-1 46 -16 141 -121 141c-94 0 -134 -75 -132 -141zM293 700h130
l-110 -132h-90z" />
    <glyph glyph-name="afii10074.var.accented" unicode="&#x438;`" horiz-adv-x="634" 
d="M192 142l238 366h132v-508h-120v366l-238 -366h-132v508h120v-366zM313 700h130l-110 -132h-90z" />
    <glyph glyph-name="afii10080.var.accented" unicode="&#x43e;`" horiz-adv-x="610" 
d="M43 254c0 98 46 274 262 274s262 -176 262 -274s-46 -274 -262 -274s-262 176 -262 274zM171 254c0 -174 91 -192 134 -192s134 18 134 192s-91 192 -134 192s-134 -18 -134 -192zM301 700h130l-110 -132h-90z" />
    <glyph glyph-name="afii10085.var.accented" unicode="&#x443;`" horiz-adv-x="541" 
d="M105 -183v82c12 -3 28 -6 46 -6c46 0 63 25 80 84l7 24l-231 507h144l153 -378l117 378h120l-194 -552c-16 -46 -42 -145 -167 -145c-22 0 -51 2 -75 6zM266 700h130l-110 -132h-90z" />
    <glyph glyph-name="afii10093.var.accented" unicode="&#x44b;`" horiz-adv-x="772" 
d="M72 508h120v-196h117c81 0 211 -5 211 -157c0 -139 -114 -155 -183 -155h-265v508zM192 230v-148h116c46 0 88 20 88 76c0 73 -70 72 -88 72h-116zM580 508h120v-508h-120v508zM382 700h130l-110 -132h-90z" />
    <glyph glyph-name="afii10095.var.accented" unicode="&#x44d;`" horiz-adv-x="588" 
d="M220 220v82h197c-2 68 -44 144 -134 144c-69 0 -123 -35 -130 -97h-114c14 115 115 179 249 179c65 0 257 -15 257 -275c0 -43 -4 -273 -268 -273c-171 0 -232 104 -240 192h114c2 -57 46 -110 124 -110c105 0 140 97 142 158h-197zM290 700h130l-110 -132h-90z" />
    <glyph glyph-name="afii10096.var.accented" unicode="&#x44e;`" horiz-adv-x="828" 
d="M192 309h75c9 117 100 219 256 219c216 0 262 -176 262 -274s-46 -274 -262 -274c-179 0 -256 128 -259 247h-72v-227h-120v508h120v-199zM389 254c0 -174 91 -192 134 -192s134 18 134 192s-91 192 -134 192s-134 -18 -134 -192zM410 700h130l-110 -132h-90z" />
    <glyph glyph-name="afii10097.var.accented" unicode="&#x44f;`" horiz-adv-x="577" 
d="M307 189l-138 -189h-132l150 190c-51 5 -139 34 -139 151c0 165 149 167 182 167h275v-508h-120v189h-78zM385 426h-106c-72 0 -107 -20 -107 -80c0 -52 31 -75 107 -75h106v155zM284 700h130l-110 -132h-90z" />
    <glyph glyph-name="ff" unicode="ff" horiz-adv-x="590" 
d="M108 508v64c0 116 73 133 136 133c27 0 48 -2 68 -5v-82c-5 0 -21 2 -30 2c-54 0 -54 -43 -54 -64v-48h112v64c0 61 15 133 157 133c33 0 56 -2 79 -5v-82c-10 1 -31 2 -48 2c-70 0 -68 -46 -68 -64v-48h116v-82h-116v-426h-120v426h-112v-426h-120v426h-94v82h94z" />
    <glyph glyph-name="ffi" unicode="ffi" horiz-adv-x="764" 
d="M108 508v64c0 116 73 133 136 133c27 0 48 -2 68 -5v-82c-5 0 -21 2 -30 2c-54 0 -54 -43 -54 -64v-48h112v64c0 116 73 133 136 133c27 0 48 -2 68 -5v-82c-5 0 -21 2 -30 2c-54 0 -54 -43 -54 -64v-48h232v-508h-120v426h-112v-426h-120v426h-112v-426h-120v426h-94v82
h94zM572 594v106h120v-106h-120z" />
    <glyph glyph-name="ffl" unicode="ffl" horiz-adv-x="764" 
d="M108 508v64c0 116 73 133 136 133c27 0 48 -2 68 -5v-82c-5 0 -21 2 -30 2c-54 0 -54 -43 -54 -64v-48h112v64c0 116 73 133 136 133c27 0 48 -2 68 -5v-82c-5 0 -21 2 -30 2c-54 0 -54 -43 -54 -64v-48h112v192h120v-700h-120v426h-112v-426h-120v426h-112v-426h-120
v426h-94v82h94z" />
    <glyph glyph-name=".notdef" horiz-adv-x="233" 
 />
    <glyph glyph-name=".notdef" horiz-adv-x="233" 
 />
    <glyph glyph-name="space" unicode=" " horiz-adv-x="233" 
 />
    <glyph glyph-name="space" unicode="&#xa0;" horiz-adv-x="233" 
 />
    <glyph glyph-name="exclam" unicode="!" horiz-adv-x="344" 
d="M106 700h132v-241l-34 -240h-64l-34 240v241zM106 0v135h132v-135h-132z" />
    <glyph glyph-name="quotedbl" unicode="&#x22;" horiz-adv-x="500" 
d="M220 700l-51 -192h-68l-51 192h170zM450 700l-51 -192h-68l-51 192h170z" />
    <glyph glyph-name="numbersign" unicode="#" horiz-adv-x="730" 
d="M464 10h-92l24 153h-120l-24 -153h-92l24 153h-134l15 100h134l28 179h-134l15 100h134l24 152h92l-24 -152h120l24 152h92l-24 -152h134l-15 -100h-134l-28 -179h134l-15 -100h-134zM411 263l28 179h-120l-28 -179h120z" />
    <glyph glyph-name="dollar" unicode="$" 
d="M36 205h110c1 -31 10 -67 30 -93c15 -20 42 -44 85 -46v250c-50 7 -123 32 -160 67c-25 23 -51 65 -51 134c0 73 29 124 74 158c36 27 86 43 137 44v58h82v-58c55 -1 116 -21 154 -57c33 -31 59 -85 59 -147h-110c2 34 -11 64 -30 84c-5 5 -30 30 -73 34v-218
c67 -10 113 -26 148 -51c56 -40 73 -91 73 -161c0 -45 -6 -117 -73 -171c-38 -30 -95 -49 -148 -52v-73h-82v73c-50 -1 -108 13 -146 41c-70 52 -79 142 -79 184zM261 432v201c-22 -2 -42 -11 -55 -24c-16 -16 -28 -44 -28 -82c0 -73 57 -91 83 -95zM343 299v-233
c23 1 45 10 60 24c24 23 33 63 33 98c0 26 -6 57 -32 82c-8 8 -28 25 -61 29z" />
    <glyph glyph-name="percent" unicode="%" horiz-adv-x="950" 
d="M218 0l421 700h93l-421 -700h-93zM54 508c0 115 61 200 170 200s170 -85 170 -200s-61 -200 -170 -200s-170 85 -170 200zM134 508c0 -130 69 -134 90 -134s90 4 90 134s-69 134 -90 134s-90 -4 -90 -134zM556 192c0 115 61 200 170 200s170 -85 170 -200
s-61 -200 -170 -200s-170 85 -170 200zM636 192c0 -130 69 -134 90 -134s90 4 90 134s-69 134 -90 134s-90 -4 -90 -134z" />
    <glyph glyph-name="ampersand" unicode="&#x26;" horiz-adv-x="706" 
d="M546 314h104c-10 -61 -37 -126 -65 -168l121 -146h-138l-55 67c-57 -61 -130 -88 -218 -88c-152 0 -223 105 -223 212c0 111 72 173 166 215c-39 41 -62 97 -62 141c0 92 70 153 177 153c131 0 165 -90 165 -148c0 -77 -47 -131 -126 -174l125 -148c9 14 23 42 29 84z
M452 143l-153 187c-67 -28 -99 -70 -99 -135c0 -69 45 -122 116 -122c65 0 112 42 136 70zM335 448c70 32 77 76 77 100c0 27 -7 70 -60 70c-33 0 -70 -13 -70 -64c0 -35 17 -65 53 -106z" />
    <glyph glyph-name="quotesingle" unicode="'" horiz-adv-x="270" 
d="M220 700l-51 -192h-68l-51 192h170z" />
    <glyph glyph-name="parenleft" unicode="(" horiz-adv-x="394" 
d="M218 700h92c-91 -176 -122 -324 -122 -442c0 -133 48 -302 122 -442h-92c-104 177 -148 298 -148 442s44 265 148 442z" />
    <glyph glyph-name="parenright" unicode=")" horiz-adv-x="394" 
d="M176 -184h-92c91 176 122 324 122 442c0 133 -48 302 -122 442h92c104 -177 148 -298 148 -442s-44 -265 -148 -442z" />
    <glyph glyph-name="asterisk" unicode="*" horiz-adv-x="468" 
d="M234 515l-75 -101l-51 37l73 102l-115 38l19 58l117 -38v124h64v-124l117 38l19 -58l-115 -38l73 -102l-51 -37z" />
    <glyph glyph-name="plus" unicode="+" 
d="M50 398h207v207h86v-207h207v-86h-207v-207h-86v207h-207v86z" />
    <glyph glyph-name="comma" unicode="," horiz-adv-x="344" 
d="M106 135h132v-139c0 -114 -70 -148 -132 -154v69c39 2 67 33 67 78v11h-67v135z" />
    <glyph glyph-name="hyphen" unicode="-" horiz-adv-x="420" 
d="M80 216v106h260v-106h-260z" />
    <glyph glyph-name="hyphen" unicode="&#x2010;" horiz-adv-x="420" 
d="M80 216v106h260v-106h-260z" />
    <glyph glyph-name="hyphen" unicode="&#xad;" horiz-adv-x="420" 
d="M80 216v106h260v-106h-260z" />
    <glyph glyph-name="period" unicode="." horiz-adv-x="344" 
d="M106 0v135h132v-135h-132z" />
    <glyph glyph-name="slash" unicode="/" horiz-adv-x="440" 
d="M0 -185l358 885h82l-358 -885h-82z" />
    <glyph glyph-name="zero" unicode="0" 
d="M300 -21c-220 0 -255 226 -255 371s35 371 255 371s255 -226 255 -371s-35 -371 -255 -371zM300 85c40 0 125 13 125 265s-85 265 -125 265s-125 -13 -125 -265s85 -265 125 -265z" />
    <glyph glyph-name="one" unicode="1" 
d="M122 510v65h14c99 0 171 53 182 125h94v-700h-128v510h-162z" />
    <glyph glyph-name="two" unicode="2" 
d="M554 106v-106h-505c-2 187 122 251 235 320c74 45 147 91 147 182c0 30 -9 113 -126 113c-127 0 -133 -94 -133 -131v-17h-123v18c0 233 224 236 259 236c143 0 253 -68 253 -219c0 -153 -105 -206 -212 -271c-112 -68 -138 -88 -154 -125h359z" />
    <glyph glyph-name="three" unicode="3" 
d="M36 226h123c0 -9 0 -17 1 -26c6 -51 32 -122 129 -122c14 0 29 1 43 5c81 21 88 94 88 123c0 100 -80 105 -122 105h-51v106h27c43 0 132 2 132 101c0 40 -16 97 -104 97c-87 0 -119 -49 -120 -136h-123c-2 102 38 242 241 242c174 0 236 -88 236 -195
c0 -76 -47 -137 -120 -152v-2c69 -9 134 -62 134 -177c0 -138 -102 -216 -258 -216c-240 0 -257 175 -256 247z" />
    <glyph glyph-name="four" unicode="4" 
d="M352 153h-329v106l330 441h127v-441h97v-106h-97v-153h-128v153zM152 259h200v278z" />
    <glyph glyph-name="five" unicode="5" 
d="M71 189h123c5 -51 41 -111 127 -111c57 0 136 26 136 156c0 138 -98 144 -131 144c-35 0 -90 -10 -118 -58h-121l48 380h409v-106h-315l-23 -162c12 12 56 52 154 52c134 0 227 -86 227 -249c0 -246 -218 -256 -274 -256c-185 0 -232 121 -242 210z" />
    <glyph glyph-name="six" unicode="6" 
d="M555 541h-123c-17 67 -73 74 -111 74c-51 0 -144 -19 -153 -203h2c21 30 62 63 158 63c142 0 232 -87 232 -242c0 -160 -100 -254 -259 -254c-235 0 -259 201 -259 332c0 360 159 410 279 410c152 0 220 -89 234 -180zM172 227c0 -60 20 -142 129 -142
c92 0 129 64 129 142s-37 142 -129 142c-109 0 -129 -82 -129 -142z" />
    <glyph glyph-name="seven" unicode="7" 
d="M30 594v106h540v-88c-94 -96 -147 -184 -196 -299c-47 -109 -63 -186 -74 -313h-134c12 94 43 204 82 295c36 82 94 186 205 299h-423z" />
    <glyph glyph-name="eight" unicode="8" 
d="M169 375c-57 25 -93 79 -93 154c0 85 39 192 224 192s224 -107 224 -192c0 -75 -36 -129 -93 -154c43 -14 114 -57 114 -179c0 -188 -154 -217 -245 -217s-245 29 -245 217c0 122 70 165 114 179zM300 424c83 0 104 56 104 97c0 28 -11 94 -104 94s-104 -66 -104 -94
c0 -41 21 -97 104 -97zM300 85c84 0 115 61 115 117c0 47 -23 116 -115 116s-115 -69 -115 -116c0 -56 31 -117 115 -117z" />
    <glyph glyph-name="nine" unicode="9" 
d="M45 159h123c17 -67 73 -74 111 -74c51 0 144 19 153 203h-2c-21 -30 -62 -63 -158 -63c-142 0 -232 87 -232 242c0 160 100 254 259 254c235 0 259 -201 259 -332c0 -360 -156 -410 -279 -410c-152 0 -220 89 -234 180zM428 473c0 60 -20 142 -129 142
c-92 0 -129 -64 -129 -142s37 -142 129 -142c109 0 129 82 129 142z" />
    <glyph glyph-name="colon" unicode=":" horiz-adv-x="344" 
d="M106 373v135h132v-135h-132zM106 0v135h132v-135h-132z" />
    <glyph glyph-name="semicolon" unicode=";" horiz-adv-x="344" 
d="M106 373v135h132v-135h-132zM106 135h132v-139c0 -114 -70 -148 -132 -154v69c39 2 67 33 67 78v11h-67v135z" />
    <glyph glyph-name="semicolon" unicode="&#x37e;" horiz-adv-x="344" 
d="M106 373v135h132v-135h-132zM106 135h132v-139c0 -114 -70 -148 -132 -154v69c39 2 67 33 67 78v11h-67v135z" />
    <glyph glyph-name="less" unicode="&#x3c;" horiz-adv-x="678" 
d="M161 342l433 -237l-40 -72l-494 278v62l494 278l40 -72z" />
    <glyph glyph-name="equal" unicode="=" 
d="M50 488h500v-86h-500v86zM50 288h500v-86h-500v86z" />
    <glyph glyph-name="greater" unicode="&#x3e;" horiz-adv-x="678" 
d="M517 342l-433 237l40 72l494 -278v-62l-494 -278l-40 72z" />
    <glyph glyph-name="question" unicode="?" horiz-adv-x="576" 
d="M215 0v135h132v-135h-132zM176 484h-123c-3 92 36 237 239 237c172 0 231 -99 231 -196c0 -82 -46 -125 -95 -162c-74 -57 -95 -75 -95 -130v-18h-100c-1 63 1 95 42 143c40 47 118 79 118 159c0 51 -29 98 -103 98c-60 0 -118 -28 -114 -131z" />
    <glyph glyph-name="at" unicode="@" horiz-adv-x="860" 
d="M581 94l35 -63c-50 -31 -104 -52 -185 -52c-204 0 -371 133 -371 372c0 223 160 370 371 370c253 0 369 -167 369 -350c0 -124 -75 -224 -186 -224c-40 0 -83 12 -97 43c-25 -38 -64 -49 -107 -49c-87 0 -173 55 -173 197c0 103 51 197 166 197c34 0 75 -13 98 -42h2v28
h100v-237c0 -21 -1 -55 28 -55c32 0 89 32 89 142c0 130 -78 280 -289 280c-174 0 -291 -130 -291 -300c0 -177 119 -302 291 -302c65 0 111 18 150 45zM491 337c0 106 -49 116 -70 116c-58 0 -79 -59 -79 -116c0 -100 48 -114 78 -114c65 0 71 70 71 114z" />
    <glyph glyph-name="A" unicode="A" horiz-adv-x="648" 
d="M184 147l-51 -147h-137l264 700h128l264 -700h-137l-51 147h-280zM218 253h212l-106 311z" />
    <glyph glyph-name="B" unicode="B" horiz-adv-x="715" 
d="M85 700h330c178 0 213 -100 213 -177s-48 -138 -116 -150v-2c58 -10 145 -50 145 -175c0 -177 -151 -196 -256 -196h-316v700zM213 594v-178h169c71 0 114 22 114 83c0 93 -90 95 -117 95h-166zM213 310v-204h175c78 0 137 19 137 104c0 94 -81 100 -134 100h-178z" />
    <glyph glyph-name="C" unicode="C" horiz-adv-x="733" 
d="M568 239h127c-10 -106 -66 -260 -303 -260c-54 0 -347 5 -347 359c0 288 166 383 340 383c240 0 294 -147 300 -247h-127c-8 58 -42 141 -173 141c-156 0 -203 -127 -203 -272c0 -164 90 -258 216 -258c116 0 166 79 170 154z" />
    <glyph glyph-name="D" unicode="D" horiz-adv-x="746" 
d="M85 700h278c287 0 338 -198 338 -348c0 -317 -222 -352 -363 -352h-253v700zM213 594v-488h119c62 0 232 10 232 244c0 216 -135 244 -212 244h-139z" />
    <glyph glyph-name="E" unicode="E" horiz-adv-x="638" 
d="M213 412h356v-106h-356v-200h408v-106h-536v700h525v-106h-397v-182z" />
    <glyph glyph-name="F" unicode="F" horiz-adv-x="594" 
d="M213 402h317v-106h-317v-296h-128v700h496v-106h-368v-192z" />
    <glyph glyph-name="G" unicode="G" horiz-adv-x="756" 
d="M412 375h286v-375h-92v95h-2c-37 -72 -107 -116 -217 -116c-162 0 -342 85 -342 359c0 328 217 383 344 383c239 0 293 -139 301 -237h-127c-7 53 -45 131 -174 131c-178 0 -207 -164 -207 -272c0 -208 133 -258 216 -258c62 0 182 28 185 184h-171v106z" />
    <glyph glyph-name="H" unicode="H" horiz-adv-x="738" 
d="M213 314v-314h-128v700h128v-280h312v280h128v-700h-128v314h-312z" />
    <glyph glyph-name="I" unicode="I" horiz-adv-x="298" 
d="M85 700h128v-700h-128v700z" />
    <glyph glyph-name="J" unicode="J" horiz-adv-x="551" 
d="M23 243h128v-29c0 -119 65 -129 102 -129c51 0 98 12 98 147v468h128v-452c0 -117 -14 -269 -227 -269c-186 0 -229 121 -229 225v39z" />
    <glyph glyph-name="K" unicode="K" horiz-adv-x="706" 
d="M213 385l306 315h172l-290 -290l309 -410h-172l-231 324l-94 -91v-233h-128v700h128v-315z" />
    <glyph glyph-name="L" unicode="L" horiz-adv-x="548" 
d="M554 106v-106h-469v700h128v-594h341z" />
    <glyph glyph-name="M" unicode="M" horiz-adv-x="934" 
d="M419 0l-206 554h-2l2 -27v-527h-128v700h191l191 -531l191 531h191v-700h-128v527l2 27h-2l-206 -554h-96z" />
    <glyph glyph-name="N" unicode="N" horiz-adv-x="770" 
d="M213 497v-497h-128v700h136l336 -497v497h128v-700h-136z" />
    <glyph glyph-name="O" unicode="O" horiz-adv-x="776" 
d="M45 350c0 363 282 371 343 371s343 -8 343 -371s-282 -371 -343 -371s-343 8 -343 371zM182 350c0 -108 33 -265 206 -265s206 157 206 265s-33 265 -206 265s-206 -157 -206 -265z" />
    <glyph glyph-name="P" unicode="P" horiz-adv-x="668" 
d="M85 700h279c110 0 272 -18 272 -217c0 -127 -71 -225 -273 -225h-150v-258h-128v700zM213 594v-230h149c59 0 142 8 142 113c0 111 -92 117 -141 117h-150z" />
    <glyph glyph-name="Q" unicode="Q" horiz-adv-x="776" 
d="M630 70l72 -92l-69 -62l-80 101c-25 -15 -71 -38 -165 -38c-61 0 -343 9 -343 371c0 363 282 371 343 371c57 0 343 -8 343 -371c0 -84 -18 -205 -101 -280zM479 264l72 -92c15 25 43 79 43 178c0 108 -33 265 -206 265s-206 -157 -206 -265c0 -107 33 -265 206 -265
c57 0 83 16 94 24l-77 97z" />
    <glyph glyph-name="R" unicode="R" horiz-adv-x="708" 
d="M85 0v700h313c86 0 253 -12 253 -195c0 -104 -61 -154 -117 -170v-2c100 -32 102 -119 103 -182c1 -94 0 -118 26 -151h-132c-20 32 -22 56 -22 146c0 64 -5 132 -148 132h-148v-278h-128zM213 594v-210h160c65 0 146 10 146 105c0 101 -91 105 -143 105h-163z" />
    <glyph glyph-name="S" unicode="S" horiz-adv-x="684" 
d="M45 225h127c3 -53 35 -140 182 -140c47 0 148 7 148 105c0 84 -81 99 -126 108c-28 5 -55 11 -82 17c-114 26 -217 60 -217 202c0 198 218 204 275 204c185 0 262 -99 271 -206h-127c-12 98 -110 100 -147 100c-19 0 -135 0 -135 -93c0 -73 79 -85 156 -99
c162 -29 269 -65 269 -220c0 -198 -175 -224 -293 -224c-240 0 -297 135 -301 246z" />
    <glyph glyph-name="T" unicode="T" horiz-adv-x="594" 
d="M233 594h-220v106h568v-106h-220v-594h-128v594z" />
    <glyph glyph-name="U" unicode="U" horiz-adv-x="722" 
d="M72 700h128v-411c0 -140 41 -204 161 -204s161 64 161 204v411h128v-431c0 -113 -20 -290 -289 -290s-289 177 -289 290v431z" />
    <glyph glyph-name="V" unicode="V" horiz-adv-x="622" 
d="M311 133l176 567h139l-241 -700h-148l-241 700h139z" />
    <glyph glyph-name="W" unicode="W" horiz-adv-x="944" 
d="M472 549l-124 -549h-162l-190 700h144l137 -552l123 552h144l123 -552l137 552h144l-190 -700h-162z" />
    <glyph glyph-name="X" unicode="X" horiz-adv-x="666" 
d="M333 447l155 253h160l-235 -342l253 -358h-165l-168 270l-168 -270h-165l253 358l-235 342h160z" />
    <glyph glyph-name="Y" unicode="Y" horiz-adv-x="634" 
d="M317 393l170 307h151l-257 -421v-279h-128v279l-257 421h151z" />
    <glyph glyph-name="Z" unicode="Z" horiz-adv-x="613" 
d="M45 700h520v-98l-378 -496h400v-106h-561v114l378 480h-359v106z" />
    <glyph glyph-name="bracketleft" unicode="[" horiz-adv-x="389" 
d="M106 700h230v-82h-112v-721h112v-82h-230v885z" />
    <glyph glyph-name="backslash" unicode="\" horiz-adv-x="440" 
d="M440 -185h-82l-358 885h82z" />
    <glyph glyph-name="bracketright" unicode="]" horiz-adv-x="389" 
d="M53 700h230v-885h-230v82h112v721h-112v82z" />
    <glyph glyph-name="asciicircum" unicode="^" horiz-adv-x="482" 
d="M177 700h128l127 -218h-96l-95 168l-95 -168h-96z" />
    <glyph glyph-name="underscore" unicode="_" horiz-adv-x="494" 
d="M0 -185v82h494v-82h-494z" />
    <glyph glyph-name="grave" unicode="`" horiz-adv-x="340" 
d="M174 700l70 -132h-90l-110 132h130z" />
    <glyph glyph-name="a" unicode="a" horiz-adv-x="577" 
d="M164 351h-114c-2 93 65 177 232 177c205 0 219 -120 219 -180v-203c0 -48 2 -65 44 -62v-83c-30 -2 -43 -3 -53 -3c-31 0 -88 4 -99 66c-44 -56 -101 -75 -169 -75c-176 0 -187 105 -187 147c0 106 94 136 117 142c39 11 76 13 118 19c16 2 33 5 49 7c42 6 60 5 60 55
c0 80 -60 88 -99 88c-87 0 -121 -48 -118 -95zM381 226v18c-13 -9 -29 -14 -86 -21c-82 -11 -134 -18 -134 -84c0 -39 23 -69 79 -69c59 0 141 24 141 156z" />
    <glyph glyph-name="b" unicode="b" horiz-adv-x="636" 
d="M72 700h120v-244c40 72 146 72 160 72c199 0 241 -170 241 -277c0 -197 -128 -271 -245 -271c-52 0 -119 15 -164 70h-2v-50h-110v700zM183 253c0 -114 48 -191 135 -191c54 0 147 26 147 188c0 144 -69 196 -142 196c-53 0 -140 -28 -140 -193z" />
    <glyph glyph-name="c" unicode="c" horiz-adv-x="574" 
d="M424 186h114c-8 -74 -54 -206 -240 -206c-173 0 -255 112 -255 273c0 260 185 275 251 275c156 0 231 -91 242 -189h-114c-6 53 -42 107 -121 107c-99 0 -130 -89 -130 -193c0 -159 80 -191 137 -191c89 0 114 77 116 124z" />
    <glyph glyph-name="d" unicode="d" horiz-adv-x="636" 
d="M444 700h120v-700h-110v50h-2c-49 -60 -123 -70 -164 -70c-119 0 -245 74 -245 271c0 144 71 277 241 277c14 0 120 0 160 -72v244zM171 250c0 -170 102 -188 143 -188c86 0 139 80 139 191c0 165 -88 193 -140 193c-73 0 -142 -52 -142 -196z" />
    <glyph glyph-name="e" unicode="e" horiz-adv-x="594" 
d="M429 147h114c-12 -66 -61 -167 -242 -167c-51 0 -258 9 -258 265c0 171 84 283 259 283c220 0 243 -176 248 -276c0 -10 1 -19 1 -29h-380c-1 -65 34 -161 140 -161c54 0 110 29 118 85zM171 305h253c-1 46 -16 141 -121 141c-94 0 -134 -75 -132 -141z" />
    <glyph glyph-name="f" unicode="f" horiz-adv-x="355" 
d="M342 508v-82h-115v-426h-120v426h-94v82h94v64c0 61 15 133 157 133c32 0 55 -2 78 -5v-82c-10 1 -31 2 -47 2c-70 0 -68 -47 -68 -64v-48h115z" />
    <glyph glyph-name="g" unicode="g" horiz-adv-x="640" 
d="M458 508h110v-485c0 -140 -97 -216 -257 -216c-124 0 -207 43 -222 144h110c11 -47 72 -60 117 -60c124 0 132 84 132 134v39c-40 -72 -146 -72 -160 -72c-170 0 -241 127 -241 265c0 197 126 271 245 271c41 0 115 -10 164 -70h2v50zM175 256c0 -166 100 -182 143 -182
c69 0 139 56 139 185c0 140 -69 187 -140 187c-89 0 -142 -71 -142 -190z" />
    <glyph glyph-name="h" unicode="h" horiz-adv-x="606" 
d="M72 700h120v-259c35 59 108 87 167 87c174 0 175 -151 175 -188v-340h-120v302c0 61 -1 144 -95 144c-33 0 -127 -13 -127 -162v-284h-120v700z" />
    <glyph glyph-name="i" unicode="i" horiz-adv-x="264" 
d="M72 508h120v-508h-120v508zM72 594v106h120v-106h-120z" />
    <glyph glyph-name="j" unicode="j" horiz-adv-x="264" 
d="M72 508h120v-535c0 -88 -15 -162 -143 -162c-17 0 -48 2 -68 4v82c66 2 91 19 91 83v528zM72 594v106h120v-106h-120z" />
    <glyph glyph-name="k" unicode="k" horiz-adv-x="564" 
d="M192 285l212 223h142l-198 -198l220 -310h-140l-163 237l-73 -74v-163h-120v700h120v-415z" />
    <glyph glyph-name="l" unicode="l" horiz-adv-x="264" 
d="M72 700h120v-700h-120v700z" />
    <glyph glyph-name="m" unicode="m" horiz-adv-x="916" 
d="M72 508h120v-63c31 57 101 83 158 83c70 0 116 -23 143 -92c37 59 104 92 181 92c153 0 170 -123 170 -209v-319h-120v312c0 63 -8 134 -88 134c-52 0 -118 -38 -118 -147v-299h-120v312c0 63 -8 134 -88 134c-52 0 -118 -38 -118 -147v-299h-120v508z" />
    <glyph glyph-name="n" unicode="n" horiz-adv-x="606" 
d="M72 508h120v-67c35 59 108 87 167 87c174 0 175 -151 175 -188v-340h-120v302c0 61 -1 144 -95 144c-33 0 -127 -13 -127 -162v-284h-120v508z" />
    <glyph glyph-name="o" unicode="o" horiz-adv-x="610" 
d="M43 254c0 98 46 274 262 274s262 -176 262 -274s-46 -274 -262 -274s-262 176 -262 274zM171 254c0 -174 91 -192 134 -192s134 18 134 192s-91 192 -134 192s-134 -18 -134 -192z" />
    <glyph glyph-name="p" unicode="p" horiz-adv-x="636" 
d="M72 508h110v-50h2c45 55 112 70 164 70c117 0 245 -74 245 -271c0 -107 -42 -277 -241 -277c-14 0 -120 0 -160 72v-237h-120v693zM183 253c0 -114 48 -191 135 -191c54 0 147 26 147 188c0 144 -69 196 -142 196c-53 0 -140 -28 -140 -193z" />
    <glyph glyph-name="q" unicode="q" horiz-adv-x="636" 
d="M454 508h110v-693h-120v237c-40 -72 -146 -72 -160 -72c-170 0 -241 133 -241 277c0 197 126 271 245 271c41 0 115 -10 164 -70h2v50zM171 250c0 -170 102 -188 143 -188c86 0 139 80 139 191c0 165 -88 193 -140 193c-73 0 -142 -52 -142 -196z" />
    <glyph glyph-name="r" unicode="r" horiz-adv-x="402" 
d="M388 518v-78c-158 4 -190 -88 -195 -161c-1 -17 -1 -34 -1 -52v-227h-120v508h120v-93h2c34 85 118 103 174 103h20z" />
    <glyph glyph-name="s" unicode="s" horiz-adv-x="540" 
d="M36 155h120c-1 -69 65 -93 119 -93c45 0 103 13 103 82c0 44 -27 60 -94 72c-18 3 -37 6 -55 9c-111 20 -166 55 -166 150c0 134 140 153 212 153c164 0 214 -71 216 -155h-113c-4 45 -41 73 -99 73c-49 0 -92 -13 -92 -63c0 -63 65 -70 131 -81c75 -12 186 -25 186 -151
c0 -124 -110 -171 -225 -171c-190 0 -238 99 -243 175z" />
    <glyph glyph-name="t" unicode="t" horiz-adv-x="342" 
d="M14 508h82v152h120v-152h106v-82h-106v-287c0 -34 1 -63 59 -63c20 0 34 2 47 6v-82c-30 -8 -63 -12 -98 -12c-126 0 -128 75 -128 111v327h-82v82z" />
    <glyph glyph-name="u" unicode="u" horiz-adv-x="606" 
d="M534 0h-120v67h-2c-33 -59 -104 -87 -169 -87c-167 0 -171 149 -171 188v340h120v-302c0 -58 2 -144 95 -144c126 0 127 137 127 162v284h120v-508z" />
    <glyph glyph-name="v" unicode="v" horiz-adv-x="504" 
d="M252 118l128 390h128l-186 -508h-140l-186 508h128z" />
    <glyph glyph-name="w" unicode="w" horiz-adv-x="771" 
d="M386 371l-91 -371h-122l-177 508h125l119 -372l90 372h112l89 -372l119 372h125l-177 -508h-122z" />
    <glyph glyph-name="x" unicode="x" horiz-adv-x="521" 
d="M261 337l118 171h131l-183 -243l194 -265h-128l-132 189l-132 -189h-129l194 265l-182 243h131z" />
    <glyph glyph-name="y" unicode="y" horiz-adv-x="541" 
d="M105 -183v82c12 -3 28 -6 46 -6c46 0 63 25 80 84l7 24l-231 507h144l153 -378l117 378h120l-194 -552c-16 -46 -42 -145 -167 -145c-22 0 -51 2 -75 6z" />
    <glyph glyph-name="z" unicode="z" horiz-adv-x="490" 
d="M46 508h401v-82l-281 -344h298v-82h-438v82l281 344h-261v82z" />
    <glyph glyph-name="braceleft" unicode="{" horiz-adv-x="366" 
d="M75 215v84c81 10 89 85 89 126c0 43 -4 38 -4 107c0 151 113 167 156 168v-66c-49 -22 -43 -79 -38 -135c2 -19 4 -38 4 -57c0 -106 -59 -159 -131 -184v-2c141 -48 134 -163 127 -241c-5 -56 -11 -113 38 -135v-66c-43 1 -156 17 -156 168c0 69 4 64 4 107
c0 41 -8 116 -89 126z" />
    <glyph glyph-name="bar" unicode="|" horiz-adv-x="498" 
d="M208 -224v1053h82v-1053h-82z" />
    <glyph glyph-name="braceright" unicode="}" horiz-adv-x="366" 
d="M291 299v-84c-81 -10 -89 -85 -89 -126c0 -43 4 -38 4 -107c0 -151 -113 -167 -156 -168v66c49 22 43 79 38 135c-2 19 -4 38 -4 57c0 106 59 159 131 184v2c-141 48 -134 163 -127 241c5 56 11 113 -38 135v66c43 -1 156 -17 156 -168c0 -69 -4 -64 -4 -107
c0 -41 8 -116 89 -126z" />
    <glyph glyph-name="asciitilde" unicode="~" horiz-adv-x="614" 
d="M96 278l-46 19c42 125 103 142 140 142c31 0 65 -9 90 -23l103 -55c17 -9 35 -13 50 -13c25 0 60 14 85 84l46 -19c-26 -77 -68 -142 -140 -142c-28 0 -65 9 -90 23l-103 55c-14 8 -34 13 -52 13c-43 0 -69 -41 -83 -84z" />
    <glyph glyph-name="exclamdown" unicode="&#xa1;" horiz-adv-x="344" 
d="M238 -185h-132v229l34 241h64l34 -241v-229zM238 508v-135h-132v135h132z" />
    <glyph glyph-name="cent" unicode="&#xa2;" 
d="M437 186h114c-11 -97 -72 -193 -201 -204v-74h-67v73c-107 4 -227 75 -227 272c0 233 150 272 227 274v67h67v-68c88 -10 185 -66 199 -187h-114c-5 42 -32 92 -85 103v-377c70 16 86 86 87 121zM283 67v375c-75 -17 -99 -98 -99 -189c0 -147 72 -178 99 -186z" />
    <glyph glyph-name="sterling" unicode="&#xa3;" 
d="M519 140l61 -84c-55 -59 -104 -77 -149 -77c-54 0 -93 20 -125 34c-26 11 -52 20 -84 20c-37 0 -73 -11 -113 -38l-59 87c100 64 104 123 104 160c0 33 -9 46 -12 51h-109v82h75c-28 40 -37 91 -37 125c0 118 71 221 253 221c150 0 238 -78 238 -229v-18h-112v16
c0 112 -53 149 -125 149c-91 0 -126 -75 -126 -133c0 -45 19 -78 42 -131h130v-82h-98c2 -11 3 -27 3 -41c0 -52 -33 -98 -67 -129l2 -4c16 8 34 11 65 11c32 0 54 -4 86 -19c19 -9 43 -24 72 -24c33 0 60 19 85 53z" />
    <glyph glyph-name="currency" unicode="&#xa4;" horiz-adv-x="816" 
d="M66 49l111 111c-38 55 -53 116 -53 170s12 116 53 170l-111 111l61 61l111 -111c57 44 120 57 170 57c97 0 149 -39 170 -57l111 111l61 -61l-111 -111c41 -54 55 -116 55 -170c0 -53 -15 -115 -55 -170l111 -111l-61 -61l-111 111c-21 -17 -72 -57 -171 -57
c-97 0 -147 38 -169 57l-111 -111zM227 330c0 -101 80 -181 181 -181s181 80 181 181s-80 181 -181 181s-181 -80 -181 -181z" />
    <glyph glyph-name="yen" unicode="&#xa5;" 
d="M323 393l149 307h151l-236 -421v-4h100v-54h-100v-52h100v-54h-100v-115h-128v115h-100v54h100v52h-100v54h100v4l-236 421h151z" />
    <glyph glyph-name="brokenbar" unicode="&#xa6;" horiz-adv-x="498" 
d="M208 206h82v-430h-82v430zM290 399h-82v430h82v-430z" />
    <glyph glyph-name="section" unicode="&#xa7;" horiz-adv-x="584" 
d="M466 557h-100c2 72 -33 85 -60 85c-47 0 -58 -38 -58 -60c0 -57 55 -79 105 -103c74 -36 167 -72 167 -199c0 -116 -83 -153 -113 -164c9 -5 57 -32 57 -111s-53 -154 -190 -154c-153 0 -173 118 -173 181h100c-5 -47 16 -99 71 -99c32 0 72 17 72 62
c0 60 -52 79 -101 100c-98 43 -179 98 -179 220c0 72 37 132 105 151c-18 18 -41 50 -41 103c0 81 49 155 176 155c27 0 167 -2 162 -167zM337 170c6 3 55 25 55 87c0 56 -30 78 -61 95l-87 49c-23 -11 -52 -35 -52 -84c0 -61 38 -86 60 -98z" />
    <glyph glyph-name="dieresis" unicode="&#xa8;" horiz-adv-x="406" 
d="M50 594v106h116v-106h-116zM240 594v106h116v-106h-116z" />
    <glyph glyph-name="copyright" unicode="&#xa9;" horiz-adv-x="800" 
d="M50 350c0 192 154 350 350 350c192 0 350 -156 350 -350s-158 -350 -350 -350c-196 0 -350 158 -350 350zM130 350c0 -153 119 -280 270 -280c146 0 269 124 269 280s-123 280 -269 280c-151 0 -270 -127 -270 -280zM465 297h80c-4 -54 -37 -125 -141 -125
c-114 0 -170 75 -170 179c0 153 94 188 166 188c103 0 132 -67 136 -115h-76c0 28 -21 53 -60 53c-45 0 -78 -35 -78 -126c0 -113 60 -117 83 -117c10 0 57 1 60 63z" />
    <glyph glyph-name="ordfeminine" unicode="&#xaa;" horiz-adv-x="400" 
d="M123 615h-62c0 42 24 106 136 106c125 0 127 -70 127 -103v-124c0 -22 0 -38 31 -36v-54c-7 -1 -13 -2 -19 -3c-7 -1 -14 -1 -21 -1c-17 0 -45 5 -47 42c-25 -32 -63 -42 -108 -42c-46 0 -109 13 -109 90c0 71 50 86 135 96c36 4 72 1 74 28v8c0 11 0 45 -64 45
c-54 0 -74 -25 -73 -52zM260 533v19c-12 -8 -24 -9 -63 -13c-32 -4 -80 -6 -80 -47c0 -36 36 -38 57 -38c12 0 86 3 86 79zM45 310v44h310v-44h-310z" />
    <glyph glyph-name="guillemotleft" unicode="&#xab;" horiz-adv-x="462" 
d="M116 270l95 -81v-106l-149 132v110l149 132v-106zM292 270l95 -81v-106l-149 132v110l149 132v-106z" />
    <glyph glyph-name="logicalnot" unicode="&#xac;" 
d="M50 405h500v-225h-86v139h-414v86z" />
    <glyph glyph-name="registered" unicode="&#xae;" horiz-adv-x="800" 
d="M50 350c0 193 157 350 350 350c195 0 350 -157 350 -350s-155 -350 -350 -350c-193 0 -350 157 -350 350zM130 350c0 -154 121 -280 270 -280c150 0 269 125 269 280s-119 280 -269 280c-149 0 -270 -126 -270 -280zM272 178v350h153c117 0 117 -80 117 -102
s-5 -63 -59 -80v-2c45 -9 48 -50 50 -83c3 -54 0 -64 14 -83h-82c-14 17 -11 26 -13 80c-1 27 -4 56 -77 56h-23v-136h-80zM352 466v-90h60c39 0 49 24 49 45c0 44 -44 45 -56 45h-53z" />
    <glyph glyph-name="macron" unicode="&#xaf;" horiz-adv-x="430" 
d="M50 602v82h330v-82h-165h-165z" />
    <glyph glyph-name="macron" unicode="&#x2c9;" horiz-adv-x="430" 
d="M50 602v82h330v-82h-165h-165z" />
    <glyph glyph-name="degree" unicode="&#xb0;" horiz-adv-x="300" 
d="M50 600c0 56 44 100 100 100s100 -44 100 -100s-44 -100 -100 -100s-100 44 -100 100zM104 600c0 -26 20 -46 46 -46s46 20 46 46s-20 46 -46 46s-46 -20 -46 -46z" />
    <glyph glyph-name="plusminus" unicode="&#xb1;" 
d="M50 463h207v187h86v-187h207v-86h-207v-167h-86v167h-207v86zM50 166h500v-86h-500v86z" />
    <glyph glyph-name="twosuperior" unicode="&#xb2;" horiz-adv-x="372" 
d="M335 342v-62h-300c2 109 67 142 145 191c36 23 83 53 83 107c0 26 -13 73 -77 73c-78 0 -81 -61 -81 -80v-12h-70v13c0 62 33 141 152 141c103 0 150 -64 150 -131c0 -88 -65 -120 -133 -162c-37 -23 -68 -40 -86 -78h217z" />
    <glyph glyph-name="threesuperior" unicode="&#xb3;" horiz-adv-x="372" 
d="M34 415h70c1 -28 12 -86 80 -86c58 0 80 34 80 72c0 64 -62 65 -74 65h-31v64h27c53 0 70 31 70 65c0 41 -35 56 -71 56c-40 0 -67 -20 -70 -86h-70c1 71 30 148 142 148c72 0 139 -33 139 -116c0 -59 -40 -83 -72 -93v-4c36 -5 84 -27 84 -103c0 -94 -75 -130 -155 -130
c-119 0 -148 91 -149 148z" />
    <glyph glyph-name="acute" unicode="&#xb4;" horiz-adv-x="340" 
d="M166 700h130l-110 -132h-90z" />
    <glyph glyph-name="mu" unicode="&#xb5;" 
d="M205 45v-230h-120v693h120v-277c0 -40 0 -160 95 -160c40 0 95 24 95 160v277h120v-365c0 -25 0 -64 40 -61l13 1v-83c-21 -3 -56 -5 -77 -5c-39 0 -85 8 -96 60c-15 -34 -45 -75 -98 -75c-40 0 -76 31 -92 65z" />
    <glyph glyph-name="mu" unicode="&#x3bc;" 
d="M205 45v-230h-120v693h120v-277c0 -40 0 -160 95 -160c40 0 95 24 95 160v277h120v-365c0 -25 0 -64 40 -61l13 1v-83c-21 -3 -56 -5 -77 -5c-39 0 -85 8 -96 60c-15 -34 -45 -75 -98 -75c-40 0 -76 31 -92 65z" />
    <glyph glyph-name="paragraph" unicode="&#xb6;" horiz-adv-x="560" 
d="M219 -185v525c-109 0 -179 77 -179 180c0 115 71 180 179 180h82v-885h-82zM408 -185v885h82v-885h-82z" />
    <glyph glyph-name="periodcentered" unicode="&#xb7;" horiz-adv-x="250" 
d="M59 200v135h132v-135h-132z" />
    <glyph glyph-name="periodcentered" unicode="&#x22c5;" horiz-adv-x="250" 
d="M59 200v135h132v-135h-132z" />
    <glyph glyph-name="periodcentered" unicode="&#x2219;" horiz-adv-x="250" 
d="M59 200v135h132v-135h-132z" />
    <glyph glyph-name="cedilla" unicode="&#xb8;" horiz-adv-x="320" 
d="M50 -232l19 61c25 -8 45 -9 58 -9c48 0 53 23 53 34c0 29 -34 28 -52 28h-43l18 60h46c27 0 121 0 121 -90c0 -69 -63 -92 -141 -92c-19 0 -44 1 -79 8z" />
    <glyph glyph-name="onesuperior" unicode="&#xb9;" horiz-adv-x="372" 
d="M82 589v42h12c63 0 94 33 101 69h57v-420h-74v309h-96z" />
    <glyph glyph-name="ordmasculine" unicode="&#xba;" horiz-adv-x="390" 
d="M45 557c0 58 22 164 150 164s150 -106 150 -164s-22 -164 -150 -164s-150 106 -150 164zM113 557c0 -50 15 -110 82 -110s82 60 82 110s-15 110 -82 110s-82 -60 -82 -110zM45 310v44h300v-44h-300z" />
    <glyph glyph-name="guillemotright" unicode="&#xbb;" horiz-adv-x="462" 
d="M345 270l-94 81v106l149 -132v-110l-149 -132v106zM169 270l-94 81v106l149 -132v-110l-149 -132v106z" />
    <glyph glyph-name="onequarter" unicode="&#xbc;" horiz-adv-x="844" 
d="M692 94h-202v62l202 264h74v-264h60v-62h-60v-94h-74v94zM570 156h122v164zM82 589v42h12c63 0 94 33 101 69h57v-420h-74v309h-96zM192 0l428 700h72l-428 -700h-72z" />
    <glyph glyph-name="onehalf" unicode="&#xbd;" horiz-adv-x="844" 
d="M82 589v42h12c63 0 94 33 101 69h57v-420h-74v309h-96zM807 62v-62h-300c2 109 67 142 145 191c36 23 83 53 83 107c0 26 -13 73 -77 73c-78 0 -81 -61 -81 -80v-12h-70v13c0 62 33 141 152 141c103 0 150 -64 150 -131c0 -88 -65 -120 -133 -162
c-37 -23 -68 -40 -86 -78h217zM152 0l428 700h72l-428 -700h-72z" />
    <glyph glyph-name="threequarters" unicode="&#xbe;" horiz-adv-x="844" 
d="M34 415h70c0 -4 0 -8 1 -12c9 -66 56 -74 79 -74c58 0 80 34 80 72c0 64 -62 65 -74 65h-31v64h27c53 0 70 31 70 65c0 41 -35 56 -71 56c-40 0 -67 -20 -70 -86h-70c1 71 30 148 142 148c72 0 139 -33 139 -116c0 -59 -40 -83 -72 -93v-4c36 -5 84 -27 84 -103
c0 -94 -75 -130 -155 -130c-94 0 -137 58 -147 125c-1 8 -2 15 -2 23zM692 94h-202v62l202 264h74v-264h60v-62h-60v-94h-74v94zM570 156h122v164zM212 0l428 700h72l-428 -700h-72z" />
    <glyph glyph-name="questiondown" unicode="&#xbf;" horiz-adv-x="576" 
d="M361 508v-135h-132v135h132zM400 31h123c3 -92 -36 -237 -239 -237c-172 0 -231 99 -231 196c0 82 47 122 95 158c74 55 95 73 95 127v18h100c1 -63 -1 -93 -42 -140c-40 -46 -118 -76 -118 -155c0 -51 29 -98 103 -98c60 0 118 28 114 131z" />
    <glyph glyph-name="Agrave" unicode="&#xc0;" horiz-adv-x="648" 
d="M184 147l-51 -147h-137l264 700h128l264 -700h-137l-51 147h-280zM218 253h212l-106 311zM327 900l78 -140h-96l-118 140h136z" />
    <glyph glyph-name="Aacute" unicode="&#xc1;" horiz-adv-x="648" 
d="M184 147l-51 -147h-137l264 700h128l264 -700h-137l-51 147h-280zM218 253h212l-106 311zM321 900h136l-118 -140h-96z" />
    <glyph glyph-name="Acircumflex" unicode="&#xc2;" horiz-adv-x="648" 
d="M184 147l-51 -147h-137l264 700h128l264 -700h-137l-51 147h-280zM218 253h212l-106 311zM324 854l-100 -94h-120l134 140h172l134 -140h-120z" />
    <glyph glyph-name="Atilde" unicode="&#xc3;" horiz-adv-x="648" 
d="M184 147l-51 -147h-137l264 700h128l264 -700h-137l-51 147h-280zM218 253h212l-106 311zM455 880h80c-10 -50 -41 -116 -129 -116c-31 0 -51 8 -85 22c-27 11 -50 22 -77 22s-48 -13 -51 -36h-80c8 56 45 116 129 116c32 0 51 -6 85 -20c34 -13 47 -24 77 -24
c32 0 48 17 51 36z" />
    <glyph glyph-name="Adieresis" unicode="&#xc4;" horiz-adv-x="648" 
d="M184 147l-51 -147h-137l264 700h128l264 -700h-137l-51 147h-280zM218 253h212l-106 311zM141 772v88h128v-88h-128zM379 772v88h128v-88h-128z" />
    <glyph glyph-name="Aring" unicode="&#xc5;" horiz-adv-x="648" 
d="M184 147l-51 -147h-137l264 700h128l264 -700h-137l-51 147h-280zM218 253h212l-106 311zM224 820c0 56 44 100 100 100s100 -44 100 -100s-44 -100 -100 -100s-100 44 -100 100zM280 820c0 -24 20 -44 44 -44s44 20 44 44s-20 44 -44 44s-44 -20 -44 -44z" />
    <glyph glyph-name="AE" unicode="&#xc6;" horiz-adv-x="1062" 
d="M509 0v154h-278l-84 -154h-152l397 700h642v-106h-397v-182h356v-106h-356v-200h408v-106h-536zM509 260v334h-42l-180 -334h222z" />
    <glyph glyph-name="Ccedilla" unicode="&#xc7;" horiz-adv-x="733" 
d="M568 239h127c-10 -106 -66 -260 -303 -260c-54 0 -347 5 -347 359c0 288 166 383 340 383c240 0 294 -147 300 -247h-127c-8 58 -42 141 -173 141c-156 0 -203 -127 -203 -272c0 -164 90 -258 216 -258c116 0 166 79 170 154zM257 -232l19 61c25 -8 45 -9 58 -9
c48 0 53 23 53 34c0 29 -34 28 -52 28h-43l18 60h46c27 0 121 0 121 -90c0 -69 -63 -92 -141 -92c-19 0 -44 1 -79 8z" />
    <glyph glyph-name="Egrave" unicode="&#xc8;" horiz-adv-x="638" 
d="M213 412h356v-106h-356v-200h408v-106h-536v700h525v-106h-397v-182zM322 900l78 -140h-96l-118 140h136z" />
    <glyph glyph-name="Eacute" unicode="&#xc9;" horiz-adv-x="638" 
d="M213 412h356v-106h-356v-200h408v-106h-536v700h525v-106h-397v-182zM316 900h136l-118 -140h-96z" />
    <glyph glyph-name="Ecircumflex" unicode="&#xca;" horiz-adv-x="638" 
d="M213 412h356v-106h-356v-200h408v-106h-536v700h525v-106h-397v-182zM319 854l-100 -94h-120l134 140h172l134 -140h-120z" />
    <glyph glyph-name="Edieresis" unicode="&#xcb;" horiz-adv-x="638" 
d="M213 412h356v-106h-356v-200h408v-106h-536v700h525v-106h-397v-182zM136 772v88h128v-88h-128zM374 772v88h128v-88h-128z" />
    <glyph glyph-name="Igrave" unicode="&#xcc;" horiz-adv-x="298" 
d="M85 700h128v-700h-128v700zM131 900l78 -140h-96l-118 140h136z" />
    <glyph glyph-name="Iacute" unicode="&#xcd;" horiz-adv-x="298" 
d="M85 700h128v-700h-128v700zM129 900h136l-118 -140h-96z" />
    <glyph glyph-name="Icircumflex" unicode="&#xce;" horiz-adv-x="298" 
d="M85 700h128v-700h-128v700zM148 854l-100 -94h-120l134 140h172l134 -140h-120z" />
    <glyph glyph-name="Idieresis" unicode="&#xcf;" horiz-adv-x="298" 
d="M85 700h128v-700h-128v700zM-32 772v88h128v-88h-128zM206 772v88h128v-88h-128z" />
    <glyph glyph-name="Eth" unicode="&#xd0;" horiz-adv-x="756" 
d="M95 700h278c287 0 338 -198 338 -348c0 -317 -222 -352 -363 -352h-253v356h-95v82h95v262zM223 594v-156h197v-82h-197v-250h119c62 0 232 10 232 244c0 216 -135 244 -212 244h-139z" />
    <glyph glyph-name="Ntilde" unicode="&#xd1;" horiz-adv-x="770" 
d="M213 497v-497h-128v700h136l336 -497v497h128v-700h-136zM516 880h80c-10 -50 -41 -116 -129 -116c-31 0 -51 8 -85 22c-27 11 -50 22 -77 22s-48 -13 -51 -36h-80c8 56 45 116 129 116c32 0 51 -6 85 -20c34 -13 47 -24 77 -24c32 0 48 17 51 36z" />
    <glyph glyph-name="Ograve" unicode="&#xd2;" horiz-adv-x="776" 
d="M45 350c0 363 282 371 343 371s343 -8 343 -371s-282 -371 -343 -371s-343 8 -343 371zM182 350c0 -108 33 -265 206 -265s206 157 206 265s-33 265 -206 265s-206 -157 -206 -265zM391 900l78 -140h-96l-118 140h136z" />
    <glyph glyph-name="Oacute" unicode="&#xd3;" horiz-adv-x="776" 
d="M45 350c0 363 282 371 343 371s343 -8 343 -371s-282 -371 -343 -371s-343 8 -343 371zM182 350c0 -108 33 -265 206 -265s206 157 206 265s-33 265 -206 265s-206 -157 -206 -265zM385 900h136l-118 -140h-96z" />
    <glyph glyph-name="Ocircumflex" unicode="&#xd4;" horiz-adv-x="776" 
d="M45 350c0 363 282 371 343 371s343 -8 343 -371s-282 -371 -343 -371s-343 8 -343 371zM182 350c0 -108 33 -265 206 -265s206 157 206 265s-33 265 -206 265s-206 -157 -206 -265zM388 854l-100 -94h-120l134 140h172l134 -140h-120z" />
    <glyph glyph-name="Otilde" unicode="&#xd5;" horiz-adv-x="776" 
d="M45 350c0 363 282 371 343 371s343 -8 343 -371s-282 -371 -343 -371s-343 8 -343 371zM182 350c0 -108 33 -265 206 -265s206 157 206 265s-33 265 -206 265s-206 -157 -206 -265zM519 880h80c-10 -50 -41 -116 -129 -116c-31 0 -51 8 -85 22c-27 11 -50 22 -77 22
s-48 -13 -51 -36h-80c8 56 45 116 129 116c32 0 51 -6 85 -20c34 -13 47 -24 77 -24c32 0 48 17 51 36z" />
    <glyph glyph-name="Odieresis" unicode="&#xd6;" horiz-adv-x="776" 
d="M45 350c0 363 282 371 343 371s343 -8 343 -371s-282 -371 -343 -371s-343 8 -343 371zM182 350c0 -108 33 -265 206 -265s206 157 206 265s-33 265 -206 265s-206 -157 -206 -265zM205 772v88h128v-88h-128zM443 772v88h128v-88h-128z" />
    <glyph glyph-name="multiply" unicode="&#xd7;" 
d="M56 166l183 183l-183 183l61 61l183 -183l183 183l61 -61l-183 -183l183 -183l-61 -61l-183 183l-183 -183z" />
    <glyph glyph-name="Oslash" unicode="&#xd8;" horiz-adv-x="796" 
d="M751 722l-90 -111c42 -50 80 -124 80 -261c0 -174 -66 -263 -131 -311c-70 -51 -148 -60 -212 -60c-119 0 -176 34 -206 56l-87 -107l-60 50l90 110c-41 50 -80 125 -80 262c0 174 66 263 131 311c70 51 148 60 212 60c133 0 187 -40 206 -56l87 107zM222 195l306 376
c-45 37 -91 44 -130 44c-173 0 -206 -157 -206 -265c0 -46 7 -106 30 -155zM574 505l-306 -376c26 -23 65 -44 130 -44c173 0 206 158 206 265c0 46 -7 106 -30 155z" />
    <glyph glyph-name="Ugrave" unicode="&#xd9;" horiz-adv-x="722" 
d="M72 700h128v-411c0 -140 41 -204 161 -204s161 64 161 204v411h128v-431c0 -113 -20 -290 -289 -290s-289 177 -289 290v431zM364 900l78 -140h-96l-118 140h136z" />
    <glyph glyph-name="Uacute" unicode="&#xda;" horiz-adv-x="722" 
d="M72 700h128v-411c0 -140 41 -204 161 -204s161 64 161 204v411h128v-431c0 -113 -20 -290 -289 -290s-289 177 -289 290v431zM358 900h136l-118 -140h-96z" />
    <glyph glyph-name="Ucircumflex" unicode="&#xdb;" horiz-adv-x="722" 
d="M72 700h128v-411c0 -140 41 -204 161 -204s161 64 161 204v411h128v-431c0 -113 -20 -290 -289 -290s-289 177 -289 290v431zM361 854l-100 -94h-120l134 140h172l134 -140h-120z" />
    <glyph glyph-name="Udieresis" unicode="&#xdc;" horiz-adv-x="722" 
d="M72 700h128v-411c0 -140 41 -204 161 -204s161 64 161 204v411h128v-431c0 -113 -20 -290 -289 -290s-289 177 -289 290v431zM178 772v88h128v-88h-128zM416 772v88h128v-88h-128z" />
    <glyph glyph-name="Yacute" unicode="&#xdd;" horiz-adv-x="634" 
d="M317 393l170 307h151l-257 -421v-279h-128v279l-257 421h151zM314 900h136l-118 -140h-96z" />
    <glyph glyph-name="Thorn" unicode="&#xde;" horiz-adv-x="670" 
d="M85 700h128v-121h182c76 0 243 -15 243 -225c0 -213 -199 -217 -244 -217h-181v-137h-128v700zM213 473v-230h156c84 0 137 29 137 117c0 104 -81 113 -134 113h-159z" />
    <glyph glyph-name="germandbls" unicode="&#xdf;" horiz-adv-x="595" 
d="M72 0v458c0 112 7 262 227 262c127 0 204 -62 204 -182c0 -54 -22 -109 -90 -135v-2c59 -12 146 -55 146 -191c0 -167 -110 -218 -233 -218c-25 0 -45 2 -67 8v82c15 -5 30 -8 51 -8c94 0 124 73 124 141c0 125 -97 133 -154 133h-21v82h25c92 0 99 73 99 104
c0 73 -37 104 -91 104c-91 0 -100 -76 -100 -151v-487h-120z" />
    <glyph glyph-name="agrave" unicode="&#xe0;" horiz-adv-x="577" 
d="M164 351h-114c-2 93 65 177 232 177c205 0 219 -120 219 -180v-203c0 -48 2 -65 44 -62v-83c-30 -2 -43 -3 -53 -3c-31 0 -88 4 -99 66c-44 -56 -101 -75 -169 -75c-176 0 -187 105 -187 147c0 106 94 136 117 142c39 11 76 13 118 19c16 2 33 5 49 7c42 6 60 5 60 55
c0 80 -60 88 -99 88c-87 0 -121 -48 -118 -95zM381 226v18c-13 -9 -29 -14 -86 -21c-82 -11 -134 -18 -134 -84c0 -39 23 -69 79 -69c59 0 141 24 141 156zM292 700l70 -132h-90l-110 132h130z" />
    <glyph glyph-name="aacute" unicode="&#xe1;" horiz-adv-x="577" 
d="M164 351h-114c-2 93 65 177 232 177c205 0 219 -120 219 -180v-203c0 -48 2 -65 44 -62v-83c-30 -2 -43 -3 -53 -3c-31 0 -88 4 -99 66c-44 -56 -101 -75 -169 -75c-176 0 -187 105 -187 147c0 106 94 136 117 142c39 11 76 13 118 19c16 2 33 5 49 7c42 6 60 5 60 55
c0 80 -60 88 -99 88c-87 0 -121 -48 -118 -95zM381 226v18c-13 -9 -29 -14 -86 -21c-82 -11 -134 -18 -134 -84c0 -39 23 -69 79 -69c59 0 141 24 141 156zM284 700h130l-110 -132h-90z" />
    <glyph glyph-name="acircumflex" unicode="&#xe2;" horiz-adv-x="577" 
d="M164 351h-114c-2 93 65 177 232 177c205 0 219 -120 219 -180v-203c0 -48 2 -65 44 -62v-83c-30 -2 -43 -3 -53 -3c-31 0 -88 4 -99 66c-44 -56 -101 -75 -169 -75c-176 0 -187 105 -187 147c0 106 94 136 117 142c39 11 76 13 118 19c16 2 33 5 49 7c42 6 60 5 60 55
c0 80 -60 88 -99 88c-87 0 -121 -48 -118 -95zM381 226v18c-13 -9 -29 -14 -86 -21c-82 -11 -134 -18 -134 -84c0 -39 23 -69 79 -69c59 0 141 24 141 156zM288 657l-90 -89h-110l120 132h160l120 -132h-110z" />
    <glyph glyph-name="atilde" unicode="&#xe3;" horiz-adv-x="577" 
d="M164 351h-114c-2 93 65 177 232 177c205 0 219 -120 219 -180v-203c0 -48 2 -65 44 -62v-83c-30 -2 -43 -3 -53 -3c-31 0 -88 4 -99 66c-44 -56 -101 -75 -169 -75c-176 0 -187 105 -187 147c0 106 94 136 117 142c39 11 76 13 118 19c16 2 33 5 49 7c42 6 60 5 60 55
c0 80 -60 88 -99 88c-87 0 -121 -48 -118 -95zM381 226v18c-13 -9 -29 -14 -86 -21c-82 -11 -134 -18 -134 -84c0 -39 23 -69 79 -69c59 0 141 24 141 156zM406 700h74c-11 -65 -63 -102 -118 -102c-29 0 -53 10 -77 22c-24 11 -44 22 -69 22c-33 0 -44 -22 -46 -36h-74
c9 54 51 102 118 102c30 0 52 -8 77 -20c29 -13 41 -24 69 -24c33 0 44 22 46 36z" />
    <glyph glyph-name="adieresis" unicode="&#xe4;" horiz-adv-x="577" 
d="M164 351h-114c-2 93 65 177 232 177c205 0 219 -120 219 -180v-203c0 -48 2 -65 44 -62v-83c-30 -2 -43 -3 -53 -3c-31 0 -88 4 -99 66c-44 -56 -101 -75 -169 -75c-176 0 -187 105 -187 147c0 106 94 136 117 142c39 11 76 13 118 19c16 2 33 5 49 7c42 6 60 5 60 55
c0 80 -60 88 -99 88c-87 0 -121 -48 -118 -95zM381 226v18c-13 -9 -29 -14 -86 -21c-82 -11 -134 -18 -134 -84c0 -39 23 -69 79 -69c59 0 141 24 141 156zM135 594v106h116v-106h-116zM325 594v106h116v-106h-116z" />
    <glyph glyph-name="aring" unicode="&#xe5;" horiz-adv-x="577" 
d="M164 351h-114c-2 93 65 177 232 177c205 0 219 -120 219 -180v-203c0 -48 2 -65 44 -62v-83c-30 -2 -43 -3 -53 -3c-31 0 -88 4 -99 66c-44 -56 -101 -75 -169 -75c-176 0 -187 105 -187 147c0 106 94 136 117 142c39 11 76 13 118 19c16 2 33 5 49 7c42 6 60 5 60 55
c0 80 -60 88 -99 88c-87 0 -121 -48 -118 -95zM381 226v18c-13 -9 -29 -14 -86 -21c-82 -11 -134 -18 -134 -84c0 -39 23 -69 79 -69c59 0 141 24 141 156zM194 634c0 51 43 94 94 94s94 -43 94 -94s-43 -94 -94 -94s-94 43 -94 94zM244 634c0 -24 20 -44 44 -44
s44 20 44 44s-20 44 -44 44s-44 -20 -44 -44z" />
    <glyph glyph-name="ae" unicode="&#xe6;" horiz-adv-x="930" 
d="M164 351h-114c-2 92 65 177 232 177c77 0 144 -15 173 -79c53 74 144 79 183 79c58 0 249 -13 249 -276v-29h-380c-1 -65 34 -161 140 -161c54 0 110 29 118 85h114c-12 -66 -61 -167 -242 -167c-71 0 -150 15 -198 92c-43 -76 -143 -92 -215 -92c-65 0 -187 13 -187 155
c0 106 94 136 117 142c41 11 86 15 167 26c42 6 60 5 60 55c0 80 -60 88 -99 88c-87 0 -121 -48 -118 -95zM381 218v26c-13 -9 -29 -14 -86 -21c-83 -11 -134 -18 -134 -84c0 -42 23 -77 79 -77c59 0 141 24 141 156zM507 305h253c-1 46 -16 141 -121 141
c-94 0 -134 -75 -132 -141z" />
    <glyph glyph-name="ccedilla" unicode="&#xe7;" horiz-adv-x="574" 
d="M424 186h114c-8 -74 -54 -206 -240 -206c-173 0 -255 112 -255 273c0 260 185 275 251 275c156 0 231 -91 242 -189h-114c-6 53 -42 107 -121 107c-99 0 -130 -89 -130 -193c0 -159 80 -191 137 -191c89 0 114 77 116 124zM175 -232l19 61c25 -8 45 -9 58 -9
c48 0 53 23 53 34c0 29 -34 28 -52 28h-43l18 60h46c27 0 121 0 121 -90c0 -69 -63 -92 -141 -92c-19 0 -44 1 -79 8z" />
    <glyph glyph-name="egrave" unicode="&#xe8;" horiz-adv-x="594" 
d="M429 147h114c-12 -66 -61 -167 -242 -167c-51 0 -258 9 -258 265c0 171 84 283 259 283c220 0 243 -176 248 -276c0 -10 1 -19 1 -29h-380c-1 -65 34 -161 140 -161c54 0 110 29 118 85zM171 305h253c-1 46 -16 141 -121 141c-94 0 -134 -75 -132 -141zM301 700l70 -132
h-90l-110 132h130z" />
    <glyph glyph-name="eacute" unicode="&#xe9;" horiz-adv-x="594" 
d="M429 147h114c-12 -66 -61 -167 -242 -167c-51 0 -258 9 -258 265c0 171 84 283 259 283c220 0 243 -176 248 -276c0 -10 1 -19 1 -29h-380c-1 -65 34 -161 140 -161c54 0 110 29 118 85zM171 305h253c-1 46 -16 141 -121 141c-94 0 -134 -75 -132 -141zM293 700h130
l-110 -132h-90z" />
    <glyph glyph-name="ecircumflex" unicode="&#xea;" horiz-adv-x="594" 
d="M429 147h114c-12 -66 -61 -167 -242 -167c-51 0 -258 9 -258 265c0 171 84 283 259 283c220 0 243 -176 248 -276c0 -10 1 -19 1 -29h-380c-1 -65 34 -161 140 -161c54 0 110 29 118 85zM171 305h253c-1 46 -16 141 -121 141c-94 0 -134 -75 -132 -141zM297 657l-90 -89
h-110l120 132h160l120 -132h-110z" />
    <glyph glyph-name="edieresis" unicode="&#xeb;" horiz-adv-x="594" 
d="M429 147h114c-12 -66 -61 -167 -242 -167c-51 0 -258 9 -258 265c0 171 84 283 259 283c220 0 243 -176 248 -276c0 -10 1 -19 1 -29h-380c-1 -65 34 -161 140 -161c54 0 110 29 118 85zM171 305h253c-1 46 -16 141 -121 141c-94 0 -134 -75 -132 -141zM144 594v106h116
v-106h-116zM334 594v106h116v-106h-116z" />
    <glyph glyph-name="igrave" unicode="&#xec;" horiz-adv-x="264" 
d="M72 508h120v-508h-120v508zM121 700l70 -132h-90l-110 132h130z" />
    <glyph glyph-name="iacute" unicode="&#xed;" horiz-adv-x="264" 
d="M72 508h120v-508h-120v508zM114 700h130l-110 -132h-90z" />
    <glyph glyph-name="icircumflex" unicode="&#xee;" horiz-adv-x="264" 
d="M72 508h120v-508h-120v508zM130 657l-90 -89h-110l120 132h160l120 -132h-110z" />
    <glyph glyph-name="idieresis" unicode="&#xef;" horiz-adv-x="264" 
d="M72 508h120v-508h-120v508zM-23 594v106h116v-106h-116zM167 594v106h116v-106h-116z" />
    <glyph glyph-name="eth" unicode="&#xf0;" horiz-adv-x="633" 
d="M165 679l16 59c57 -8 118 -23 181 -48l75 43l32 -39l-54 -29c152 -74 166 -222 166 -332c0 -95 -14 -353 -267 -353c-219 0 -267 168 -267 264c0 135 79 264 250 264c84 0 150 -29 196 -100h4c-6 69 -39 159 -154 210l-136 -79l-30 38l110 64c-38 17 -79 29 -122 38z
M453 244c0 145 -72 182 -139 182s-139 -37 -139 -182s72 -182 139 -182s139 37 139 182z" />
    <glyph glyph-name="ntilde" unicode="&#xf1;" horiz-adv-x="606" 
d="M72 508h120v-67c35 59 108 87 167 87c174 0 175 -151 175 -188v-340h-120v302c0 61 -1 144 -95 144c-33 0 -127 -13 -127 -162v-284h-120v508zM421 700h74c-11 -65 -63 -102 -118 -102c-29 0 -53 10 -77 22c-24 11 -44 22 -69 22c-33 0 -44 -22 -46 -36h-74
c9 54 51 102 118 102c30 0 52 -8 77 -20c29 -13 41 -24 69 -24c33 0 44 22 46 36z" />
    <glyph glyph-name="ograve" unicode="&#xf2;" horiz-adv-x="610" 
d="M43 254c0 98 46 274 262 274s262 -176 262 -274s-46 -274 -262 -274s-262 176 -262 274zM171 254c0 -174 91 -192 134 -192s134 18 134 192s-91 192 -134 192s-134 -18 -134 -192zM309 700l70 -132h-90l-110 132h130z" />
    <glyph glyph-name="oacute" unicode="&#xf3;" horiz-adv-x="610" 
d="M43 254c0 98 46 274 262 274s262 -176 262 -274s-46 -274 -262 -274s-262 176 -262 274zM171 254c0 -174 91 -192 134 -192s134 18 134 192s-91 192 -134 192s-134 -18 -134 -192zM301 700h130l-110 -132h-90z" />
    <glyph glyph-name="ocircumflex" unicode="&#xf4;" horiz-adv-x="610" 
d="M43 254c0 98 46 274 262 274s262 -176 262 -274s-46 -274 -262 -274s-262 176 -262 274zM171 254c0 -174 91 -192 134 -192s134 18 134 192s-91 192 -134 192s-134 -18 -134 -192zM305 657l-90 -89h-110l120 132h160l120 -132h-110z" />
    <glyph glyph-name="otilde" unicode="&#xf5;" horiz-adv-x="610" 
d="M43 254c0 98 46 274 262 274s262 -176 262 -274s-46 -274 -262 -274s-262 176 -262 274zM171 254c0 -174 91 -192 134 -192s134 18 134 192s-91 192 -134 192s-134 -18 -134 -192zM423 700h74c-11 -65 -63 -102 -118 -102c-29 0 -53 10 -77 22c-24 11 -44 22 -69 22
c-33 0 -44 -22 -46 -36h-74c9 54 51 102 118 102c30 0 52 -8 77 -20c29 -13 41 -24 69 -24c33 0 44 22 46 36z" />
    <glyph glyph-name="odieresis" unicode="&#xf6;" horiz-adv-x="610" 
d="M43 254c0 98 46 274 262 274s262 -176 262 -274s-46 -274 -262 -274s-262 176 -262 274zM171 254c0 -174 91 -192 134 -192s134 18 134 192s-91 192 -134 192s-134 -18 -134 -192zM152 594v106h116v-106h-116zM342 594v106h116v-106h-116z" />
    <glyph glyph-name="divide" unicode="&#xf7;" 
d="M230 500c0 39 31 70 70 70s70 -31 70 -70s-31 -70 -70 -70s-70 31 -70 70zM230 152c0 39 31 70 70 70s70 -31 70 -70s-31 -70 -70 -70s-70 31 -70 70zM50 283v86h500v-86h-500z" />
    <glyph glyph-name="oslash" unicode="&#xf8;" horiz-adv-x="604" 
d="M43 254c0 98 46 274 262 274c65 0 109 -14 150 -40l54 65l55 -45l-56 -68c13 -16 59 -79 59 -186c0 -98 -46 -274 -262 -274c-58 0 -102 11 -147 38l-52 -63l-57 45l55 66c-55 67 -61 150 -61 188zM171 254c0 -38 3 -63 11 -94l209 251c-17 16 -44 35 -86 35
c-44 0 -134 -19 -134 -192zM429 345l-207 -251c28 -26 59 -32 83 -32c43 0 134 19 134 192c0 39 -3 63 -10 91z" />
    <glyph glyph-name="ugrave" unicode="&#xf9;" horiz-adv-x="606" 
d="M534 0h-120v67h-2c-33 -59 -104 -87 -169 -87c-167 0 -171 149 -171 188v340h120v-302c0 -58 2 -144 95 -144c126 0 127 137 127 162v284h120v-508zM307 700l70 -132h-90l-110 132h130z" />
    <glyph glyph-name="uacute" unicode="&#xfa;" horiz-adv-x="606" 
d="M534 0h-120v67h-2c-33 -59 -104 -87 -169 -87c-167 0 -171 149 -171 188v340h120v-302c0 -58 2 -144 95 -144c126 0 127 137 127 162v284h120v-508zM299 700h130l-110 -132h-90z" />
    <glyph glyph-name="ucircumflex" unicode="&#xfb;" horiz-adv-x="606" 
d="M534 0h-120v67h-2c-33 -59 -104 -87 -169 -87c-167 0 -171 149 -171 188v340h120v-302c0 -58 2 -144 95 -144c126 0 127 137 127 162v284h120v-508zM303 657l-90 -89h-110l120 132h160l120 -132h-110z" />
    <glyph glyph-name="udieresis" unicode="&#xfc;" horiz-adv-x="606" 
d="M534 0h-120v67h-2c-33 -59 -104 -87 -169 -87c-167 0 -171 149 -171 188v340h120v-302c0 -58 2 -144 95 -144c126 0 127 137 127 162v284h120v-508zM150 594v106h116v-106h-116zM340 594v106h116v-106h-116z" />
    <glyph glyph-name="yacute" unicode="&#xfd;" horiz-adv-x="541" 
d="M105 -183v82c12 -3 28 -6 46 -6c46 0 63 25 80 84l7 24l-231 507h144l153 -378l117 378h120l-194 -552c-16 -46 -42 -145 -167 -145c-22 0 -51 2 -75 6zM266 700h130l-110 -132h-90z" />
    <glyph glyph-name="thorn" unicode="&#xfe;" horiz-adv-x="636" 
d="M72 700h120v-242c40 53 105 70 156 70c117 0 245 -75 245 -271c0 -107 -42 -277 -241 -277c-14 0 -120 0 -160 72v-237h-120v885zM183 253c0 -114 48 -191 135 -191c54 0 147 26 147 188c0 144 -69 196 -142 196c-53 0 -140 -28 -140 -193z" />
    <glyph glyph-name="ydieresis" unicode="&#xff;" horiz-adv-x="541" 
d="M105 -183v82c12 -3 28 -6 46 -6c46 0 63 25 80 84l7 24l-231 507h144l153 -378l117 378h120l-194 -552c-16 -46 -42 -145 -167 -145c-22 0 -51 2 -75 6zM117 594v106h116v-106h-116zM307 594v106h116v-106h-116z" />
    <glyph glyph-name="Amacron" unicode="&#x100;" horiz-adv-x="648" 
d="M184 147l-51 -147h-137l264 700h128l264 -700h-137l-51 147h-280zM218 253h212l-106 311zM159 760v80h330v-80h-165h-165z" />
    <glyph glyph-name="amacron" unicode="&#x101;" horiz-adv-x="577" 
d="M164 351h-114c-2 93 65 177 232 177c205 0 219 -120 219 -180v-203c0 -48 2 -65 44 -62v-83c-30 -2 -43 -3 -53 -3c-31 0 -88 4 -99 66c-44 -56 -101 -75 -169 -75c-176 0 -187 105 -187 147c0 106 94 136 117 142c39 11 76 13 118 19c16 2 33 5 49 7c42 6 60 5 60 55
c0 80 -60 88 -99 88c-87 0 -121 -48 -118 -95zM381 226v18c-13 -9 -29 -14 -86 -21c-82 -11 -134 -18 -134 -84c0 -39 23 -69 79 -69c59 0 141 24 141 156zM123 602v82h330v-82h-165h-165z" />
    <glyph glyph-name="Abreve" unicode="&#x102;" horiz-adv-x="648" 
d="M184 147l-51 -147h-137l264 700h128l264 -700h-137l-51 147h-280zM218 253h212l-106 311zM114 913h103c5 -53 52 -81 107 -81s102 28 107 81h103c-15 -86 -86 -153 -210 -153s-195 67 -210 153z" />
    <glyph glyph-name="abreve" unicode="&#x103;" horiz-adv-x="577" 
d="M164 351h-114c-2 93 65 177 232 177c205 0 219 -120 219 -180v-203c0 -48 2 -65 44 -62v-83c-30 -2 -43 -3 -53 -3c-31 0 -88 4 -99 66c-44 -56 -101 -75 -169 -75c-176 0 -187 105 -187 147c0 106 94 136 117 142c39 11 76 13 118 19c16 2 33 5 49 7c42 6 60 5 60 55
c0 80 -60 88 -99 88c-87 0 -121 -48 -118 -95zM381 226v18c-13 -9 -29 -14 -86 -21c-82 -11 -134 -18 -134 -84c0 -39 23 -69 79 -69c59 0 141 24 141 156zM91 700h102c2 -47 45 -73 95 -73s93 26 95 73h102c-12 -56 -52 -143 -197 -143s-185 87 -197 143z" />
    <glyph glyph-name="Aogonek" unicode="&#x104;" horiz-adv-x="648" 
d="M184 147l-51 -147h-137l264 700h128l264 -700c-53 -17 -83 -63 -83 -120c0 -35 19 -60 51 -60c35 0 50 29 49 57h80c-3 -28 -22 -117 -143 -117c-93 0 -127 61 -127 116c0 45 21 97 73 124h-37l-51 147h-280zM218 253h212l-106 311z" />
    <glyph glyph-name="aogonek" unicode="&#x105;" horiz-adv-x="577" 
d="M164 351h-114c-2 93 65 177 232 177c205 0 219 -120 219 -180v-203c0 -48 2 -65 44 -62v-83c-53 -17 -83 -63 -83 -120c0 -35 19 -60 51 -60c35 0 50 29 49 57h80c-3 -28 -22 -117 -143 -117c-93 0 -127 61 -127 116c0 64 40 106 72 127c-20 6 -44 22 -51 60
c-44 -56 -101 -75 -169 -75c-176 0 -187 105 -187 147c0 106 94 136 117 142c41 11 86 15 167 26c42 6 60 5 60 55c0 80 -60 88 -99 88c-87 0 -121 -48 -118 -95zM381 226v18c-13 -9 -29 -14 -86 -21c-82 -11 -134 -18 -134 -84c0 -39 23 -69 79 -69c59 0 141 24 141 156z
" />
    <glyph glyph-name="Cacute" unicode="&#x106;" horiz-adv-x="733" 
d="M568 239h127c-10 -106 -66 -260 -303 -260c-54 0 -347 5 -347 359c0 288 166 383 340 383c240 0 294 -147 300 -247h-127c-8 58 -42 141 -173 141c-156 0 -203 -127 -203 -272c0 -164 90 -258 216 -258c116 0 166 79 170 154zM363 900h136l-118 -140h-96z" />
    <glyph glyph-name="cacute" unicode="&#x107;" horiz-adv-x="574" 
d="M424 186h114c-8 -74 -54 -206 -240 -206c-173 0 -255 112 -255 273c0 260 185 275 251 275c156 0 231 -91 242 -189h-114c-6 53 -42 107 -121 107c-99 0 -130 -89 -130 -193c0 -159 80 -191 137 -191c89 0 114 77 116 124zM283 700h130l-110 -132h-90z" />
    <glyph glyph-name="Ccircumflex" unicode="&#x108;" horiz-adv-x="733" 
d="M568 239h127c-10 -106 -66 -260 -303 -260c-54 0 -347 5 -347 359c0 288 166 383 340 383c240 0 294 -147 300 -247h-127c-8 58 -42 141 -173 141c-156 0 -203 -127 -203 -272c0 -164 90 -258 216 -258c116 0 166 79 170 154zM366 854l-100 -94h-120l134 140h172
l134 -140h-120z" />
    <glyph glyph-name="ccircumflex" unicode="&#x109;" horiz-adv-x="574" 
d="M424 186h114c-8 -74 -54 -206 -240 -206c-173 0 -255 112 -255 273c0 260 185 275 251 275c156 0 231 -91 242 -189h-114c-6 53 -42 107 -121 107c-99 0 -130 -89 -130 -193c0 -159 80 -191 137 -191c89 0 114 77 116 124zM287 657l-90 -89h-110l120 132h160l120 -132
h-110z" />
    <glyph glyph-name="Ccaron" unicode="&#x10c;" horiz-adv-x="733" 
d="M568 239h127c-10 -106 -66 -260 -303 -260c-54 0 -347 5 -347 359c0 288 166 383 340 383c240 0 294 -147 300 -247h-127c-8 58 -42 141 -173 141c-156 0 -203 -127 -203 -272c0 -164 90 -258 216 -258c116 0 166 79 170 154zM366 806l100 94h120l-134 -140h-172
l-134 140h120z" />
    <glyph glyph-name="ccaron" unicode="&#x10d;" horiz-adv-x="574" 
d="M424 186h114c-8 -74 -54 -206 -240 -206c-173 0 -255 112 -255 273c0 260 185 275 251 275c156 0 231 -91 242 -189h-114c-6 53 -42 107 -121 107c-99 0 -130 -89 -130 -193c0 -159 80 -191 137 -191c89 0 114 77 116 124zM287 611l90 89h110l-120 -132h-160l-120 132
h110z" />
    <glyph glyph-name="Dcaron" unicode="&#x10e;" horiz-adv-x="746" 
d="M85 700h278c287 0 338 -198 338 -348c0 -317 -222 -352 -363 -352h-253v700zM213 594v-488h119c62 0 232 10 232 244c0 216 -135 244 -212 244h-139zM373 806l100 94h120l-134 -140h-172l-134 140h120z" />
    <glyph glyph-name="dcaron" unicode="&#x10f;" horiz-adv-x="755" 
d="M444 700h120v-700h-110v50h-2c-49 -60 -123 -70 -164 -70c-119 0 -245 74 -245 271c0 144 71 277 241 277c14 0 120 0 160 -72v244zM171 250c0 -170 102 -188 143 -188c86 0 139 80 139 191c0 165 -88 193 -140 193c-73 0 -142 -52 -142 -196zM640 700h132v-139
c0 -114 -70 -148 -132 -154v69c39 2 67 33 67 78v11h-67v135z" />
    <glyph glyph-name="Dcroat" unicode="&#x110;" horiz-adv-x="756" 
d="M95 700h278c287 0 338 -198 338 -348c0 -317 -222 -352 -363 -352h-253v356h-95v82h95v262zM223 594v-156h197v-82h-197v-250h119c62 0 232 10 232 244c0 216 -135 244 -212 244h-139z" />
    <glyph glyph-name="dcroat" unicode="&#x111;" horiz-adv-x="644" 
d="M444 700h120v-61h80v-68h-80v-571h-110v50h-2c-49 -60 -123 -70 -164 -70c-119 0 -245 74 -245 271c0 144 71 277 241 277c14 0 120 0 160 -72v115h-200v68h200v61zM171 250c0 -170 102 -188 143 -188c86 0 139 80 139 191c0 165 -88 193 -140 193
c-73 0 -142 -52 -142 -196z" />
    <glyph glyph-name="Emacron" unicode="&#x112;" horiz-adv-x="638" 
d="M213 412h356v-106h-356v-200h408v-106h-536v700h525v-106h-397v-182zM154 760v80h330v-80h-165h-165z" />
    <glyph glyph-name="emacron" unicode="&#x113;" horiz-adv-x="594" 
d="M429 147h114c-12 -66 -61 -167 -242 -167c-51 0 -258 9 -258 265c0 171 84 283 259 283c220 0 243 -176 248 -276c0 -10 1 -19 1 -29h-380c-1 -65 34 -161 140 -161c54 0 110 29 118 85zM171 305h253c-1 46 -16 141 -121 141c-94 0 -134 -75 -132 -141zM132 602v82h330
v-82h-165h-165z" />
    <glyph glyph-name="Edotaccent" unicode="&#x116;" horiz-adv-x="638" 
d="M213 412h356v-106h-356v-200h408v-106h-536v700h525v-106h-397v-182zM255 772v88h128v-88h-128z" />
    <glyph glyph-name="edotaccent" unicode="&#x117;" horiz-adv-x="594" 
d="M429 147h114c-12 -66 -61 -167 -242 -167c-51 0 -258 9 -258 265c0 171 84 283 259 283c220 0 243 -176 248 -276c0 -10 1 -19 1 -29h-380c-1 -65 34 -161 140 -161c54 0 110 29 118 85zM171 305h253c-1 46 -16 141 -121 141c-94 0 -134 -75 -132 -141zM237 594v106h120
v-106h-120z" />
    <glyph glyph-name="Eogonek" unicode="&#x118;" horiz-adv-x="638" 
d="M213 412h356v-106h-356v-200h408v-106h-164c-53 -17 -83 -63 -83 -120c0 -35 19 -60 51 -60c35 0 50 29 49 57h80c-3 -28 -22 -117 -143 -117c-93 0 -127 61 -127 116c0 45 21 97 73 124h-272v700h525v-106h-397v-182z" />
    <glyph glyph-name="eogonek" unicode="&#x119;" horiz-adv-x="594" 
d="M429 147h114c-16 -89 -79 -126 -95 -135c-12 -7 -25 -13 -39 -17c-50 -22 -70 -70 -70 -115c0 -35 19 -60 51 -60c35 0 50 29 49 57h80c-3 -28 -22 -117 -143 -117c-125 0 -127 103 -127 116c0 43 16 76 44 104c-119 -2 -250 68 -250 265c0 171 84 283 259 283
c159 0 246 -84 249 -305h-380c-1 -65 34 -161 140 -161c54 0 110 29 118 85zM171 305h253c0 5 0 11 -1 16c-10 100 -70 125 -120 125c-94 0 -134 -75 -132 -141z" />
    <glyph glyph-name="Ecaron" unicode="&#x11a;" horiz-adv-x="638" 
d="M213 412h356v-106h-356v-200h408v-106h-536v700h525v-106h-397v-182zM319 806l100 94h120l-134 -140h-172l-134 140h120z" />
    <glyph glyph-name="ecaron" unicode="&#x11b;" horiz-adv-x="594" 
d="M429 147h114c-12 -66 -61 -167 -242 -167c-51 0 -258 9 -258 265c0 171 84 283 259 283c220 0 243 -176 248 -276c0 -10 1 -19 1 -29h-380c-1 -65 34 -161 140 -161c54 0 110 29 118 85zM171 305h253c-1 46 -16 141 -121 141c-94 0 -134 -75 -132 -141zM297 611l90 89
h110l-120 -132h-160l-120 132h110z" />
    <glyph glyph-name="Gcircumflex" unicode="&#x11c;" horiz-adv-x="756" 
d="M412 375h286v-375h-92v95h-2c-37 -72 -107 -116 -217 -116c-162 0 -342 85 -342 359c0 328 217 383 344 383c239 0 293 -139 301 -237h-127c-7 53 -45 131 -174 131c-178 0 -207 -164 -207 -272c0 -208 133 -258 216 -258c62 0 182 28 185 184h-171v106zM378 854
l-100 -94h-120l134 140h172l134 -140h-120z" />
    <glyph glyph-name="gcircumflex" unicode="&#x11d;" horiz-adv-x="640" 
d="M458 508h110v-485c0 -140 -97 -216 -257 -216c-124 0 -207 43 -222 144h110c11 -47 72 -60 117 -60c124 0 132 84 132 134v39c-40 -72 -146 -72 -160 -72c-170 0 -241 127 -241 265c0 197 126 271 245 271c41 0 115 -10 164 -70h2v50zM175 256c0 -166 100 -182 143 -182
c69 0 139 56 139 185c0 140 -69 187 -140 187c-89 0 -142 -71 -142 -190zM320 657l-90 -89h-110l120 132h160l120 -132h-110z" />
    <glyph glyph-name="Gbreve" unicode="&#x11e;" horiz-adv-x="756" 
d="M412 375h286v-375h-92v95h-2c-37 -72 -107 -116 -217 -116c-162 0 -342 85 -342 359c0 328 217 383 344 383c239 0 293 -139 301 -237h-127c-7 53 -45 131 -174 131c-178 0 -207 -164 -207 -272c0 -208 133 -258 216 -258c62 0 182 28 185 184h-171v106zM168 913h103
c5 -53 52 -81 107 -81s102 28 107 81h103c-15 -86 -86 -153 -210 -153s-195 67 -210 153z" />
    <glyph glyph-name="gbreve" unicode="&#x11f;" horiz-adv-x="640" 
d="M458 508h110v-485c0 -140 -97 -216 -257 -216c-124 0 -207 43 -222 144h110c11 -47 72 -60 117 -60c124 0 132 84 132 134v39c-40 -72 -146 -72 -160 -72c-170 0 -241 127 -241 265c0 197 126 271 245 271c41 0 115 -10 164 -70h2v50zM175 256c0 -166 100 -182 143 -182
c69 0 139 56 139 185c0 140 -69 187 -140 187c-89 0 -142 -71 -142 -190zM123 700h102c2 -47 45 -73 95 -73s93 26 95 73h102c-12 -56 -52 -143 -197 -143s-185 87 -197 143z" />
    <glyph glyph-name="Gcommaaccent" unicode="&#x122;" horiz-adv-x="756" 
d="M412 375h286v-375h-92v95h-2c-37 -72 -107 -116 -217 -116c-162 0 -342 85 -342 359c0 328 217 383 344 383c239 0 293 -139 301 -237h-127c-7 53 -45 131 -174 131c-178 0 -207 -164 -207 -272c0 -208 133 -258 216 -258c62 0 182 28 185 184h-171v106zM312 -60h132v-99
c0 -103 -104 -111 -132 -111v64c33 -1 67 11 67 37v9h-67v100z" />
    <glyph glyph-name="gcommaaccent" unicode="&#x123;" horiz-adv-x="640" 
d="M458 508h110v-485c0 -140 -97 -216 -257 -216c-124 0 -207 43 -222 144h110c11 -47 72 -60 117 -60c124 0 132 84 132 134v39c-40 -72 -146 -72 -160 -72c-170 0 -241 127 -241 265c0 197 126 271 245 271c41 0 115 -10 164 -70h2v50zM175 256c0 -166 100 -182 143 -182
c69 0 139 56 139 185c0 140 -69 187 -140 187c-89 0 -142 -71 -142 -190zM370 559h-132v99c0 103 104 111 132 111v-64c-33 1 -67 -11 -67 -37v-9h67v-100z" />
    <glyph glyph-name="Hcircumflex" unicode="&#x124;" horiz-adv-x="738" 
d="M213 314v-314h-128v700h128v-280h312v280h128v-700h-128v314h-312zM369 854l-100 -94h-120l134 140h172l134 -140h-120z" />
    <glyph glyph-name="hcircumflex" unicode="&#x125;" horiz-adv-x="606" 
d="M72 700h120v-259c35 59 108 87 167 87c174 0 175 -151 175 -188v-340h-120v302c0 61 -1 144 -95 144c-33 0 -127 -13 -127 -162v-284h-120v700zM290 865l-90 -89h-110l120 132h160l120 -132h-110z" />
    <glyph glyph-name="Imacron" unicode="&#x12a;" horiz-adv-x="298" 
d="M85 700h128v-700h-128v700zM-18 760v80h330v-80h-165h-165z" />
    <glyph glyph-name="imacron" unicode="&#x12b;" horiz-adv-x="264" 
d="M72 508h120v-508h-120v508zM-36 602v82h330v-82h-165h-165z" />
    <glyph glyph-name="Iogonek" unicode="&#x12e;" horiz-adv-x="298" 
d="M85 700h128v-700c-18 -6 -32 -14 -45 -26c-18 -17 -38 -47 -38 -94c0 -35 19 -60 51 -60c35 0 50 29 49 57h80c-3 -28 -22 -117 -143 -117c-93 0 -127 61 -127 116c0 45 21 97 73 124h-28v700z" />
    <glyph glyph-name="iogonek" unicode="&#x12f;" horiz-adv-x="260" 
d="M70 508h120v-508c-53 -17 -83 -63 -83 -120c0 -35 19 -60 51 -60c35 0 50 29 49 57h80c-3 -28 -22 -117 -143 -117c-93 0 -127 61 -127 116c0 38 14 88 53 124v508zM70 594v106h120v-106h-120z" />
    <glyph glyph-name="Idotaccent" unicode="&#x130;" horiz-adv-x="298" 
d="M85 700h128v-700h-128v700zM85 772v88h128v-88h-128z" />
    <glyph glyph-name="dotlessi" unicode="&#x131;" horiz-adv-x="264" 
d="M72 508h120v-508h-120v508z" />
    <glyph glyph-name="Jcircumflex" unicode="&#x134;" horiz-adv-x="551" 
d="M23 243h128v-29c0 -119 65 -129 102 -129c51 0 98 12 98 147v468h128v-452c0 -117 -14 -269 -227 -269c-186 0 -229 121 -229 225v39zM404 854l-100 -94h-120l134 140h172l134 -140h-120z" />
    <glyph glyph-name="jcircumflex" unicode="&#x135;" horiz-adv-x="264" 
d="M72 508h120v-535c0 -88 -15 -162 -143 -162c-17 0 -48 2 -68 4v82c66 2 91 19 91 83v528zM132 657l-90 -89h-110l120 132h160l120 -132h-110z" />
    <glyph glyph-name="Kcommaaccent" unicode="&#x136;" horiz-adv-x="706" 
d="M213 385l306 315h172l-290 -290l309 -410h-172l-231 324l-94 -91v-233h-128v700h128v-315zM287 -60h132v-99c0 -103 -104 -111 -132 -111v64c33 -1 67 11 67 37v9h-67v100z" />
    <glyph glyph-name="kcommaaccent" unicode="&#x137;" horiz-adv-x="564" 
d="M192 285l212 223h142l-198 -198l220 -310h-140l-163 237l-73 -74v-163h-120v700h120v-415zM216 -60h132v-99c0 -103 -104 -111 -132 -111v64c33 -1 67 11 67 37v9h-67v100z" />
    <glyph glyph-name="Lacute" unicode="&#x139;" horiz-adv-x="548" 
d="M554 106v-106h-469v700h128v-594h341zM271 900h136l-118 -140h-96z" />
    <glyph glyph-name="lacute" unicode="&#x13a;" horiz-adv-x="264" 
d="M72 700h120v-700h-120v700zM158 884h130l-110 -132h-90z" />
    <glyph glyph-name="Lcommaaccent" unicode="&#x13b;" horiz-adv-x="548" 
d="M554 106v-106h-469v700h128v-594h341zM208 -60h132v-99c0 -103 -104 -111 -132 -111v64c33 -1 67 11 67 37v9h-67v100z" />
    <glyph glyph-name="lcommaaccent" unicode="&#x13c;" horiz-adv-x="264" 
d="M72 700h120v-700h-120v700zM60 -60h132v-99c0 -103 -104 -111 -132 -111v64c33 -1 67 11 67 37v9h-67v100z" />
    <glyph glyph-name="Lcaron" unicode="&#x13d;" horiz-adv-x="548" 
d="M554 106v-106h-469v700h128v-594h341zM414 700h132v-139c0 -114 -70 -148 -132 -154v69c39 2 67 33 67 78v11h-67v135z" />
    <glyph glyph-name="lcaron" unicode="&#x13e;" horiz-adv-x="385" 
d="M72 700h120v-700h-120v700zM270 700h132v-139c0 -114 -70 -148 -132 -154v69c39 2 67 33 67 78v11h-67v135z" />
    <glyph glyph-name="Lslash" unicode="&#x141;" horiz-adv-x="540" 
d="M546 106v-106h-469v133l-67 -67v110l67 67v457h128v-345l198 203v-110l-198 -203v-139h341z" />
    <glyph glyph-name="lslash" unicode="&#x142;" horiz-adv-x="320" 
d="M100 700h120v-226l120 84v-92l-120 -84v-382h-120v312l-120 -82v92l120 82v296z" />
    <glyph glyph-name="Nacute" unicode="&#x143;" horiz-adv-x="770" 
d="M213 497v-497h-128v700h136l336 -497v497h128v-700h-136zM382 900h136l-118 -140h-96z" />
    <glyph glyph-name="nacute" unicode="&#x144;" horiz-adv-x="606" 
d="M72 508h120v-67c35 59 108 87 167 87c174 0 175 -151 175 -188v-340h-120v302c0 61 -1 144 -95 144c-33 0 -127 -13 -127 -162v-284h-120v508zM299 700h130l-110 -132h-90z" />
    <glyph glyph-name="Ncommaaccent" unicode="&#x145;" horiz-adv-x="770" 
d="M213 497v-497h-128v700h136l336 -497v497h128v-700h-136zM319 -60h132v-99c0 -103 -104 -111 -132 -111v64c33 -1 67 11 67 37v9h-67v100z" />
    <glyph glyph-name="ncommaaccent" unicode="&#x146;" horiz-adv-x="606" 
d="M72 508h120v-67c35 59 108 87 167 87c174 0 175 -151 175 -188v-340h-120v302c0 61 -1 144 -95 144c-33 0 -127 -13 -127 -162v-284h-120v508zM237 -60h132v-99c0 -103 -104 -111 -132 -111v64c33 -1 67 11 67 37v9h-67v100z" />
    <glyph glyph-name="Ncaron" unicode="&#x147;" horiz-adv-x="770" 
d="M213 497v-497h-128v700h136l336 -497v497h128v-700h-136zM385 806l100 94h120l-134 -140h-172l-134 140h120z" />
    <glyph glyph-name="ncaron" unicode="&#x148;" horiz-adv-x="606" 
d="M72 508h120v-67c35 59 108 87 167 87c174 0 175 -151 175 -188v-340h-120v302c0 61 -1 144 -95 144c-33 0 -127 -13 -127 -162v-284h-120v508zM303 611l90 89h110l-120 -132h-160l-120 132h110z" />
    <glyph glyph-name="Omacron" unicode="&#x14c;" horiz-adv-x="776" 
d="M45 350c0 363 282 371 343 371s343 -8 343 -371s-282 -371 -343 -371s-343 8 -343 371zM182 350c0 -108 33 -265 206 -265s206 157 206 265s-33 265 -206 265s-206 -157 -206 -265zM223 760v80h330v-80h-165h-165z" />
    <glyph glyph-name="omacron" unicode="&#x14d;" horiz-adv-x="610" 
d="M43 254c0 98 46 274 262 274s262 -176 262 -274s-46 -274 -262 -274s-262 176 -262 274zM171 254c0 -174 91 -192 134 -192s134 18 134 192s-91 192 -134 192s-134 -18 -134 -192zM140 602v82h330v-82h-165h-165z" />
    <glyph glyph-name="Obreve" unicode="&#x14e;" horiz-adv-x="776" 
d="M45 350c0 363 282 371 343 371s343 -8 343 -371s-282 -371 -343 -371s-343 8 -343 371zM182 350c0 -108 33 -265 206 -265s206 157 206 265s-33 265 -206 265s-206 -157 -206 -265zM178 913h103c5 -53 52 -81 107 -81s102 28 107 81h103c-15 -86 -86 -153 -210 -153
s-195 67 -210 153z" />
    <glyph glyph-name="obreve" unicode="&#x14f;" horiz-adv-x="610" 
d="M43 254c0 98 46 274 262 274s262 -176 262 -274s-46 -274 -262 -274s-262 176 -262 274zM171 254c0 -174 91 -192 134 -192s134 18 134 192s-91 192 -134 192s-134 -18 -134 -192zM108 700h102c2 -47 45 -73 95 -73s93 26 95 73h102c-12 -56 -52 -143 -197 -143
s-185 87 -197 143z" />
    <glyph glyph-name="Ohungarumlaut" unicode="&#x150;" horiz-adv-x="776" 
d="M45 350c0 363 282 371 343 371s343 -8 343 -371s-282 -371 -343 -371s-343 8 -343 371zM182 350c0 -108 33 -265 206 -265s206 157 206 265s-33 265 -206 265s-206 -157 -206 -265zM325 900h130l-118 -140h-90zM497 900h130l-118 -140h-90z" />
    <glyph glyph-name="ohungarumlaut" unicode="&#x151;" horiz-adv-x="610" 
d="M43 254c0 98 46 274 262 274s262 -176 262 -274s-46 -274 -262 -274s-262 176 -262 274zM171 254c0 -174 91 -192 134 -192s134 18 134 192s-91 192 -134 192s-134 -18 -134 -192zM222 700h120l-110 -132h-80zM392 700h120l-110 -132h-80z" />
    <glyph glyph-name="OE" unicode="&#x152;" horiz-adv-x="1147" 
d="M594 700h525v-106h-397v-182h356v-106h-356v-200h408v-106h-536v68c-63 -80 -149 -89 -206 -89c-61 0 -343 9 -343 371s282 371 343 371c57 0 143 -9 206 -89v68zM388 85c173 0 206 157 206 265s-33 265 -206 265s-206 -157 -206 -265s33 -265 206 -265z" />
    <glyph glyph-name="oe" unicode="&#x153;" horiz-adv-x="982" 
d="M817 147h114c-12 -66 -61 -167 -242 -167c-115 0 -168 46 -193 74c-60 -64 -137 -74 -191 -74c-216 0 -262 176 -262 274s46 274 262 274c54 0 131 -10 191 -74c32 33 89 74 194 74c163 0 249 -104 249 -276v-29h-380c-1 -65 34 -161 140 -161c54 0 110 29 118 85z
M171 254c0 -174 91 -192 134 -192s134 18 134 192s-91 192 -134 192s-134 -18 -134 -192zM559 305h253c-1 46 -16 141 -121 141c-94 0 -134 -75 -132 -141z" />
    <glyph glyph-name="Racute" unicode="&#x154;" horiz-adv-x="708" 
d="M85 0v700h313c86 0 253 -12 253 -195c0 -104 -61 -154 -117 -170v-2c100 -32 102 -119 103 -182c1 -94 0 -118 26 -151h-132c-20 32 -22 56 -22 146c0 64 -5 132 -148 132h-148v-278h-128zM213 594v-210h160c65 0 146 10 146 105c0 101 -91 105 -143 105h-163zM351 900
h136l-118 -140h-96z" />
    <glyph glyph-name="racute" unicode="&#x155;" horiz-adv-x="402" 
d="M388 518v-78c-158 4 -190 -88 -195 -161c-1 -17 -1 -34 -1 -52v-227h-120v508h120v-93h2c34 85 118 103 174 103h20zM197 700h130l-110 -132h-90z" />
    <glyph glyph-name="Rcommaaccent" unicode="&#x156;" horiz-adv-x="708" 
d="M85 0v700h313c86 0 253 -12 253 -195c0 -104 -61 -154 -117 -170v-2c100 -32 102 -119 103 -182c1 -94 0 -118 26 -151h-132c-20 32 -22 56 -22 146c0 64 -5 132 -148 132h-148v-278h-128zM213 594v-210h160c65 0 146 10 146 105c0 101 -91 105 -143 105h-163zM288 -60
h132v-99c0 -103 -104 -111 -132 -111v64c33 -1 67 11 67 37v9h-67v100z" />
    <glyph glyph-name="rcommaaccent" unicode="&#x157;" horiz-adv-x="402" 
d="M388 518v-78c-158 4 -190 -88 -195 -161c-1 -17 -1 -34 -1 -52v-227h-120v508h120v-93h2c34 85 118 103 174 103h20zM70 -60h132v-99c0 -103 -104 -111 -132 -111v64c33 -1 67 11 67 37v9h-67v100z" />
    <glyph glyph-name="Rcaron" unicode="&#x158;" horiz-adv-x="708" 
d="M85 0v700h313c86 0 253 -12 253 -195c0 -104 -61 -154 -117 -170v-2c100 -32 102 -119 103 -182c1 -94 0 -118 26 -151h-132c-20 32 -22 56 -22 146c0 64 -5 132 -148 132h-148v-278h-128zM213 594v-210h160c65 0 146 10 146 105c0 101 -91 105 -143 105h-163zM354 806
l100 94h120l-134 -140h-172l-134 140h120z" />
    <glyph glyph-name="rcaron" unicode="&#x159;" horiz-adv-x="402" 
d="M388 518v-78c-158 4 -190 -88 -195 -161c-1 -17 -1 -34 -1 -52v-227h-120v508h120v-93h2c34 85 118 103 174 103h20zM168 611l90 89h110l-120 -132h-160l-120 132h110z" />
    <glyph glyph-name="Sacute" unicode="&#x15a;" horiz-adv-x="684" 
d="M45 225h127c3 -53 35 -140 182 -140c47 0 148 7 148 105c0 84 -81 99 -126 108c-28 5 -55 11 -82 17c-114 26 -217 60 -217 202c0 198 218 204 275 204c185 0 262 -99 271 -206h-127c-12 98 -110 100 -147 100c-19 0 -135 0 -135 -93c0 -73 79 -85 156 -99
c162 -29 269 -65 269 -220c0 -198 -175 -224 -293 -224c-240 0 -297 135 -301 246zM339 900h136l-118 -140h-96z" />
    <glyph glyph-name="sacute" unicode="&#x15b;" horiz-adv-x="540" 
d="M36 155h120c-1 -69 65 -93 119 -93c45 0 103 13 103 82c0 44 -27 60 -94 72c-18 3 -37 6 -55 9c-111 20 -166 55 -166 150c0 134 140 153 212 153c164 0 214 -71 216 -155h-113c-4 45 -41 73 -99 73c-49 0 -92 -13 -92 -63c0 -63 65 -70 131 -81c75 -12 186 -25 186 -151
c0 -124 -110 -171 -225 -171c-190 0 -238 99 -243 175zM266 700h130l-110 -132h-90z" />
    <glyph glyph-name="Scircumflex" unicode="&#x15c;" horiz-adv-x="684" 
d="M45 225h127c3 -53 35 -140 182 -140c47 0 148 7 148 105c0 84 -81 99 -126 108c-28 5 -55 11 -82 17c-114 26 -217 60 -217 202c0 198 218 204 275 204c185 0 262 -99 271 -206h-127c-12 98 -110 100 -147 100c-19 0 -135 0 -135 -93c0 -73 79 -85 156 -99
c162 -29 269 -65 269 -220c0 -198 -175 -224 -293 -224c-240 0 -297 135 -301 246zM342 854l-100 -94h-120l134 140h172l134 -140h-120z" />
    <glyph glyph-name="scircumflex" unicode="&#x15d;" horiz-adv-x="540" 
d="M36 155h120c-1 -69 65 -93 119 -93c45 0 103 13 103 82c0 44 -27 60 -94 72c-18 3 -37 6 -55 9c-111 20 -166 55 -166 150c0 134 140 153 212 153c164 0 214 -71 216 -155h-113c-4 45 -41 73 -99 73c-49 0 -92 -13 -92 -63c0 -63 65 -70 131 -81c75 -12 186 -25 186 -151
c0 -124 -110 -171 -225 -171c-190 0 -238 99 -243 175zM270 657l-90 -89h-110l120 132h160l120 -132h-110z" />
    <glyph glyph-name="Scedilla" unicode="&#x15e;" horiz-adv-x="684" 
d="M45 225h127c3 -53 35 -140 182 -140c47 0 148 7 148 105c0 84 -81 99 -126 108c-28 5 -55 11 -82 17c-114 26 -217 60 -217 202c0 198 218 204 275 204c185 0 262 -99 271 -206h-127c-12 98 -110 100 -147 100c-19 0 -135 0 -135 -93c0 -73 79 -85 156 -99
c162 -29 269 -65 269 -220c0 -198 -175 -224 -293 -224c-240 0 -297 135 -301 246zM229 -232l19 61c25 -8 45 -9 58 -9c48 0 53 23 53 34c0 29 -34 28 -52 28h-43l18 60h46c27 0 121 0 121 -90c0 -69 -63 -92 -141 -92c-19 0 -44 1 -79 8z" />
    <glyph glyph-name="Scedilla" unicode="&#xf6c1;" horiz-adv-x="684" 
d="M45 225h127c3 -53 35 -140 182 -140c47 0 148 7 148 105c0 84 -81 99 -126 108c-28 5 -55 11 -82 17c-114 26 -217 60 -217 202c0 198 218 204 275 204c185 0 262 -99 271 -206h-127c-12 98 -110 100 -147 100c-19 0 -135 0 -135 -93c0 -73 79 -85 156 -99
c162 -29 269 -65 269 -220c0 -198 -175 -224 -293 -224c-240 0 -297 135 -301 246zM229 -232l19 61c25 -8 45 -9 58 -9c48 0 53 23 53 34c0 29 -34 28 -52 28h-43l18 60h46c27 0 121 0 121 -90c0 -69 -63 -92 -141 -92c-19 0 -44 1 -79 8z" />
    <glyph glyph-name="scedilla" unicode="&#x15f;" horiz-adv-x="540" 
d="M36 155h120c-1 -69 65 -93 119 -93c45 0 103 13 103 82c0 44 -27 60 -94 72c-18 3 -37 6 -55 9c-111 20 -166 55 -166 150c0 134 140 153 212 153c164 0 214 -71 216 -155h-113c-4 45 -41 73 -99 73c-49 0 -92 -13 -92 -63c0 -63 65 -70 131 -81c75 -12 186 -25 186 -151
c0 -124 -110 -171 -225 -171c-190 0 -238 99 -243 175zM154 -232l19 61c25 -8 45 -9 58 -9c48 0 53 23 53 34c0 29 -34 28 -52 28h-43l18 60h46c27 0 121 0 121 -90c0 -69 -63 -92 -141 -92c-19 0 -44 1 -79 8z" />
    <glyph glyph-name="scedilla" unicode="&#xf6c2;" horiz-adv-x="540" 
d="M36 155h120c-1 -69 65 -93 119 -93c45 0 103 13 103 82c0 44 -27 60 -94 72c-18 3 -37 6 -55 9c-111 20 -166 55 -166 150c0 134 140 153 212 153c164 0 214 -71 216 -155h-113c-4 45 -41 73 -99 73c-49 0 -92 -13 -92 -63c0 -63 65 -70 131 -81c75 -12 186 -25 186 -151
c0 -124 -110 -171 -225 -171c-190 0 -238 99 -243 175zM154 -232l19 61c25 -8 45 -9 58 -9c48 0 53 23 53 34c0 29 -34 28 -52 28h-43l18 60h46c27 0 121 0 121 -90c0 -69 -63 -92 -141 -92c-19 0 -44 1 -79 8z" />
    <glyph glyph-name="Scaron" unicode="&#x160;" horiz-adv-x="684" 
d="M45 225h127c3 -53 35 -140 182 -140c47 0 148 7 148 105c0 84 -81 99 -126 108c-28 5 -55 11 -82 17c-114 26 -217 60 -217 202c0 198 218 204 275 204c185 0 262 -99 271 -206h-127c-12 98 -110 100 -147 100c-19 0 -135 0 -135 -93c0 -73 79 -85 156 -99
c162 -29 269 -65 269 -220c0 -198 -175 -224 -293 -224c-240 0 -297 135 -301 246zM342 806l100 94h120l-134 -140h-172l-134 140h120z" />
    <glyph glyph-name="scaron" unicode="&#x161;" horiz-adv-x="540" 
d="M36 155h120c-1 -69 65 -93 119 -93c45 0 103 13 103 82c0 44 -27 60 -94 72c-18 3 -37 6 -55 9c-111 20 -166 55 -166 150c0 134 140 153 212 153c164 0 214 -71 216 -155h-113c-4 45 -41 73 -99 73c-49 0 -92 -13 -92 -63c0 -63 65 -70 131 -81c75 -12 186 -25 186 -151
c0 -124 -110 -171 -225 -171c-190 0 -238 99 -243 175zM270 611l90 89h110l-120 -132h-160l-120 132h110z" />
    <glyph glyph-name="Tcedilla" unicode="&#x162;" horiz-adv-x="594" 
d="M233 594h-220v106h568v-106h-220v-594h-128v594zM238 -60h132v-99c0 -103 -104 -111 -132 -111v64c33 -1 67 11 67 37v9h-67v100z" />
    <glyph glyph-name="tcedilla" unicode="&#x163;" horiz-adv-x="342" 
d="M14 508h82v152h120v-152h106v-82h-106v-287c0 -34 1 -63 59 -63c20 0 34 2 47 6v-82c-30 -8 -63 -12 -98 -12c-126 0 -128 75 -128 111v327h-82v82zM139 -60h132v-99c0 -103 -104 -111 -132 -111v64c33 -1 67 11 67 37v9h-67v100z" />
    <glyph glyph-name="Tcaron" unicode="&#x164;" horiz-adv-x="594" 
d="M233 594h-220v106h568v-106h-220v-594h-128v594zM297 806l100 94h120l-134 -140h-172l-134 140h120z" />
    <glyph glyph-name="tcaron" unicode="&#x165;" horiz-adv-x="507" 
d="M14 508h82v152h120v-152h106v-82h-106v-287c0 -34 1 -63 59 -63c20 0 34 2 47 6v-82c-30 -8 -63 -12 -98 -12c-126 0 -128 75 -128 111v327h-82v82zM392 700h132v-139c0 -114 -70 -148 -132 -154v69c39 2 67 33 67 78v11h-67v135z" />
    <glyph glyph-name="Utilde" unicode="&#x168;" horiz-adv-x="722" 
d="M72 700h128v-411c0 -140 41 -204 161 -204s161 64 161 204v411h128v-431c0 -113 -20 -290 -289 -290s-289 177 -289 290v431zM492 880h80c-10 -50 -41 -116 -129 -116c-31 0 -51 8 -85 22c-27 11 -50 22 -77 22s-48 -13 -51 -36h-80c8 56 45 116 129 116
c32 0 51 -6 85 -20c34 -13 47 -24 77 -24c32 0 48 17 51 36z" />
    <glyph glyph-name="utilde" unicode="&#x169;" horiz-adv-x="606" 
d="M534 0h-120v67h-2c-33 -59 -104 -87 -169 -87c-167 0 -171 149 -171 188v340h120v-302c0 -58 2 -144 95 -144c126 0 127 137 127 162v284h120v-508zM421 700h74c-11 -65 -63 -102 -118 -102c-29 0 -53 10 -77 22c-24 11 -44 22 -69 22c-33 0 -44 -22 -46 -36h-74
c9 54 51 102 118 102c30 0 52 -8 77 -20c29 -13 41 -24 69 -24c33 0 44 22 46 36z" />
    <glyph glyph-name="Umacron" unicode="&#x16a;" horiz-adv-x="722" 
d="M72 700h128v-411c0 -140 41 -204 161 -204s161 64 161 204v411h128v-431c0 -113 -20 -290 -289 -290s-289 177 -289 290v431zM196 760v80h330v-80h-165h-165z" />
    <glyph glyph-name="umacron" unicode="&#x16b;" horiz-adv-x="606" 
d="M534 0h-120v67h-2c-33 -59 -104 -87 -169 -87c-167 0 -171 149 -171 188v340h120v-302c0 -58 2 -144 95 -144c126 0 127 137 127 162v284h120v-508zM138 602v82h330v-82h-165h-165z" />
    <glyph glyph-name="Ubreve" unicode="&#x16c;" horiz-adv-x="722" 
d="M72 700h128v-411c0 -140 41 -204 161 -204s161 64 161 204v411h128v-431c0 -113 -20 -290 -289 -290s-289 177 -289 290v431zM151 913h103c5 -53 52 -81 107 -81s102 28 107 81h103c-15 -86 -86 -153 -210 -153s-195 67 -210 153z" />
    <glyph glyph-name="ubreve" unicode="&#x16d;" horiz-adv-x="606" 
d="M534 0h-120v67h-2c-33 -59 -104 -87 -169 -87c-167 0 -171 149 -171 188v340h120v-302c0 -58 2 -144 95 -144c126 0 127 137 127 162v284h120v-508zM106 700h102c2 -47 45 -73 95 -73s93 26 95 73h102c-12 -56 -52 -143 -197 -143s-185 87 -197 143z" />
    <glyph glyph-name="Uring" unicode="&#x16e;" horiz-adv-x="722" 
d="M72 700h128v-411c0 -140 41 -204 161 -204s161 64 161 204v411h128v-431c0 -113 -20 -290 -289 -290s-289 177 -289 290v431zM261 820c0 56 44 100 100 100s100 -44 100 -100s-44 -100 -100 -100s-100 44 -100 100zM317 820c0 -24 20 -44 44 -44s44 20 44 44
s-20 44 -44 44s-44 -20 -44 -44z" />
    <glyph glyph-name="uring" unicode="&#x16f;" horiz-adv-x="606" 
d="M534 0h-120v67h-2c-33 -59 -104 -87 -169 -87c-167 0 -171 149 -171 188v340h120v-302c0 -58 2 -144 95 -144c126 0 127 137 127 162v284h120v-508zM209 634c0 51 43 94 94 94s94 -43 94 -94s-43 -94 -94 -94s-94 43 -94 94zM259 634c0 -24 20 -44 44 -44s44 20 44 44
s-20 44 -44 44s-44 -20 -44 -44z" />
    <glyph glyph-name="Uhungarumlaut" unicode="&#x170;" horiz-adv-x="722" 
d="M72 700h128v-411c0 -140 41 -204 161 -204s161 64 161 204v411h128v-431c0 -113 -20 -290 -289 -290s-289 177 -289 290v431zM315 900h130l-118 -140h-90zM487 900h130l-118 -140h-90z" />
    <glyph glyph-name="uhungarumlaut" unicode="&#x171;" horiz-adv-x="606" 
d="M534 0h-120v67h-2c-33 -59 -104 -87 -169 -87c-167 0 -171 149 -171 188v340h120v-302c0 -58 2 -144 95 -144c126 0 127 137 127 162v284h120v-508zM215 700h120l-110 -132h-80zM385 700h120l-110 -132h-80z" />
    <glyph glyph-name="Uogonek" unicode="&#x172;" horiz-adv-x="722" 
d="M72 700h128v-411c0 -140 41 -204 161 -204s161 64 161 204v411h128v-431c0 -97 -18 -284 -259 -289c-41 -33 -45 -81 -45 -100c0 -35 19 -60 51 -60c35 0 50 29 49 57h80c-3 -28 -22 -117 -143 -117c-92 0 -127 61 -127 116c0 38 16 84 47 106c-216 20 -231 191 -231 287
v431z" />
    <glyph glyph-name="uogonek" unicode="&#x173;" horiz-adv-x="606" 
d="M72 508h120v-302c0 -58 2 -144 95 -144c126 0 127 137 127 162v284h120v-508h-10c-53 -17 -83 -63 -83 -120c0 -35 19 -60 51 -60c35 0 50 29 49 57h80c-3 -28 -22 -117 -143 -117c-93 0 -127 61 -127 116c0 46 19 95 63 124v67h-2c-33 -59 -104 -87 -169 -87
c-167 0 -171 149 -171 188v340z" />
    <glyph glyph-name="Ydieresis" unicode="&#x178;" horiz-adv-x="634" 
d="M317 393l170 307h151l-257 -421v-279h-128v279l-257 421h151zM134 772v88h128v-88h-128zM372 772v88h128v-88h-128z" />
    <glyph glyph-name="Zacute" unicode="&#x179;" horiz-adv-x="613" 
d="M45 700h520v-98l-378 -496h400v-106h-561v114l378 480h-359v106zM303 900h136l-118 -140h-96z" />
    <glyph glyph-name="zacute" unicode="&#x17a;" horiz-adv-x="490" 
d="M46 508h401v-82l-281 -344h298v-82h-438v82l281 344h-261v82zM241 700h130l-110 -132h-90z" />
    <glyph glyph-name="Zdotaccent" unicode="&#x17b;" horiz-adv-x="613" 
d="M45 700h520v-98l-378 -496h400v-106h-561v114l378 480h-359v106zM242 772v88h128v-88h-128z" />
    <glyph glyph-name="zdotaccent" unicode="&#x17c;" horiz-adv-x="490" 
d="M46 508h401v-82l-281 -344h298v-82h-438v82l281 344h-261v82zM185 594v106h120v-106h-120z" />
    <glyph glyph-name="Zcaron" unicode="&#x17d;" horiz-adv-x="613" 
d="M45 700h520v-98l-378 -496h400v-106h-561v114l378 480h-359v106zM306 806l100 94h120l-134 -140h-172l-134 140h120z" />
    <glyph glyph-name="zcaron" unicode="&#x17e;" horiz-adv-x="490" 
d="M46 508h401v-82l-281 -344h298v-82h-438v82l281 344h-261v82zM245 611l90 89h110l-120 -132h-160l-120 132h110z" />
    <glyph glyph-name="Schwa" unicode="&#x18f;" horiz-adv-x="774" 
d="M45 367h547c3 84 -23 248 -217 248c-94 0 -174 -39 -189 -121h-127c8 45 52 227 312 227c349 0 358 -302 358 -370c0 -368 -296 -372 -342 -372c-254 0 -350 199 -342 388zM589 254h-404c8 -71 54 -169 202 -169c119 0 189 76 202 169z" />
    <glyph glyph-name="florin" unicode="&#x192;" 
d="M492 508l-17 -82h-110l-93 -446c-16 -77 -29 -169 -173 -169c-24 0 -57 3 -71 4l19 87h18c62 3 73 23 85 82l93 442h-93l18 82h92l11 54c13 64 40 138 182 138c29 0 55 -3 79 -7l-16 -78c-15 5 -34 7 -53 7c-37 0 -62 -25 -70 -61l-11 -53h110z" />
    <glyph glyph-name="Icaron" unicode="&#x1cf;" horiz-adv-x="298" 
d="M85 700h128v-700h-128v700zM148 806l100 94h120l-134 -140h-172l-134 140h120z" />
    <glyph glyph-name="icaron" unicode="&#x1d0;" horiz-adv-x="264" 
d="M72 508h120v-508h-120v508zM132 611l90 89h110l-120 -132h-160l-120 132h110z" />
    <glyph glyph-name="eturn" unicode="&#x1dd;" horiz-adv-x="594" 
d="M165 361h-114c14 65 62 167 242 167c245 0 258 -205 258 -265c0 -171 -84 -283 -259 -283c-73 0 -257 17 -249 305h380c1 65 -32 161 -136 161c-54 0 -109 -30 -122 -85zM423 203h-253c0 -46 17 -141 121 -141c111 0 131 95 132 141z" />
    <glyph glyph-name="Gcaron" unicode="&#x1e6;" horiz-adv-x="756" 
d="M412 375h286v-375h-92v95h-2c-37 -72 -107 -116 -217 -116c-162 0 -342 85 -342 359c0 328 217 383 344 383c239 0 293 -139 301 -237h-127c-7 53 -45 131 -174 131c-178 0 -207 -164 -207 -272c0 -208 133 -258 216 -258c62 0 182 28 185 184h-171v106zM378 806l100 94
h120l-134 -140h-172l-134 140h120z" />
    <glyph glyph-name="gcaron" unicode="&#x1e7;" horiz-adv-x="640" 
d="M458 508h110v-485c0 -140 -97 -216 -257 -216c-124 0 -207 43 -222 144h110c11 -47 72 -60 117 -60c124 0 132 84 132 134v39c-40 -72 -146 -72 -160 -72c-170 0 -241 127 -241 265c0 197 126 271 245 271c41 0 115 -10 164 -70h2v50zM175 256c0 -166 100 -182 143 -182
c69 0 139 56 139 185c0 140 -69 187 -140 187c-89 0 -142 -71 -142 -190zM320 611l90 89h110l-120 -132h-160l-120 132h110z" />
    <glyph glyph-name="Scommaaccent" unicode="&#x218;" horiz-adv-x="684" 
d="M45 225h127c3 -53 35 -140 182 -140c47 0 148 7 148 105c0 84 -81 99 -126 108c-28 5 -55 11 -82 17c-114 26 -217 60 -217 202c0 198 218 204 275 204c185 0 262 -99 271 -206h-127c-12 98 -110 100 -147 100c-19 0 -135 0 -135 -93c0 -73 79 -85 156 -99
c162 -29 269 -65 269 -220c0 -198 -175 -224 -293 -224c-240 0 -297 135 -301 246zM276 -60h132v-99c0 -103 -104 -111 -132 -111v64c33 -1 67 11 67 37v9h-67v100z" />
    <glyph glyph-name="scommaaccent" unicode="&#x219;" horiz-adv-x="540" 
d="M36 155h120c-1 -69 65 -93 119 -93c45 0 103 13 103 82c0 44 -27 60 -94 72c-18 3 -37 6 -55 9c-111 20 -166 55 -166 150c0 134 140 153 212 153c164 0 214 -71 216 -155h-113c-4 45 -41 73 -99 73c-49 0 -92 -13 -92 -63c0 -63 65 -70 131 -81c75 -12 186 -25 186 -151
c0 -124 -110 -171 -225 -171c-190 0 -238 99 -243 175zM204 -60h132v-99c0 -103 -104 -111 -132 -111v64c33 -1 67 11 67 37v9h-67v100z" />
    <glyph glyph-name="Tcommaaccent" unicode="&#x21a;" horiz-adv-x="594" 
d="M233 594h-220v106h568v-106h-220v-594h-128v594zM231 -60h132v-99c0 -103 -104 -111 -132 -111v64c33 -1 67 11 67 37v9h-67v100z" />
    <glyph glyph-name="tcommaaccent" unicode="&#x21b;" horiz-adv-x="342" 
d="M14 508h82v152h120v-152h106v-82h-106v-287c0 -34 1 -63 59 -63c20 0 34 2 47 6v-82c-30 -8 -63 -12 -98 -12c-126 0 -128 75 -128 111v327h-82v82zM151 -60h132v-99c0 -103 -104 -111 -132 -111v64c33 -1 67 11 67 37v9h-67v100z" />
    <glyph glyph-name="schwa" unicode="&#x259;" horiz-adv-x="594" 
d="M165 361h-114c14 65 62 167 242 167c245 0 258 -205 258 -265c0 -171 -84 -283 -259 -283c-73 0 -257 17 -249 305h380c1 65 -32 161 -136 161c-54 0 -109 -30 -122 -85zM423 203h-253c0 -46 17 -141 121 -141c111 0 131 95 132 141z" />
    <glyph glyph-name="afii57929" unicode="&#x2bc;" horiz-adv-x="232" 
d="M50 700h132v-139c0 -114 -70 -148 -132 -154v69c39 2 67 33 67 78v11h-67v135z" />
    <glyph glyph-name="circumflex" unicode="&#x2c6;" horiz-adv-x="500" 
d="M250 657l-90 -89h-110l120 132h160l120 -132h-110z" />
    <glyph glyph-name="caron" unicode="&#x2c7;" horiz-adv-x="500" 
d="M250 611l90 89h110l-120 -132h-160l-120 132h110z" />
    <glyph glyph-name="breve" unicode="&#x2d8;" horiz-adv-x="494" 
d="M50 700h102c2 -47 45 -73 95 -73s93 26 95 73h102c-12 -56 -52 -143 -197 -143s-185 87 -197 143z" />
    <glyph glyph-name="dotaccent" unicode="&#x2d9;" horiz-adv-x="220" 
d="M50 594v106h120v-106h-120z" />
    <glyph glyph-name="ring" unicode="&#x2da;" horiz-adv-x="288" 
d="M50 634c0 51 43 94 94 94s94 -43 94 -94s-43 -94 -94 -94s-94 43 -94 94zM100 634c0 -24 20 -44 44 -44s44 20 44 44s-20 44 -44 44s-44 -20 -44 -44z" />
    <glyph glyph-name="ogonek" unicode="&#x2db;" horiz-adv-x="370" 
d="M123 0h100c-53 -17 -83 -63 -83 -120c0 -35 19 -60 51 -60c35 0 50 29 49 57h80c-3 -28 -22 -117 -143 -117c-93 0 -127 61 -127 116c0 45 21 97 73 124z" />
    <glyph glyph-name="tilde" unicode="&#x2dc;" horiz-adv-x="484" 
d="M360 700h74c-11 -65 -63 -102 -118 -102c-29 0 -53 10 -77 22c-24 11 -44 22 -69 22c-33 0 -44 -22 -46 -36h-74c9 54 51 102 118 102c30 0 52 -8 77 -20c29 -13 41 -24 69 -24c33 0 44 22 46 36z" />
    <glyph glyph-name="hungarumlaut" unicode="&#x2dd;" horiz-adv-x="460" 
d="M120 700h120l-110 -132h-80zM290 700h120l-110 -132h-80z" />
    <glyph glyph-name="accent" unicode="&#x301;" horiz-adv-x="2" 
d="M-277 700h130l-110 -132h-90z" />
    <glyph glyph-name="accent" unicode="&#xf400;" horiz-adv-x="2" 
d="M-277 700h130l-110 -132h-90z" />
    <glyph glyph-name="uni0313" unicode="&#x313;" horiz-adv-x="232" 
d="M50 700h132v-139c0 -114 -70 -148 -132 -154v69c39 2 67 33 67 78v11h-67v135z" />
    <glyph glyph-name="uni0315" unicode="&#x315;" horiz-adv-x="232" 
d="M50 700h132v-139c0 -114 -70 -148 -132 -154v69c39 2 67 33 67 78v11h-67v135z" />
    <glyph glyph-name="uni0326" unicode="&#x326;" horiz-adv-x="232" 
d="M50 -60h132v-99c0 -103 -104 -111 -132 -111v64c33 -1 67 11 67 37v9h-67v100z" />
    <glyph glyph-name="anoteleia" unicode="&#x387;" horiz-adv-x="250" 
d="M59 200v135h132v-135h-132z" />
    <glyph glyph-name="Delta" unicode="&#x394;" horiz-adv-x="648" 
d="M324 564l-154 -458h308zM-4 0l264 700h128l264 -700h-656z" />
    <glyph glyph-name="Delta" unicode="&#x2206;" horiz-adv-x="648" 
d="M324 564l-154 -458h308zM-4 0l264 700h128l264 -700h-656z" />
    <glyph glyph-name="Omega" unicode="&#x3a9;" horiz-adv-x="740" 
d="M58 0v106h151v28c-93 25 -167 116 -167 265c0 312 265 322 328 322s328 -10 328 -322c0 -149 -74 -240 -167 -265v-28h151v-106h-257v200c70 15 136 71 136 199c0 53 -8 213 -191 213s-191 -160 -191 -213c0 -128 66 -184 136 -199v-200h-257z" />
    <glyph glyph-name="Omega" unicode="&#x2126;" horiz-adv-x="740" 
d="M58 0v106h151v28c-93 25 -167 116 -167 265c0 312 265 322 328 322s328 -10 328 -322c0 -149 -74 -240 -167 -265v-28h151v-106h-257v200c70 15 136 71 136 199c0 53 -8 213 -191 213s-191 -160 -191 -213c0 -128 66 -184 136 -199v-200h-257z" />
    <glyph glyph-name="pi" unicode="&#x3c0;" 
d="M106 0v426h-13c-22 0 -50 -9 -67 -20v82c30 17 56 20 85 20h463v-82h-64v-283c0 -29 1 -65 43 -61l10 1v-83c-21 -2 -51 -5 -72 -5c-101 0 -101 70 -101 108v323h-164v-426h-120z" />
    <glyph glyph-name="afii10023" unicode="&#x401;" horiz-adv-x="639" 
d="M213 412h355v-106h-355v-200h409v-106h-537v700h526v-106h-398v-182zM172 772v88h128v-88h-128zM410 772v88h128v-88h-128z" />
    <glyph glyph-name="afii10051" unicode="&#x402;" horiz-adv-x="780" 
d="M12 594v106h568v-106h-230v-196c56 7 92 7 131 7c91 0 256 -5 256 -206c0 -58 -20 -212 -220 -212c-29 0 -52 4 -79 13v106c21 -7 48 -13 68 -13c64 0 94 40 94 102c0 102 -72 104 -133 104c-38 0 -73 -2 -117 -7v-292h-128v594h-210z" />
    <glyph glyph-name="afii10052" unicode="&#x403;" horiz-adv-x="556" 
d="M213 594v-594h-128v700h458v-106h-330zM275 900h136l-118 -140h-96z" />
    <glyph glyph-name="afii10053" unicode="&#x404;" horiz-adv-x="750" 
d="M509 412v-106h-326c2 -87 47 -221 207 -221c123 0 175 69 188 134h127c-15 -94 -82 -240 -319 -240c-201 0 -341 118 -341 359c0 199 88 383 348 383c233 0 297 -132 302 -227h-127c-9 68 -68 121 -179 121c-150 0 -202 -113 -206 -203h326z" />
    <glyph glyph-name="afii10054" unicode="&#x405;" horiz-adv-x="684" 
d="M45 225h127c3 -53 35 -140 182 -140c47 0 148 7 148 105c0 84 -81 99 -126 108c-28 5 -55 11 -82 17c-114 26 -217 60 -217 202c0 198 218 204 275 204c185 0 262 -99 271 -206h-127c-12 98 -110 100 -147 100c-19 0 -135 0 -135 -93c0 -73 79 -85 156 -99
c162 -29 269 -65 269 -220c0 -198 -175 -224 -293 -224c-240 0 -297 135 -301 246z" />
    <glyph glyph-name="afii10055" unicode="&#x406;" horiz-adv-x="298" 
d="M85 700h128v-700h-128v700z" />
    <glyph glyph-name="afii10056" unicode="&#x407;" horiz-adv-x="340" 
d="M106 700h128v-700h-128v700zM20 772v88h120v-88h-120zM200 772v88h120v-88h-120z" />
    <glyph glyph-name="afii10057" unicode="&#x408;" horiz-adv-x="551" 
d="M23 243h128v-29c0 -119 65 -129 102 -129c51 0 98 12 98 147v468h128v-452c0 -117 -14 -269 -227 -269c-186 0 -229 121 -229 225v39z" />
    <glyph glyph-name="afii10058" unicode="&#x409;" horiz-adv-x="1106" 
d="M13 0v106c8 -1 17 -2 25 -2c129 0 132 181 132 321v275h479v-270h182c76 0 243 -15 243 -219c0 -87 -44 -211 -244 -211h-309v594h-223v-207c0 -210 -31 -391 -236 -391c-16 0 -33 1 -49 4zM649 324v-218h156c68 0 137 15 137 111c0 100 -81 107 -134 107h-159z" />
    <glyph glyph-name="afii10059" unicode="&#x40a;" horiz-adv-x="1110" 
d="M213 314v-314h-128v700h128v-280h312v280h128v-270h182c76 0 243 -15 243 -219c0 -87 -44 -211 -244 -211h-309v314h-312zM653 324v-218h156c68 0 137 15 137 111c0 100 -81 107 -134 107h-159z" />
    <glyph glyph-name="afii10060" unicode="&#x40b;" horiz-adv-x="802" 
d="M752 0h-128v182c0 68 0 117 -155 117c-37 0 -69 0 -119 -7v-292h-128v594h-210v106h568v-106h-230v-196c39 3 98 7 143 7c234 0 259 -104 259 -194v-211z" />
    <glyph glyph-name="afii10061" unicode="&#x40c;" horiz-adv-x="668" 
d="M213 385l281 315h152l-310 -323l336 -377h-162l-297 363v-363h-128v700h128v-315zM350 900h136l-118 -140h-96z" />
    <glyph glyph-name="afii10062" unicode="&#x40e;" horiz-adv-x="623" 
d="M345 322l148 378h134l-235 -564c-59 -143 -137 -146 -198 -146c-33 0 -57 1 -91 11v111c22 -7 47 -12 73 -12c45 0 84 14 100 84l-267 516h157zM101 883h103c5 -53 52 -81 107 -81s102 28 107 81h103c-15 -86 -86 -153 -210 -153s-195 67 -210 153z" />
    <glyph glyph-name="afii10145" unicode="&#x40f;" horiz-adv-x="754" 
d="M536 106v594h128v-700h-227v-185h-120v185h-227v700h128v-594h318z" />
    <glyph glyph-name="afii10017" unicode="&#x410;" horiz-adv-x="648" 
d="M184 147l-51 -147h-137l264 700h128l264 -700h-137l-51 147h-280zM218 253h212l-106 311z" />
    <glyph glyph-name="afii10018" unicode="&#x411;" horiz-adv-x="692" 
d="M213 594v-172h204c75 0 235 -15 235 -215c0 -206 -195 -207 -236 -207h-331v700h521v-106h-393zM213 316v-210h170c67 0 137 15 137 107c0 96 -81 103 -134 103h-173z" />
    <glyph glyph-name="afii10019" unicode="&#x412;" horiz-adv-x="715" 
d="M85 700h330c178 0 213 -100 213 -177s-48 -138 -116 -150v-2c58 -10 145 -50 145 -175c0 -177 -151 -196 -256 -196h-316v700zM213 594v-178h169c71 0 114 22 114 83c0 93 -90 95 -117 95h-166zM213 310v-204h175c78 0 137 19 137 104c0 94 -81 100 -134 100h-178z" />
    <glyph glyph-name="afii10020" unicode="&#x413;" horiz-adv-x="556" 
d="M213 594v-594h-128v700h458v-106h-330z" />
    <glyph glyph-name="afii10021" unicode="&#x414;" horiz-adv-x="758" 
d="M649 106h96l-6 -264h-112v158h-509v-158h-112l-6 264h60c46 59 121 185 121 443v151h468v-594zM521 594h-212v-84c0 -155 -17 -272 -97 -404h309v488z" />
    <glyph glyph-name="afii10022" unicode="&#x415;" horiz-adv-x="638" 
d="M213 412h356v-106h-356v-200h408v-106h-536v700h525v-106h-397v-182z" />
    <glyph glyph-name="afii10024" unicode="&#x416;" horiz-adv-x="966" 
d="M419 0v335l-269 -335h-154l309 376l-290 324h154l250 -296v296h128v-296l250 296h154l-290 -324l309 -376h-154l-269 335v-335h-128z" />
    <glyph glyph-name="afii10025" unicode="&#x417;" horiz-adv-x="697" 
d="M45 239h127c1 -58 26 -154 179 -154c95 0 156 41 156 117c0 87 -60 110 -138 110h-96v106h83c30 0 123 2 123 92c0 62 -40 105 -142 105c-121 0 -155 -60 -157 -121h-127c3 183 142 227 295 227c96 0 263 -24 263 -198c0 -90 -55 -145 -117 -154v-2
c76 -11 145 -68 145 -178c0 -82 -45 -210 -296 -210c-180 0 -291 77 -298 260z" />
    <glyph glyph-name="afii10026" unicode="&#x418;" horiz-adv-x="756" 
d="M213 188l333 512h125v-700h-128v512l-333 -512h-125v700h128v-512z" />
    <glyph glyph-name="afii10027" unicode="&#x419;" horiz-adv-x="756" 
d="M213 188l333 512h125v-700h-128v512l-333 -512h-125v700h128v-512zM168 883h103c5 -53 52 -81 107 -81s102 28 107 81h103c-15 -86 -86 -153 -210 -153s-195 67 -210 153z" />
    <glyph glyph-name="afii10028" unicode="&#x41a;" horiz-adv-x="668" 
d="M213 385l281 315h152l-310 -323l336 -377h-162l-297 363v-363h-128v700h128v-315z" />
    <glyph glyph-name="afii10029" unicode="&#x41b;" horiz-adv-x="734" 
d="M13 0v106c153 -27 157 177 157 319v275h479v-700h-128v594h-223v-207c0 -176 -18 -430 -285 -387z" />
    <glyph glyph-name="afii10030" unicode="&#x41c;" horiz-adv-x="934" 
d="M419 0l-206 554h-2l2 -27v-527h-128v700h191l191 -531l191 531h191v-700h-128v527l2 27h-2l-206 -554h-96z" />
    <glyph glyph-name="afii10031" unicode="&#x41d;" horiz-adv-x="738" 
d="M213 314v-314h-128v700h128v-280h312v280h128v-700h-128v314h-312z" />
    <glyph glyph-name="afii10032" unicode="&#x41e;" horiz-adv-x="776" 
d="M45 350c0 363 282 371 343 371s343 -8 343 -371s-282 -371 -343 -371s-343 8 -343 371zM182 350c0 -108 33 -265 206 -265s206 157 206 265s-33 265 -206 265s-206 -157 -206 -265z" />
    <glyph glyph-name="afii10033" unicode="&#x41f;" horiz-adv-x="736" 
d="M213 594v-594h-128v700h566v-700h-128v594h-310z" />
    <glyph glyph-name="afii10034" unicode="&#x420;" horiz-adv-x="668" 
d="M85 700h279c110 0 272 -18 272 -217c0 -127 -71 -225 -273 -225h-150v-258h-128v700zM213 594v-230h149c59 0 142 8 142 113c0 111 -92 117 -141 117h-150z" />
    <glyph glyph-name="afii10035" unicode="&#x421;" horiz-adv-x="733" 
d="M568 239h127c-10 -106 -66 -260 -303 -260c-54 0 -347 5 -347 359c0 288 166 383 340 383c240 0 294 -147 300 -247h-127c-8 58 -42 141 -173 141c-156 0 -203 -127 -203 -272c0 -164 90 -258 216 -258c116 0 166 79 170 154z" />
    <glyph glyph-name="afii10036" unicode="&#x422;" horiz-adv-x="594" 
d="M233 594h-220v106h568v-106h-220v-594h-128v594z" />
    <glyph glyph-name="afii10037" unicode="&#x423;" horiz-adv-x="623" 
d="M345 322l148 378h134l-235 -564c-59 -143 -137 -146 -198 -146c-33 0 -57 1 -91 11v111c22 -7 47 -12 73 -12c45 0 84 14 100 84l-267 516h157z" />
    <glyph glyph-name="afii10038" unicode="&#x424;" horiz-adv-x="926" 
d="M399 -30v100h-27c-68 0 -330 14 -330 287c0 111 49 287 330 287h27v111h128v-111h27c281 0 330 -176 330 -287c0 -273 -262 -287 -330 -287h-27v-100h-128zM399 167v380h-9c-188 0 -211 -107 -211 -190s23 -190 211 -190h9zM527 167h9c188 0 211 107 211 190
s-23 190 -211 190h-9v-380z" />
    <glyph glyph-name="afii10039" unicode="&#x425;" horiz-adv-x="666" 
d="M333 447l155 253h160l-235 -342l253 -358h-165l-168 270l-168 -270h-165l253 358l-235 342h160z" />
    <glyph glyph-name="afii10040" unicode="&#x426;" horiz-adv-x="766" 
d="M213 106h316v594h128v-594h96l-6 -264h-112v158h-550v700h128v-594z" />
    <glyph glyph-name="afii10041" unicode="&#x427;" horiz-adv-x="673" 
d="M58 700h128v-189c0 -67 4 -117 147 -117c56 0 117 6 127 7v299h128v-700h-128v295c-39 -3 -98 -7 -143 -7c-150 0 -259 37 -259 194v218z" />
    <glyph glyph-name="afii10042" unicode="&#x428;" horiz-adv-x="1024" 
d="M213 106h235v594h128v-594h235v594h128v-700h-854v700h128v-594z" />
    <glyph glyph-name="afii10043" unicode="&#x429;" horiz-adv-x="1048" 
d="M213 700v-594h235v594h128v-594h235v594h128v-594h96l-6 -264h-112v158h-832v700h128z" />
    <glyph glyph-name="afii10044" unicode="&#x42a;" horiz-adv-x="744" 
d="M287 700v-270h182c76 0 243 -15 243 -219c0 -87 -44 -211 -244 -211h-309v594h-146v106h274zM287 324v-218h156c68 0 137 15 137 111c0 100 -81 107 -134 107h-159z" />
    <glyph glyph-name="afii10045" unicode="&#x42b;" horiz-adv-x="908" 
d="M213 700v-270h182c76 0 243 -15 243 -219c0 -87 -44 -211 -244 -211h-309v700h128zM213 324v-218h156c68 0 137 15 137 111c0 100 -81 107 -134 107h-159zM695 700h128v-700h-128v700z" />
    <glyph glyph-name="afii10046" unicode="&#x42c;" horiz-adv-x="670" 
d="M213 700v-270h182c76 0 243 -15 243 -219c0 -87 -44 -211 -244 -211h-309v700h128zM213 324v-218h156c68 0 137 15 137 111c0 100 -81 107 -134 107h-159z" />
    <glyph glyph-name="afii10047" unicode="&#x42d;" horiz-adv-x="748" 
d="M259 412h306c-4 89 -56 203 -206 203c-110 0 -167 -53 -177 -121h-127c9 95 66 227 300 227c261 0 348 -184 348 -383c0 -239 -144 -359 -351 -359c-231 0 -298 156 -307 260h127c6 -74 63 -154 186 -154c156 0 203 132 207 221h-306v106z" />
    <glyph glyph-name="afii10048" unicode="&#x42e;" horiz-adv-x="1030" 
d="M213 420h90c10 122 86 301 339 301c61 0 343 -8 343 -371s-282 -371 -343 -371c-264 0 -335 192 -342 335h-87v-314h-128v700h128v-280zM642 85c173 0 206 157 206 265s-33 265 -206 265s-206 -157 -206 -265s33 -265 206 -265z" />
    <glyph glyph-name="afii10049" unicode="&#x42f;" horiz-adv-x="720" 
d="M507 261h-122l-168 -261h-162l198 275c-65 8 -186 47 -186 206c0 210 180 219 279 219h289v-700h-128v261zM507 594h-167c-35 0 -141 0 -141 -116c0 -102 94 -111 150 -111h158v227z" />
    <glyph glyph-name="afii10065" unicode="&#x430;" horiz-adv-x="577" 
d="M164 351h-114c-2 93 65 177 232 177c205 0 219 -120 219 -180v-203c0 -48 2 -65 44 -62v-83c-30 -2 -43 -3 -53 -3c-31 0 -88 4 -99 66c-44 -56 -101 -75 -169 -75c-176 0 -187 105 -187 147c0 106 94 136 117 142c39 11 76 13 118 19c16 2 33 5 49 7c42 6 60 5 60 55
c0 80 -60 88 -99 88c-87 0 -121 -48 -118 -95zM381 226v18c-13 -9 -29 -14 -86 -21c-82 -11 -134 -18 -134 -84c0 -39 23 -69 79 -69c59 0 141 24 141 156z" />
    <glyph glyph-name="afii10066" unicode="&#x431;" horiz-adv-x="634" 
d="M444 739h98c-9 -116 -97 -128 -177 -136c-94 -10 -235 -29 -227 -219h2c31 88 117 136 206 136c136 0 245 -99 245 -270c0 -135 -77 -270 -267 -270c-264 0 -267 241 -267 302c0 163 21 239 38 279c42 98 120 130 277 145c48 4 66 11 72 33zM185 250
c0 -170 94 -188 139 -188s139 18 139 188s-94 188 -139 188s-139 -18 -139 -188z" />
    <glyph glyph-name="afii10067" unicode="&#x432;" horiz-adv-x="574" 
d="M72 508h274c105 0 165 -36 165 -123c0 -77 -56 -110 -98 -118v-2c61 -12 116 -47 116 -131c0 -103 -88 -134 -185 -134h-272v508zM192 426v-122h103c76 0 93 37 93 64c0 51 -47 58 -80 58h-116zM192 222v-140h114c35 0 99 6 99 67c0 65 -61 73 -103 73h-110z" />
    <glyph glyph-name="afii10068" unicode="&#x433;" horiz-adv-x="454" 
d="M192 426v-426h-120v508h370v-82h-250z" />
    <glyph glyph-name="afii10069" unicode="&#x434;" horiz-adv-x="640" 
d="M0 82h70c79 122 81 266 81 337v89h397v-426h88l-10 -214h-100v132h-416v-132h-100zM428 426h-165v-62c0 -119 -18 -180 -66 -282h231v344z" />
    <glyph glyph-name="afii10070" unicode="&#x435;" horiz-adv-x="594" 
d="M429 147h114c-12 -66 -61 -167 -242 -167c-51 0 -258 9 -258 265c0 171 84 283 259 283c220 0 243 -176 248 -276c0 -10 1 -19 1 -29h-380c-1 -65 34 -161 140 -161c54 0 110 29 118 85zM171 305h253c-1 46 -16 141 -121 141c-94 0 -134 -75 -132 -141z" />
    <glyph glyph-name="afii10072" unicode="&#x436;" horiz-adv-x="756" 
d="M318 0v242l-174 -242h-148l222 268l-211 240h141l170 -223v223h120v-223l170 223h141l-211 -240l222 -268h-148l-174 242v-242h-120z" />
    <glyph glyph-name="afii10073" unicode="&#x437;" horiz-adv-x="550" 
d="M32 159h114c0 -36 19 -97 120 -97c100 0 117 50 117 83c0 72 -78 71 -101 71h-68v82h55c73 0 90 39 90 72c0 38 -26 76 -98 76c-33 0 -96 -8 -100 -91h-114c3 72 37 173 221 173c159 0 217 -76 217 -155c0 -67 -44 -101 -86 -108v-2c82 -16 108 -63 108 -114
c0 -76 -42 -169 -242 -169c-199 0 -231 116 -233 179z" />
    <glyph glyph-name="afii10074" unicode="&#x438;" horiz-adv-x="634" 
d="M192 142l238 366h132v-508h-120v366l-238 -366h-132v508h120v-366z" />
    <glyph glyph-name="afii10075" unicode="&#x439;" horiz-adv-x="634" 
d="M192 142l238 366h132v-508h-120v366l-238 -366h-132v508h120v-366zM412 700h102c-12 -56 -52 -143 -197 -143s-185 87 -197 143h102c2 -47 45 -73 95 -73s93 26 95 73z" />
    <glyph glyph-name="afii10076" unicode="&#x43a;" horiz-adv-x="530" 
d="M192 296l193 212h138l-226 -237l237 -271h-138l-204 246v-246h-120v508h120v-212z" />
    <glyph glyph-name="afii10077" unicode="&#x43b;" horiz-adv-x="591" 
d="M13 0v82c130 -24 117 128 117 260v166h389v-508h-120v426h-157v-95c0 -177 -8 -375 -229 -331z" />
    <glyph glyph-name="afii10078" unicode="&#x43c;" horiz-adv-x="778" 
d="M346 0l-154 375h-2l2 -27v-348h-120v508h164l153 -380l153 380h164v-508h-120v348l2 27h-2l-154 -375h-86z" />
    <glyph glyph-name="afii10079" unicode="&#x43d;" horiz-adv-x="604" 
d="M192 226v-226h-120v508h120v-200h220v200h120v-508h-120v226h-220z" />
    <glyph glyph-name="afii10080" unicode="&#x43e;" horiz-adv-x="610" 
d="M43 254c0 98 46 274 262 274s262 -176 262 -274s-46 -274 -262 -274s-262 176 -262 274zM171 254c0 -174 91 -192 134 -192s134 18 134 192s-91 192 -134 192s-134 -18 -134 -192z" />
    <glyph glyph-name="afii10081" unicode="&#x43f;" horiz-adv-x="612" 
d="M192 426v-426h-120v508h468v-508h-120v426h-228z" />
    <glyph glyph-name="afii10082" unicode="&#x440;" horiz-adv-x="636" 
d="M72 508h110v-50h2c45 55 112 70 164 70c117 0 245 -74 245 -271c0 -107 -42 -277 -241 -277c-14 0 -120 0 -160 72v-237h-120v693zM183 253c0 -114 48 -191 135 -191c54 0 147 26 147 188c0 144 -69 196 -142 196c-53 0 -140 -28 -140 -193z" />
    <glyph glyph-name="afii10083" unicode="&#x441;" horiz-adv-x="574" 
d="M424 186h114c-8 -74 -54 -206 -240 -206c-173 0 -255 112 -255 273c0 260 185 275 251 275c156 0 231 -91 242 -189h-114c-6 53 -42 107 -121 107c-99 0 -130 -89 -130 -193c0 -159 80 -191 137 -191c89 0 114 77 116 124z" />
    <glyph glyph-name="afii10084" unicode="&#x442;" horiz-adv-x="494" 
d="M187 426h-174v82h468v-82h-174v-426h-120v426z" />
    <glyph glyph-name="afii10085" unicode="&#x443;" horiz-adv-x="541" 
d="M105 -183v82c12 -3 28 -6 46 -6c46 0 63 25 80 84l7 24l-231 507h144l153 -378l117 378h120l-194 -552c-16 -46 -42 -145 -167 -145c-22 0 -51 2 -75 6z" />
    <glyph glyph-name="afii10086" unicode="&#x444;" horiz-adv-x="846" 
d="M363 -185v173c-144 2 -320 41 -320 266c0 231 199 269 320 266v180h120v-180c121 3 320 -35 320 -266c0 -225 -176 -264 -320 -266v-173h-120zM363 69v369c-131 0 -192 -65 -192 -184c0 -145 93 -185 192 -185zM483 438v-369c99 0 192 40 192 185c0 119 -61 184 -192 184
z" />
    <glyph glyph-name="afii10087" unicode="&#x445;" horiz-adv-x="521" 
d="M261 337l118 171h131l-183 -243l194 -265h-128l-132 189l-132 -189h-129l194 265l-182 243h131z" />
    <glyph glyph-name="afii10088" unicode="&#x446;" horiz-adv-x="632" 
d="M192 82h228v426h120v-426h88l-10 -214h-100v132h-446v508h120v-426z" />
    <glyph glyph-name="afii10089" unicode="&#x447;" horiz-adv-x="542" 
d="M44 508h120v-140c0 -49 0 -86 106 -86c15 0 28 1 80 2v224h120v-508h-120v202c-18 0 -77 -2 -114 -2c-178 0 -192 64 -192 145v163z" />
    <glyph glyph-name="afii10090" unicode="&#x448;" horiz-adv-x="884" 
d="M192 82h190v426h120v-426h190v426h120v-508h-740v508h120v-426z" />
    <glyph glyph-name="afii10091" unicode="&#x449;" horiz-adv-x="904" 
d="M192 82h190v426h120v-426h190v426h120v-426h88l-10 -214h-100v132h-718v508h120v-426z" />
    <glyph glyph-name="afii10092" unicode="&#x44a;" horiz-adv-x="625" 
d="M14 426v82h257v-196h117c81 0 211 -5 211 -157c0 -139 -114 -155 -183 -155h-265v426h-137zM271 230v-148h116c46 0 88 20 88 76c0 73 -70 72 -88 72h-116z" />
    <glyph glyph-name="afii10093" unicode="&#x44b;" horiz-adv-x="772" 
d="M72 508h120v-196h117c81 0 211 -5 211 -157c0 -139 -114 -155 -183 -155h-265v508zM192 230v-148h116c46 0 88 20 88 76c0 73 -70 72 -88 72h-116zM580 508h120v-508h-120v508z" />
    <glyph glyph-name="afii10094" unicode="&#x44c;" horiz-adv-x="543" 
d="M72 508h120v-196h117c81 0 211 -5 211 -157c0 -139 -114 -155 -183 -155h-265v508zM192 230v-148h116c46 0 88 20 88 76c0 73 -70 72 -88 72h-116z" />
    <glyph glyph-name="afii10095" unicode="&#x44d;" horiz-adv-x="588" 
d="M220 220v82h197c-2 68 -44 144 -134 144c-69 0 -123 -35 -130 -97h-114c14 115 115 179 249 179c65 0 257 -15 257 -275c0 -43 -4 -273 -268 -273c-171 0 -232 104 -240 192h114c2 -57 46 -110 124 -110c105 0 140 97 142 158h-197z" />
    <glyph glyph-name="afii10096" unicode="&#x44e;" horiz-adv-x="828" 
d="M192 309h75c9 117 100 219 256 219c216 0 262 -176 262 -274s-46 -274 -262 -274c-179 0 -256 128 -259 247h-72v-227h-120v508h120v-199zM389 254c0 -174 91 -192 134 -192s134 18 134 192s-91 192 -134 192s-134 -18 -134 -192z" />
    <glyph glyph-name="afii10097" unicode="&#x44f;" horiz-adv-x="577" 
d="M307 189l-138 -189h-132l150 190c-51 5 -139 34 -139 151c0 165 149 167 182 167h275v-508h-120v189h-78zM385 426h-106c-72 0 -107 -20 -107 -80c0 -52 31 -75 107 -75h106v155z" />
    <glyph glyph-name="afii10071" unicode="&#x451;" horiz-adv-x="594" 
d="M429 147h114c-12 -66 -61 -167 -242 -167c-51 0 -258 9 -258 265c0 171 84 283 259 283c159 0 246 -84 249 -305h-380c-1 -65 34 -161 140 -161c54 0 110 29 118 85zM171 305h253c-1 46 -16 141 -121 141c-94 0 -134 -75 -132 -141zM158 594v106h116v-106h-116zM348 594
v106h116v-106h-116z" />
    <glyph glyph-name="afii10099" unicode="&#x452;" horiz-adv-x="622" 
d="M80 700h120v-61h205v-68h-205v-130c35 60 108 87 167 87c161 0 193 -133 193 -319c0 -255 -42 -394 -248 -394v87h14c116 0 106 172 106 305c0 126 7 239 -105 239c-33 0 -127 -13 -127 -162v-284h-120v571h-80v68h80v61z" />
    <glyph glyph-name="afii10100" unicode="&#x453;" horiz-adv-x="454" 
d="M192 426v-426h-120v508h370v-82h-250zM223 700h130l-110 -132h-90z" />
    <glyph glyph-name="afii10101" unicode="&#x454;" horiz-adv-x="588" 
d="M368 302v-82h-197c2 -62 34 -158 140 -158c82 0 121 54 126 110h114c-8 -94 -79 -192 -246 -192c-155 0 -262 88 -262 273c0 260 200 275 267 275c128 0 227 -64 239 -179h-114c-7 62 -61 97 -130 97c-90 0 -132 -76 -134 -144h197z" />
    <glyph glyph-name="afii10102" unicode="&#x455;" horiz-adv-x="540" 
d="M36 155h120c-1 -69 65 -93 119 -93c45 0 103 13 103 82c0 44 -27 60 -94 72c-18 3 -37 6 -55 9c-111 20 -166 55 -166 150c0 134 140 153 212 153c164 0 214 -71 216 -155h-113c-4 45 -41 73 -99 73c-49 0 -92 -13 -92 -63c0 -63 65 -70 131 -81c75 -12 186 -25 186 -151
c0 -124 -110 -171 -225 -171c-190 0 -238 99 -243 175z" />
    <glyph glyph-name="afii10103" unicode="&#x456;" horiz-adv-x="264" 
d="M72 508h120v-508h-120v508zM72 594v106h120v-106h-120z" />
    <glyph glyph-name="afii10104" unicode="&#x457;" horiz-adv-x="310" 
d="M95 508h120v-508h-120v508zM20 594v106h110v-106h-110zM180 594v106h110v-106h-110z" />
    <glyph glyph-name="afii10105" unicode="&#x458;" horiz-adv-x="264" 
d="M72 508h120v-535c0 -88 -15 -162 -143 -162c-17 0 -48 2 -68 4v82c66 2 91 19 91 83v528zM72 594v106h120v-106h-120z" />
    <glyph glyph-name="afii10106" unicode="&#x459;" horiz-adv-x="870" 
d="M13 0v82c7 -1 13 -2 20 -2c97 0 97 91 97 262v166h389v-196h125c71 0 203 -5 203 -157c0 -139 -114 -155 -183 -155h-265v426h-157v-95c0 -181 -3 -335 -192 -335c-12 0 -25 2 -37 4zM519 230v-148h116c46 0 88 20 88 76c0 73 -70 72 -88 72h-116z" />
    <glyph glyph-name="afii10107" unicode="&#x45a;" horiz-adv-x="883" 
d="M192 226v-226h-120v508h120v-200h220v200h120v-196h125c71 0 203 -5 203 -157c0 -139 -114 -155 -183 -155h-265v226h-220zM532 230v-148h116c45 0 88 20 88 76c0 73 -68 72 -88 72h-116z" />
    <glyph glyph-name="afii10108" unicode="&#x45b;" horiz-adv-x="614" 
d="M80 700h120v-61h205v-68h-205v-130c35 59 108 87 167 87c174 0 175 -151 175 -188v-340h-120v302c0 61 -1 144 -95 144c-33 0 -127 -13 -127 -162v-284h-120v571h-80v68h80v61z" />
    <glyph glyph-name="afii10109" unicode="&#x45c;" horiz-adv-x="530" 
d="M192 296l193 212h138l-226 -237l237 -271h-138l-204 246v-246h-120v508h120v-212zM261 700h130l-110 -132h-90z" />
    <glyph glyph-name="afii10110" unicode="&#x45e;" horiz-adv-x="541" 
d="M105 -183v82c12 -3 28 -6 46 -6c46 0 63 25 80 84l7 24l-231 507h144l153 -378l117 378h120l-194 -552c-16 -46 -42 -145 -167 -145c-22 0 -51 2 -75 6zM73 700h102c2 -47 45 -73 95 -73s93 26 95 73h102c-12 -56 -52 -143 -197 -143s-185 87 -197 143z" />
    <glyph glyph-name="afii10193" unicode="&#x45f;" horiz-adv-x="614" 
d="M422 82v426h120v-508h-182v-185h-106v185h-182v508h120v-426h230z" />
    <glyph glyph-name="afii10146" unicode="&#x462;" horiz-adv-x="744" 
d="M287 700v-66h220v-106h-220v-98h182c76 0 243 -15 243 -219c0 -87 -44 -211 -244 -211h-309v528h-147v106h147v66h128zM287 324v-218h156c67 0 137 15 137 111c0 100 -78 107 -134 107h-159z" />
    <glyph glyph-name="afii10194" unicode="&#x463;" horiz-adv-x="620" 
d="M13 426v82h136v192h120v-192h197v-82h-197v-114h117c81 0 211 -5 211 -157c0 -139 -114 -155 -183 -155h-265v426h-136zM269 230v-148h116c46 0 88 20 88 76c0 73 -70 72 -88 72h-116z" />
    <glyph glyph-name="afii10147" unicode="&#x472;" horiz-adv-x="776" 
d="M45 350c0 363 282 371 343 371s343 -8 343 -371s-282 -371 -343 -371s-343 8 -343 371zM185 400h406c-8 88 -48 215 -203 215s-195 -127 -203 -215zM590 294h-404c6 -81 48 -209 202 -209s196 128 202 209z" />
    <glyph glyph-name="afii10195" unicode="&#x473;" horiz-adv-x="610" 
d="M43 254c0 98 46 274 262 274s262 -176 262 -274s-46 -274 -262 -274s-262 176 -262 274zM172 298h266c-16 124 -84 148 -133 148s-117 -24 -133 -148zM438 216h-266c3 -44 25 -154 133 -154s130 110 133 154z" />
    <glyph glyph-name="afii10148" unicode="&#x474;" horiz-adv-x="720" 
d="M311 133l102 378c27 100 52 201 203 201c35 0 65 -5 91 -12v-106c-21 8 -42 12 -68 12c-63 0 -85 -26 -109 -107l-146 -499h-147l-241 700h139z" />
    <glyph glyph-name="afii10196" unicode="&#x475;" horiz-adv-x="566" 
d="M252 118l60 230c21 80 40 164 179 164c23 0 42 -1 63 -4v-82c-16 3 -30 4 -43 4c-37 0 -70 -6 -95 -94l-95 -336h-139l-186 508h128z" />
    <glyph glyph-name="afii10050" unicode="&#x490;" horiz-adv-x="556" 
d="M213 594v-594h-128v700h340v158h112l6 -264h-330z" />
    <glyph glyph-name="afii10098" unicode="&#x491;" horiz-adv-x="454" 
d="M192 426v-426h-120v508h260v132h100l10 -214h-250z" />
    <glyph glyph-name="cyrGebar" unicode="&#x492;" horiz-adv-x="560" 
d="M217 402h205v-90h-205v-312h-128v312h-89v90h89v298h458v-106h-330v-192z" />
    <glyph glyph-name="cyrgebar" unicode="&#x493;" horiz-adv-x="454" 
d="M192 426v-117h120v-68h-120v-241h-120v241h-82v68h82v199h370v-82h-250z" />
    <glyph glyph-name="cyrGehook" unicode="&#x494;" horiz-adv-x="620" 
d="M213 594v-196c30 3 88 7 118 7c66 0 244 -12 244 -297c0 -263 -155 -306 -257 -306c-39 0 -81 7 -107 13v106c30 -10 62 -13 96 -13c59 0 131 25 131 195c0 185 -69 196 -133 196c-33 0 -62 -3 -92 -7v-292h-128v700h458v-106h-330z" />
    <glyph glyph-name="cyrgehook" unicode="&#x495;" horiz-adv-x="480" 
d="M192 426v-116h32c207 0 223 -141 223 -235c0 -116 -24 -264 -250 -260v87h19c56 0 103 27 103 167c0 83 -6 159 -95 159h-32v-228h-120v508h369v-82h-249z" />
    <glyph glyph-name="cyrZhedesc" unicode="&#x496;" horiz-adv-x="996" 
d="M419 0v335l-269 -335h-154l309 376l-290 324h154l250 -296v296h128v-296l250 296h154l-290 -324l222 -270h100l-6 -264h-112v158h-50l-268 335v-335h-128z" />
    <glyph glyph-name="cyrzhedesc" unicode="&#x497;" horiz-adv-x="779" 
d="M318 0v242l-174 -242h-148l222 268l-211 240h141l170 -223v223h120v-223l170 223h141l-211 -240l154 -186h83l-10 -214h-100v132h-53l-174 242v-242h-120z" />
    <glyph glyph-name="cyrZetail" unicode="&#x498;" horiz-adv-x="697" 
d="M45 239h127c1 -57 26 -153 179 -153c76 0 156 29 156 116s-60 110 -138 110h-96v106h83c30 0 123 2 123 92c0 62 -40 105 -142 105c-121 0 -155 -60 -157 -121h-127c3 183 142 227 295 227c96 0 263 -24 263 -198c0 -90 -55 -145 -117 -154v-2c75 -11 145 -68 145 -178
c0 -64 -29 -192 -233 -209v-166h-120v166c-181 6 -237 151 -241 259z" />
    <glyph glyph-name="cyrzetail" unicode="&#x499;" horiz-adv-x="550" 
d="M32 159h114c0 -36 19 -97 120 -97c100 0 117 50 117 83c0 72 -78 71 -101 71h-68v82h55c73 0 90 39 90 72c0 38 -26 76 -98 76c-33 0 -96 -8 -100 -91h-114c3 72 37 173 221 173c159 0 217 -76 217 -155c0 -67 -44 -101 -86 -108v-2c82 -16 108 -63 108 -114
c0 -67 -41 -156 -180 -169v-165h-106v165c-116 7 -185 84 -189 179z" />
    <glyph glyph-name="cyrKadesc" unicode="&#x49a;" horiz-adv-x="690" 
d="M213 385l281 315h152l-310 -323l241 -271h100l-6 -264h-112v158h-50l-296 363v-363h-128v700h128v-315z" />
    <glyph glyph-name="cyrkadesc" unicode="&#x49b;" horiz-adv-x="568" 
d="M192 296l193 212h138l-226 -237l145 -165h122l-8 -264h-110v158h-50l-204 246v-246h-120v508h120v-212z" />
    <glyph glyph-name="cyrKavertbar" unicode="&#x49c;" horiz-adv-x="660" 
d="M85 700h128v-274h50v140h90v-140l154 274h128l-192 -323l220 -377h-142l-168 320v-160h-90v160h-50v-320h-128v700z" />
    <glyph glyph-name="cyrkavertbar" unicode="&#x49d;" horiz-adv-x="582" 
d="M72 508h120v-196h50v120h68v-120l140 196h125l-186 -237l197 -271h-126l-150 230v-140h-68v140h-50v-230h-120v508z" />
    <glyph glyph-name="cyrKaback" unicode="&#x4a0;" horiz-adv-x="822" 
d="M367 385l281 315h152l-310 -323l336 -377h-162l-297 363v-363h-128v594h-226v106h354v-315z" />
    <glyph glyph-name="cyrkaback" unicode="&#x4a1;" horiz-adv-x="608" 
d="M270 296l193 212h138l-226 -237l237 -271h-138l-204 246v-246h-120v426h-138v82h258v-212z" />
    <glyph glyph-name="cyrEndesc" unicode="&#x4a2;" horiz-adv-x="762" 
d="M213 314v-314h-128v700h128v-280h312v280h128v-594h96l-6 -264h-112v158h-106v314h-312z" />
    <glyph glyph-name="cyrendesc" unicode="&#x4a3;" horiz-adv-x="624" 
d="M192 226v-226h-120v508h120v-200h220v200h120v-426h88l-10 -214h-100v132h-98v226h-220z" />
    <glyph glyph-name="cyrEnGe" unicode="&#x4a4;" horiz-adv-x="996" 
d="M213 314v-314h-128v700h128v-280h312v280h458v-106h-330v-594h-128v314h-312z" />
    <glyph glyph-name="cyrenge" unicode="&#x4a5;" horiz-adv-x="794" 
d="M192 226v-226h-120v508h120v-200h220v200h370v-82h-250v-426h-120v226h-220z" />
    <glyph glyph-name="cyrEstail" unicode="&#x4aa;" horiz-adv-x="733" 
d="M568 239h127c-18 -204 -166 -250 -245 -259v-165h-120v165c-102 13 -285 80 -285 358c0 288 166 383 340 383c240 0 294 -147 300 -247h-127c-8 58 -42 141 -173 141c-156 0 -203 -127 -203 -272c0 -163 90 -257 216 -257c116 0 166 80 170 153z" />
    <glyph glyph-name="cyrestail" unicode="&#x4ab;" horiz-adv-x="574" 
d="M424 186h114c-18 -151 -118 -197 -187 -206v-165h-106v165c-99 11 -202 86 -202 273c0 260 186 275 251 275c156 0 231 -91 242 -189h-114c-6 53 -42 107 -121 107c-99 0 -130 -89 -130 -193c0 -159 80 -191 137 -191c89 0 114 77 116 124z" />
    <glyph glyph-name="cyrstraightU" unicode="&#x4ae;" horiz-adv-x="634" 
d="M317 393l170 307h151l-257 -421v-279h-128v279l-257 421h151z" />
    <glyph glyph-name="cyrstraightu" unicode="&#x4af;" horiz-adv-x="520" 
d="M200 -185v185l-193 508h128l125 -378l125 378h128l-193 -508v-185h-120z" />
    <glyph glyph-name="cyrstraightUbar" unicode="&#x4b0;" horiz-adv-x="634" 
d="M253 0v140h-150v90h150v49l-257 421h151l170 -307l170 307h151l-257 -421v-49h150v-90h-150v-140h-128z" />
    <glyph glyph-name="cyrstraightubar" unicode="&#x4b1;" horiz-adv-x="520" 
d="M200 -185v87h-120v68h120v30l-193 508h128l125 -378l125 378h128l-193 -508v-30h120v-68h-120v-87h-120z" />
    <glyph glyph-name="cyrHadesc" unicode="&#x4b2;" horiz-adv-x="692" 
d="M333 447l155 253h160l-235 -342l178 -252h88l-6 -264h-112v158h-60l-168 270l-168 -270h-165l253 358l-235 342h160z" />
    <glyph glyph-name="cyrhadesc" unicode="&#x4b3;" horiz-adv-x="564" 
d="M261 337l118 171h131l-183 -243l117 -159h116l-8 -264h-110v158h-50l-131 189l-132 -189h-129l194 265l-182 243h131z" />
    <glyph glyph-name="cyrChedesc" unicode="&#x4b6;" horiz-adv-x="697" 
d="M58 700h128v-189c0 -67 4 -117 147 -117c56 0 117 6 127 7v299h128v-594h96l-6 -264h-112v158h-106v295c-39 -3 -98 -7 -143 -7c-150 0 -259 37 -259 194v218z" />
    <glyph glyph-name="cyrchedesc" unicode="&#x4b7;" horiz-adv-x="562" 
d="M44 508h120v-140c0 -49 0 -86 106 -86c15 0 28 1 80 2v224h120v-426h88l-10 -214h-100v132h-98v202c-18 0 -77 -2 -114 -2c-178 0 -192 64 -192 145v163z" />
    <glyph glyph-name="cyrChevertbar" unicode="&#x4b8;" horiz-adv-x="690" 
d="M58 700h128v-189c0 -41 1 -115 104 -116v139h90v-139c30 1 63 3 97 6v299h128v-700h-128v295c-32 -3 -65 -5 -97 -6v-161h-90v161c-185 -2 -232 93 -232 193v218z" />
    <glyph glyph-name="cyrchevertbar" unicode="&#x4b9;" horiz-adv-x="542" 
d="M44 508h120v-140c0 -29 -1 -81 72 -86v100h68v-100c17 1 32 1 46 2v224h120v-508h-120v202c-17 -1 -32 -1 -46 -2v-120h-68v120h-15c-168 0 -177 79 -177 145v163z" />
    <glyph glyph-name="cyrH" unicode="&#x4ba;" horiz-adv-x="674" 
d="M602 0h-128v232c0 68 0 117 -155 117c-37 0 -69 0 -119 -7v-342h-128v700h128v-252c39 3 98 7 143 7c234 0 259 -104 259 -194v-261z" />
    <glyph glyph-name="cyrh" unicode="&#x4bb;" horiz-adv-x="606" 
d="M72 700h120v-259c35 59 108 87 167 87c174 0 175 -151 175 -188v-340h-120v302c0 61 -1 144 -95 144c-33 0 -127 -13 -127 -162v-284h-120v700z" />
    <glyph glyph-name="cyrI" unicode="&#x4c0;" horiz-adv-x="264" 
d="M72 700h120v-700h-120v700z" />
    <glyph glyph-name="cyrZhecyrbreve" unicode="&#x4c1;" horiz-adv-x="966" 
d="M419 0v335l-269 -335h-154l309 376l-290 324h154l250 -296v296h128v-296l250 296h154l-290 -324l309 -376h-154l-269 335v-335h-128zM273 883h103c5 -53 52 -81 107 -81s102 28 107 81h103c-15 -86 -86 -153 -210 -153s-195 67 -210 153z" />
    <glyph glyph-name="cyrzhecyrbreve" unicode="&#x4c2;" horiz-adv-x="756" 
d="M318 0v242l-174 -242h-148l222 268l-211 240h141l170 -223v223h120v-223l170 223h141l-211 -240l222 -268h-148l-174 242v-242h-120zM181 700h102c2 -47 45 -73 95 -73s93 26 95 73h102c-12 -56 -52 -143 -197 -143s-185 87 -197 143z" />
    <glyph glyph-name="cyrKahook" unicode="&#x4c3;" horiz-adv-x="708" 
d="M213 385l281 315h152l-310 -323l263 -295c50 -1 149 -22 149 -141c0 -170 -160 -172 -194 -171v82c33 1 88 12 88 79c0 65 -49 69 -73 69h-60l-296 363v-363h-128v700h128v-315z" />
    <glyph glyph-name="cyrkahook" unicode="&#x4c4;" horiz-adv-x="562" 
d="M192 296l193 212h138l-226 -237l165 -189c52 -2 130 -32 130 -142c0 -140 -114 -170 -178 -170v82c32 0 88 16 88 79c0 39 -25 69 -66 69h-40l-204 246v-246h-120v508h120v-212z" />
    <glyph glyph-name="cyrEnhook" unicode="&#x4c7;" horiz-adv-x="762" 
d="M213 314v-314h-128v700h128v-280h312v280h128v-618c50 -1 149 -22 149 -141c0 -170 -160 -172 -194 -171v82c33 1 88 12 88 79c0 65 -49 69 -73 69h-98v314h-312z" />
    <glyph glyph-name="cyrenhook" unicode="&#x4c8;" horiz-adv-x="632" 
d="M192 226v-226h-120v508h120v-200h220v200h120v-426c52 -2 130 -32 130 -142c0 -140 -114 -170 -178 -170v82c32 0 88 16 88 79c0 39 -25 69 -66 69h-94v226h-220z" />
    <glyph glyph-name="cyrAcyrbreve" unicode="&#x4d0;" horiz-adv-x="648" 
d="M184 147l-51 -147h-137l264 700h128l264 -700h-137l-51 147h-280zM218 253h212l-106 311zM114 883h103c5 -53 52 -81 107 -81s102 28 107 81h103c-15 -86 -86 -153 -210 -153s-195 67 -210 153z" />
    <glyph glyph-name="cyracyrbreve" unicode="&#x4d1;" horiz-adv-x="577" 
d="M164 351h-114c-2 93 65 177 232 177c205 0 219 -120 219 -180v-203c0 -48 2 -65 44 -62v-83c-30 -2 -43 -3 -53 -3c-31 0 -88 4 -99 66c-44 -56 -101 -75 -169 -75c-176 0 -187 105 -187 147c0 106 94 136 117 142c39 11 76 13 118 19c16 2 33 5 49 7c42 6 60 5 60 55
c0 80 -60 88 -99 88c-87 0 -121 -48 -118 -95zM381 226v18c-13 -9 -29 -14 -86 -21c-82 -11 -134 -18 -134 -84c0 -39 23 -69 79 -69c59 0 141 24 141 156zM91 700h102c2 -47 45 -73 95 -73s93 26 95 73h102c-12 -56 -52 -143 -197 -143s-185 87 -197 143z" />
    <glyph glyph-name="cyrAdieresis" unicode="&#x4d2;" horiz-adv-x="648" 
d="M184 147l-51 -147h-137l264 700h128l264 -700h-137l-51 147h-280zM218 253h212l-106 311zM141 772v88h128v-88h-128zM379 772v88h128v-88h-128z" />
    <glyph glyph-name="cyradieresis" unicode="&#x4d3;" horiz-adv-x="577" 
d="M164 351h-114c-2 93 65 177 232 177c205 0 219 -120 219 -180v-203c0 -48 2 -65 44 -62v-83c-30 -2 -43 -3 -53 -3c-31 0 -88 4 -99 66c-44 -56 -101 -75 -169 -75c-176 0 -187 105 -187 147c0 106 94 136 117 142c39 11 76 13 118 19c16 2 33 5 49 7c42 6 60 5 60 55
c0 80 -60 88 -99 88c-87 0 -121 -48 -118 -95zM381 226v18c-13 -9 -29 -14 -86 -21c-82 -11 -134 -18 -134 -84c0 -39 23 -69 79 -69c59 0 141 24 141 156zM135 594v106h116v-106h-116zM325 594v106h116v-106h-116z" />
    <glyph glyph-name="cyrAE" unicode="&#x4d4;" horiz-adv-x="1062" 
d="M509 0v154h-278l-84 -154h-152l397 700h642v-106h-397v-182h356v-106h-356v-200h408v-106h-536zM509 260v334h-42l-180 -334h222z" />
    <glyph glyph-name="cyrae" unicode="&#x4d5;" horiz-adv-x="930" 
d="M164 351h-114c-2 92 65 177 232 177c77 0 144 -15 173 -79c53 74 144 79 183 79c58 0 249 -13 249 -276v-29h-380c-1 -65 34 -161 140 -161c54 0 110 29 118 85h114c-12 -66 -61 -167 -242 -167c-71 0 -150 15 -198 92c-43 -76 -143 -92 -215 -92c-65 0 -187 13 -187 155
c0 106 94 136 117 142c41 11 86 15 167 26c42 6 60 5 60 55c0 80 -60 88 -99 88c-87 0 -121 -48 -118 -95zM381 218v26c-13 -9 -29 -14 -86 -21c-83 -11 -134 -18 -134 -84c0 -42 23 -77 79 -77c59 0 141 24 141 156zM507 305h253c-1 46 -16 141 -121 141
c-94 0 -134 -75 -132 -141z" />
    <glyph glyph-name="cyrIecyrbreve" unicode="&#x4d6;" horiz-adv-x="638" 
d="M213 412h356v-106h-356v-200h408v-106h-536v700h525v-106h-397v-182zM109 883h103c5 -53 52 -81 107 -81s102 28 107 81h103c-15 -86 -86 -153 -210 -153s-195 67 -210 153z" />
    <glyph glyph-name="cyriecyrbreve" unicode="&#x4d7;" horiz-adv-x="594" 
d="M429 147h114c-12 -66 -61 -167 -242 -167c-51 0 -258 9 -258 265c0 171 84 283 259 283c220 0 243 -176 248 -276c0 -10 1 -19 1 -29h-380c-1 -65 34 -161 140 -161c54 0 110 29 118 85zM171 305h253c-1 46 -16 141 -121 141c-94 0 -134 -75 -132 -141zM100 700h102
c2 -47 45 -73 95 -73s93 26 95 73h102c-12 -56 -52 -143 -197 -143s-185 87 -197 143z" />
    <glyph glyph-name="cyrinvE" unicode="&#x4d8;" horiz-adv-x="774" 
d="M45 367h547c3 84 -23 248 -217 248c-94 0 -174 -39 -189 -121h-127c8 45 52 227 312 227c349 0 358 -302 358 -370c0 -368 -296 -372 -342 -372c-254 0 -350 199 -342 388zM589 254h-404c8 -71 54 -169 202 -169c119 0 189 76 202 169z" />
    <glyph glyph-name="cyrinve" unicode="&#x4d9;" horiz-adv-x="594" 
d="M165 361h-114c14 65 62 167 242 167c245 0 258 -205 258 -265c0 -171 -84 -283 -259 -283c-73 0 -257 17 -249 305h380c1 65 -32 161 -136 161c-54 0 -109 -30 -122 -85zM423 203h-253c0 -46 17 -141 121 -141c111 0 131 95 132 141z" />
    <glyph glyph-name="cyrinvEdieresis" unicode="&#x4da;" horiz-adv-x="774" 
d="M45 367h547c3 84 -23 248 -217 248c-94 0 -174 -39 -189 -121h-127c8 45 52 227 312 227c349 0 358 -302 358 -370c0 -368 -296 -372 -342 -372c-254 0 -350 199 -342 388zM589 254h-404c8 -71 54 -169 202 -169c119 0 189 76 202 169zM204 772v88h128v-88h-128zM442 772
v88h128v-88h-128z" />
    <glyph glyph-name="cyrinvedieresis" unicode="&#x4db;" horiz-adv-x="594" 
d="M165 361h-114c14 65 62 167 242 167c245 0 258 -205 258 -265c0 -171 -84 -283 -259 -283c-73 0 -257 17 -249 305h380c1 65 -32 161 -136 161c-54 0 -109 -30 -122 -85zM423 203h-253c0 -46 17 -141 121 -141c111 0 131 95 132 141zM144 594v106h116v-106h-116zM334 594
v106h116v-106h-116z" />
    <glyph glyph-name="cyrZhedieresis" unicode="&#x4dc;" horiz-adv-x="966" 
d="M419 0v335l-269 -335h-154l309 376l-290 324h154l250 -296v296h128v-296l250 296h154l-290 -324l309 -376h-154l-269 335v-335h-128zM300 772v88h128v-88h-128zM538 772v88h128v-88h-128z" />
    <glyph glyph-name="cyrzhedieresis" unicode="&#x4dd;" horiz-adv-x="756" 
d="M318 0v242l-174 -242h-148l222 268l-211 240h141l170 -223v223h120v-223l170 223h141l-211 -240l222 -268h-148l-174 242v-242h-120zM225 594v106h116v-106h-116zM415 594v106h116v-106h-116z" />
    <glyph glyph-name="cyrZedieresis" unicode="&#x4de;" horiz-adv-x="697" 
d="M45 239h127c1 -58 26 -154 179 -154c95 0 156 41 156 117c0 87 -60 110 -138 110h-96v106h83c30 0 123 2 123 92c0 62 -40 105 -142 105c-121 0 -155 -60 -157 -121h-127c3 183 142 227 295 227c96 0 263 -24 263 -198c0 -90 -55 -145 -117 -154v-2
c76 -11 145 -68 145 -178c0 -82 -45 -210 -296 -210c-180 0 -291 77 -298 260zM165 772v88h128v-88h-128zM403 772v88h128v-88h-128z" />
    <glyph glyph-name="cyrzedieresis" unicode="&#x4df;" horiz-adv-x="550" 
d="M32 159h114c0 -36 19 -97 120 -97c100 0 117 50 117 83c0 72 -78 71 -101 71h-68v82h55c73 0 90 39 90 72c0 38 -26 76 -98 76c-33 0 -96 -8 -100 -91h-114c3 72 37 173 221 173c159 0 217 -76 217 -155c0 -67 -44 -101 -86 -108v-2c82 -16 108 -63 108 -114
c0 -76 -42 -169 -242 -169c-199 0 -231 116 -233 179zM122 594v106h116v-106h-116zM312 594v106h116v-106h-116z" />
    <glyph glyph-name="cyrImacron" unicode="&#x4e2;" horiz-adv-x="756" 
d="M213 188l333 512h125v-700h-128v512l-333 -512h-125v700h128v-512zM213 760v80h330v-80h-165h-165z" />
    <glyph glyph-name="cyrimacron" unicode="&#x4e3;" horiz-adv-x="634" 
d="M192 142l238 366h132v-508h-120v366l-238 -366h-132v508h120v-366zM152 602v82h330v-82h-165h-165z" />
    <glyph glyph-name="cyrIdieresis" unicode="&#x4e4;" horiz-adv-x="756" 
d="M213 188l333 512h125v-700h-128v512l-333 -512h-125v700h128v-512zM195 772v88h128v-88h-128zM433 772v88h128v-88h-128z" />
    <glyph glyph-name="cyridieresis" unicode="&#x4e5;" horiz-adv-x="634" 
d="M192 142l238 366h132v-508h-120v366l-238 -366h-132v508h120v-366zM164 594v106h116v-106h-116zM354 594v106h116v-106h-116z" />
    <glyph glyph-name="cyrOdieresis" unicode="&#x4e6;" horiz-adv-x="776" 
d="M45 350c0 363 282 371 343 371s343 -8 343 -371s-282 -371 -343 -371s-343 8 -343 371zM182 350c0 -108 33 -265 206 -265s206 157 206 265s-33 265 -206 265s-206 -157 -206 -265zM205 772v88h128v-88h-128zM443 772v88h128v-88h-128z" />
    <glyph glyph-name="cyrodieresis" unicode="&#x4e7;" horiz-adv-x="610" 
d="M43 254c0 98 46 274 262 274s262 -176 262 -274s-46 -274 -262 -274s-262 176 -262 274zM171 254c0 -174 91 -192 134 -192s134 18 134 192s-91 192 -134 192s-134 -18 -134 -192zM152 594v106h116v-106h-116zM342 594v106h116v-106h-116z" />
    <glyph glyph-name="cyrObar" unicode="&#x4e8;" horiz-adv-x="776" 
d="M45 350c0 363 282 371 343 371s343 -8 343 -371s-282 -371 -343 -371s-343 8 -343 371zM185 400h406c-8 88 -48 215 -203 215s-195 -127 -203 -215zM590 294h-404c6 -81 48 -209 202 -209s196 128 202 209z" />
    <glyph glyph-name="cyrobar" unicode="&#x4e9;" horiz-adv-x="610" 
d="M43 254c0 98 46 274 262 274s262 -176 262 -274s-46 -274 -262 -274s-262 176 -262 274zM173 298h264c-4 53 -33 148 -132 148s-128 -95 -132 -148zM438 216h-266c3 -44 25 -154 133 -154s130 110 133 154z" />
    <glyph glyph-name="cyrObardieresis" unicode="&#x4ea;" horiz-adv-x="776" 
d="M45 350c0 363 282 371 343 371s343 -8 343 -371s-282 -371 -343 -371s-343 8 -343 371zM185 400h406c-8 88 -48 215 -203 215s-195 -127 -203 -215zM590 294h-404c6 -81 48 -209 202 -209s196 128 202 209zM205 772v88h128v-88h-128zM443 772v88h128v-88h-128z" />
    <glyph glyph-name="cyrobardieresis" unicode="&#x4eb;" horiz-adv-x="610" 
d="M43 254c0 98 46 274 262 274s262 -176 262 -274s-46 -274 -262 -274s-262 176 -262 274zM173 298h264c-4 53 -33 148 -132 148s-128 -95 -132 -148zM438 216h-266c3 -44 25 -154 133 -154s130 110 133 154zM152 594v106h116v-106h-116zM342 594v106h116v-106h-116z" />
    <glyph glyph-name="cyrUmacron" unicode="&#x4ee;" horiz-adv-x="623" 
d="M345 322l148 378h134l-235 -564c-59 -143 -137 -146 -198 -146c-33 0 -57 1 -91 11v111c22 -7 47 -12 73 -12c45 0 84 14 100 84l-267 516h157zM146 760v80h330v-80h-165h-165z" />
    <glyph glyph-name="cyrumacron" unicode="&#x4ef;" horiz-adv-x="541" 
d="M105 -183v82c12 -3 28 -6 46 -6c46 0 63 25 80 84l7 24l-231 507h144l153 -378l117 378h120l-194 -552c-16 -46 -42 -145 -167 -145c-22 0 -51 2 -75 6zM105 602v82h330v-82h-165h-165z" />
    <glyph glyph-name="cyrUdieresis" unicode="&#x4f0;" horiz-adv-x="623" 
d="M345 322l148 378h134l-235 -564c-59 -143 -137 -146 -198 -146c-33 0 -57 1 -91 11v111c22 -7 47 -12 73 -12c45 0 84 14 100 84l-267 516h157zM128 772v88h128v-88h-128zM366 772v88h128v-88h-128z" />
    <glyph glyph-name="cyrudieresis" unicode="&#x4f1;" horiz-adv-x="541" 
d="M105 -183v82c12 -3 28 -6 46 -6c46 0 63 25 80 84l7 24l-231 507h144l153 -378l117 378h120l-194 -552c-16 -46 -42 -145 -167 -145c-22 0 -51 2 -75 6zM117 594v106h116v-106h-116zM307 594v106h116v-106h-116z" />
    <glyph glyph-name="cyrUdblacute" unicode="&#x4f2;" horiz-adv-x="623" 
d="M345 322l148 378h134l-235 -564c-59 -143 -137 -146 -198 -146c-33 0 -57 1 -91 11v111c22 -7 47 -12 73 -12c45 0 84 14 100 84l-267 516h157zM254 900h130l-118 -140h-90zM426 900h130l-118 -140h-90z" />
    <glyph glyph-name="cyrudblacute" unicode="&#x4f3;" horiz-adv-x="541" 
d="M105 -183v82c12 -3 28 -6 46 -6c46 0 63 25 80 84l7 24l-231 507h144l153 -378l117 378h120l-194 -552c-16 -46 -42 -145 -167 -145c-22 0 -51 2 -75 6zM205 700h120l-110 -132h-80zM375 700h120l-110 -132h-80z" />
    <glyph glyph-name="cyrChedieresis" unicode="&#x4f4;" horiz-adv-x="673" 
d="M58 700h128v-189c0 -67 4 -117 147 -117c56 0 117 6 127 7v299h128v-700h-128v295c-39 -3 -98 -7 -143 -7c-150 0 -259 37 -259 194v218zM153 772v88h128v-88h-128zM391 772v88h128v-88h-128z" />
    <glyph glyph-name="cyrchedieresis" unicode="&#x4f5;" horiz-adv-x="542" 
d="M44 508h120v-140c0 -49 0 -86 106 -86c15 0 28 1 80 2v224h120v-508h-120v202c-18 0 -77 -2 -114 -2c-178 0 -192 64 -192 145v163zM118 594v106h116v-106h-116zM308 594v106h116v-106h-116z" />
    <glyph glyph-name="cyrYerudieresis" unicode="&#x4f8;" horiz-adv-x="908" 
d="M213 700v-270h182c76 0 243 -15 243 -219c0 -87 -44 -211 -244 -211h-309v700h128zM213 324v-218h156c68 0 137 15 137 111c0 100 -81 107 -134 107h-159zM695 700h128v-700h-128v700zM271 772v88h128v-88h-128zM509 772v88h128v-88h-128z" />
    <glyph glyph-name="cyryerudieresis" unicode="&#x4f9;" horiz-adv-x="772" 
d="M72 508h120v-196h117c81 0 211 -5 211 -157c0 -139 -114 -155 -183 -155h-265v508zM192 230v-148h116c46 0 88 20 88 76c0 73 -70 72 -88 72h-116zM580 508h120v-508h-120v508zM233 594v106h116v-106h-116zM423 594v106h116v-106h-116z" />
    <glyph glyph-name="endash" unicode="&#x2013;" 
d="M50 310h500v-82h-500v82z" />
    <glyph glyph-name="emdash" unicode="&#x2014;" horiz-adv-x="980" 
d="M50 228v82h880v-82h-880z" />
    <glyph glyph-name="quoteleft" unicode="&#x2018;" horiz-adv-x="344" 
d="M238 429h-132v139c0 114 70 148 132 154v-69c-39 -2 -67 -33 -67 -78v-11h67v-135z" />
    <glyph glyph-name="quoteright" unicode="&#x2019;" horiz-adv-x="344" 
d="M106 700h132v-139c0 -114 -70 -148 -132 -154v69c39 2 67 33 67 78v11h-67v135z" />
    <glyph glyph-name="quotesinglbase" unicode="&#x201a;" horiz-adv-x="344" 
d="M106 135h132v-139c0 -114 -70 -148 -132 -154v69c39 2 67 33 67 78v11h-67v135z" />
    <glyph glyph-name="quotedblleft" unicode="&#x201c;" horiz-adv-x="480" 
d="M403 429h-132v139c0 114 70 148 132 154v-69c-39 -2 -67 -33 -67 -78v-11h67v-135zM209 429h-132v139c0 114 70 148 132 154v-69c-39 -2 -67 -33 -67 -78v-11h67v-135z" />
    <glyph glyph-name="quotedblright" unicode="&#x201d;" horiz-adv-x="480" 
d="M77 700h132v-139c0 -114 -70 -148 -132 -154v69c39 2 67 33 67 78v11h-67v135zM271 700h132v-139c0 -114 -70 -148 -132 -154v69c39 2 67 33 67 78v11h-67v135z" />
    <glyph glyph-name="quotedblbase" unicode="&#x201e;" horiz-adv-x="480" 
d="M77 135h132v-139c0 -114 -70 -148 -132 -154v69c39 2 67 33 67 78v11h-67v135zM271 135h132v-139c0 -114 -70 -148 -132 -154v69c39 2 67 33 67 78v11h-67v135z" />
    <glyph glyph-name="dagger" unicode="&#x2020;" horiz-adv-x="526" 
d="M210 700h106v-192h185v-92h-185v-601h-106v601h-185v92h185v192z" />
    <glyph glyph-name="daggerdbl" unicode="&#x2021;" horiz-adv-x="526" 
d="M210 700h106v-192h185v-92h-185v-168h185v-92h-185v-341h-106v341h-185v92h185v168h-185v92h185v192z" />
    <glyph glyph-name="bullet" unicode="&#x2022;" 
d="M185 350c0 65 50 115 115 115s115 -50 115 -115s-50 -115 -115 -115s-115 50 -115 115z" />
    <glyph glyph-name="ellipsis" unicode="&#x2026;" horiz-adv-x="1032" 
d="M106 0v135h132v-135h-132zM450 0v135h132v-135h-132zM794 0v135h132v-135h-132z" />
    <glyph glyph-name="perthousand" unicode="&#x2030;" horiz-adv-x="1350" 
d="M218 0l421 700h93l-421 -700h-93zM54 508c0 115 61 200 170 200s170 -85 170 -200s-61 -200 -170 -200s-170 85 -170 200zM134 508c0 -130 69 -134 90 -134s90 4 90 134s-69 134 -90 134s-90 -4 -90 -134zM556 192c0 115 61 200 170 200s170 -85 170 -200
s-61 -200 -170 -200s-170 85 -170 200zM636 192c0 -130 69 -134 90 -134s90 4 90 134s-69 134 -90 134s-90 -4 -90 -134zM956 192c0 115 61 200 170 200s170 -85 170 -200s-61 -200 -170 -200s-170 85 -170 200zM1036 192c0 -130 69 -134 90 -134s90 4 90 134
s-69 134 -90 134s-90 -4 -90 -134z" />
    <glyph glyph-name="guilsinglleft" unicode="&#x2039;" horiz-adv-x="286" 
d="M116 270l95 -81v-106l-149 132v110l149 132v-106z" />
    <glyph glyph-name="guilsinglright" unicode="&#x203a;" horiz-adv-x="286" 
d="M170 270l-95 81v106l149 -132v-110l-149 -132v106z" />
    <glyph glyph-name="fraction" unicode="&#x2044;" horiz-adv-x="100" 
d="M-200 0l428 700h72l-428 -700h-72z" />
    <glyph glyph-name="zerosuperior" unicode="&#x2070;" horiz-adv-x="372" 
d="M186 267c-60 0 -158 23 -158 223s98 223 158 223s158 -23 158 -223s-98 -223 -158 -223zM186 329c40 0 84 25 84 161s-44 161 -84 161s-84 -25 -84 -161s44 -161 84 -161z" />
    <glyph glyph-name="foursuperior" unicode="&#x2074;" horiz-adv-x="372" 
d="M220 374h-202v62l202 264h74v-264h60v-62h-60v-94h-74v94zM98 436h122v164z" />
    <glyph glyph-name="fivesuperior" unicode="&#x2075;" horiz-adv-x="372" 
d="M29 393h70c3 -34 26 -68 81 -68c14 0 89 0 89 90c0 92 -64 94 -81 94c-21 0 -58 -2 -74 -33h-70l30 224h235v-62h-181l-13 -96c17 21 55 29 82 29c87 0 146 -52 146 -150c0 -95 -55 -154 -164 -154c-120 0 -147 80 -150 126z" />
    <glyph glyph-name="sixsuperior" unicode="&#x2076;" horiz-adv-x="372" 
d="M338 605h-70c-6 29 -33 46 -68 46c-39 0 -89 -18 -93 -121h1c28 32 80 33 90 33c98 0 144 -63 144 -143c0 -73 -43 -153 -154 -153c-145 0 -158 121 -158 209c0 98 14 237 171 237c95 0 127 -61 137 -108zM106 418c0 -87 71 -89 85 -89c67 0 77 60 77 85
c0 41 -22 87 -78 87c-53 0 -84 -35 -84 -83z" />
    <glyph glyph-name="sevensuperior" unicode="&#x2077;" horiz-adv-x="372" 
d="M26 638v62h320v-52c-50 -53 -91 -121 -113 -177c-20 -52 -39 -135 -42 -191h-74c9 88 32 151 43 178c15 38 47 111 112 180h-246z" />
    <glyph glyph-name="eightsuperior" unicode="&#x2078;" horiz-adv-x="372" 
d="M109 505c-38 17 -55 54 -55 93c0 26 8 115 132 115s132 -89 132 -115c0 -39 -17 -76 -55 -93c42 -19 69 -51 69 -104c0 -54 -28 -134 -146 -134s-146 80 -146 134c0 53 27 85 69 104zM186 534c58 0 62 41 62 60c0 57 -51 57 -62 57s-62 0 -62 -57c0 -19 4 -60 62 -60z
M186 329c45 0 72 27 72 73c0 31 -15 70 -72 70s-72 -39 -72 -70c0 -46 27 -73 72 -73z" />
    <glyph glyph-name="ninesuperior" unicode="&#x2079;" horiz-adv-x="372" 
d="M34 375h70c6 -29 33 -46 68 -46c39 0 89 18 93 121h-1c-28 -32 -80 -33 -90 -33c-98 0 -144 63 -144 143c0 73 43 153 154 153c145 0 158 -121 158 -209c0 -98 -14 -237 -171 -237c-95 0 -127 61 -137 108zM266 562c0 37 -14 89 -81 89c-62 0 -81 -47 -81 -85
c0 -52 31 -87 78 -87c53 0 84 35 84 83z" />
    <glyph glyph-name="parenleftsuperior" unicode="&#x207d;" horiz-adv-x="266" 
d="M162 700h62c-61 -88 -100 -164 -100 -265s39 -177 100 -265h-62c-63 81 -112 159 -112 265s49 184 112 265z" />
    <glyph glyph-name="parenrightsuperior" unicode="&#x207e;" horiz-adv-x="266" 
d="M104 170h-62c61 88 100 164 100 265s-39 177 -100 265h62c63 -81 112 -159 112 -265s-49 -184 -112 -265z" />
    <glyph glyph-name="nsuperior" unicode="&#x207f;" horiz-adv-x="360" 
d="M43 586h70v-42c23 38 67 54 103 54c96 0 101 -80 101 -119v-199h-70v182c0 34 -3 80 -54 80c-75 0 -80 -69 -80 -103v-159h-70v306z" />
    <glyph glyph-name="zeroinferior" unicode="&#x2080;" horiz-adv-x="372" 
d="M186 -13c-60 0 -158 23 -158 223s98 223 158 223s158 -23 158 -223s-98 -223 -158 -223zM186 49c40 0 84 25 84 161s-44 161 -84 161s-84 -25 -84 -161s44 -161 84 -161z" />
    <glyph glyph-name="oneinferior" unicode="&#x2081;" horiz-adv-x="372" 
d="M82 309v42h12c63 0 94 33 101 69h57v-420h-74v309h-96z" />
    <glyph glyph-name="twoinferior" unicode="&#x2082;" horiz-adv-x="372" 
d="M335 62v-62h-300c2 109 67 142 145 191c36 23 83 53 83 107c0 26 -13 73 -77 73c-78 0 -81 -61 -81 -80v-12h-70v13c0 62 33 141 152 141c103 0 150 -64 150 -131c0 -88 -65 -120 -133 -162c-37 -23 -68 -40 -86 -78h217z" />
    <glyph glyph-name="threeinferior" unicode="&#x2083;" horiz-adv-x="372" 
d="M34 135h70c1 -28 12 -86 80 -86c58 0 80 34 80 72c0 64 -62 65 -74 65h-31v64h27c53 0 70 31 70 65c0 41 -35 56 -71 56c-40 0 -67 -20 -70 -86h-70c1 71 30 148 142 148c72 0 139 -33 139 -116c0 -59 -40 -83 -72 -93v-4c36 -5 84 -27 84 -103c0 -94 -75 -130 -155 -130
c-119 0 -148 91 -149 148z" />
    <glyph glyph-name="fourinferior" unicode="&#x2084;" horiz-adv-x="372" 
d="M220 94h-202v62l202 264h74v-264h60v-62h-60v-94h-74v94zM98 156h122v164z" />
    <glyph glyph-name="fiveinferior" unicode="&#x2085;" horiz-adv-x="372" 
d="M29 113h70c3 -34 26 -68 81 -68c14 0 89 0 89 90c0 92 -64 94 -81 94c-21 0 -58 -2 -74 -33h-70l30 224h235v-62h-181l-13 -96c17 21 55 29 82 29c87 0 146 -52 146 -150c0 -95 -55 -154 -164 -154c-120 0 -147 80 -150 126z" />
    <glyph glyph-name="sixinferior" unicode="&#x2086;" horiz-adv-x="372" 
d="M338 325h-70c-6 29 -33 46 -68 46c-39 0 -89 -18 -93 -121h1c28 32 80 33 90 33c98 0 144 -63 144 -143c0 -73 -43 -153 -154 -153c-145 0 -158 121 -158 209c0 98 14 237 171 237c95 0 127 -61 137 -108zM106 138c0 -87 71 -89 85 -89c67 0 77 60 77 85
c0 41 -22 87 -78 87c-53 0 -84 -35 -84 -83z" />
    <glyph glyph-name="seveninferior" unicode="&#x2087;" horiz-adv-x="372" 
d="M26 358v62h320v-52c-50 -53 -91 -121 -113 -177c-20 -52 -39 -135 -42 -191h-74c9 88 32 151 43 178c15 38 47 111 112 180h-246z" />
    <glyph glyph-name="eightinferior" unicode="&#x2088;" horiz-adv-x="372" 
d="M109 225c-38 17 -55 54 -55 93c0 26 8 115 132 115s132 -89 132 -115c0 -39 -17 -76 -55 -93c42 -19 69 -51 69 -104c0 -54 -28 -134 -146 -134s-146 80 -146 134c0 53 27 85 69 104zM186 254c58 0 62 41 62 60c0 57 -51 57 -62 57s-62 0 -62 -57c0 -19 4 -60 62 -60z
M186 49c45 0 72 27 72 73c0 31 -15 70 -72 70s-72 -39 -72 -70c0 -46 27 -73 72 -73z" />
    <glyph glyph-name="nineinferior" unicode="&#x2089;" horiz-adv-x="372" 
d="M34 95h70c6 -29 33 -46 68 -46c39 0 89 18 93 121h-1c-28 -32 -80 -33 -90 -33c-98 0 -144 63 -144 143c0 73 43 153 154 153c145 0 158 -121 158 -209c0 -98 -14 -237 -171 -237c-95 0 -127 61 -137 108zM266 282c0 37 -14 89 -81 89c-62 0 -81 -47 -81 -85
c0 -52 31 -87 78 -87c53 0 84 35 84 83z" />
    <glyph glyph-name="parenleftinferior" unicode="&#x208d;" horiz-adv-x="266" 
d="M162 420h62c-61 -88 -100 -164 -100 -265s39 -177 100 -265h-62c-63 81 -112 159 -112 265s49 184 112 265z" />
    <glyph glyph-name="parenrightinferior" unicode="&#x208e;" horiz-adv-x="266" 
d="M104 -110h-62c61 88 100 164 100 265s-39 177 -100 265h62c63 -81 112 -159 112 -265s-49 -184 -112 -265z" />
    <glyph glyph-name="colonmonetary" unicode="&#x20a1;" horiz-adv-x="734" 
d="M282 -100v91c-151 34 -237 173 -237 347c0 161 65 331 237 370v77h66v-68c14 3 28 4 42 4c15 0 30 -1 45 -4v68h66v-79c143 -33 177 -159 185 -232h-120c0 42 -24 100 -65 117v-478c38 19 69 74 75 126h120c-15 -103 -76 -219 -195 -246v-93h-66v82c-14 -2 -29 -3 -43 -3
c-15 0 -29 1 -44 3v-82h-66zM348 611v-519c15 -4 29 -7 44 -7c14 0 29 1 43 5v520c-15 3 -30 5 -45 5c-14 0 -28 -1 -42 -4zM282 118v474c-96 -56 -100 -195 -100 -249c0 -76 28 -176 100 -225z" />
    <glyph glyph-name="Euro" unicode="&#x20ac;" 
d="M560 152v-116c-18 -11 -45 -27 -70 -36c-36 -13 -84 -20 -119 -20c-84 0 -149 27 -198 75c-43 42 -76 106 -83 183h-80l32 74h43c-3 23 -3 48 0 74h-75l32 74h52c4 36 13 69 28 100c16 35 38 67 67 93c65 59 140 67 199 67c21 0 42 -1 62 -5c24 -4 48 -12 69 -24
c15 -9 29 -20 42 -32c7 -7 13 -14 19 -21l-55 -97c-6 9 -12 17 -19 24c-10 11 -22 20 -35 28c-25 15 -51 21 -83 21c-35 0 -72 -7 -106 -40c-29 -29 -47 -73 -52 -114h258l-32 -74h-234c-3 -26 -3 -51 0 -74h207l-32 -74h-169c5 -42 23 -83 52 -111c15 -14 32 -25 51 -32
c20 -7 41 -9 62 -9c31 0 60 6 94 21c15 6 43 20 73 45z" />
    <glyph glyph-name="afii61352" unicode="&#x2116;" horiz-adv-x="1169" 
d="M213 497v-497h-128v700h136l336 -497v497h128v-700h-136zM759 470c0 118 74 191 176 191s176 -73 176 -191s-74 -191 -176 -191s-176 73 -176 191zM859 470c0 -41 11 -110 76 -110s76 69 76 110s-11 110 -76 110s-76 -69 -76 -110zM772 112v106h326v-106h-326z" />
    <glyph glyph-name="trademark" unicode="&#x2122;" horiz-adv-x="973" 
d="M163 630h-113v70h324v-70h-113v-280h-98v280zM652 350l-103 261h-2l2 -45v-216h-98v350h132l93 -231l10 -35h2l10 35l93 231h132v-350h-98v216l2 45h-2l-103 -261h-70z" />
    <glyph glyph-name="onethird" unicode="&#x2153;" horiz-adv-x="844" 
d="M82 589v42h12c63 0 94 33 101 69h57v-420h-74v309h-96zM152 0l428 700h72l-428 -700h-72zM506 135h70c1 -28 12 -86 80 -86c58 0 80 34 80 72c0 64 -62 65 -74 65h-31v64h27c53 0 70 31 70 65c0 41 -35 56 -71 56c-58 0 -67 -47 -69 -72c0 -5 -1 -9 -1 -14h-70
c1 71 30 148 142 148c72 0 139 -33 139 -116c0 -59 -40 -83 -72 -93v-4c36 -5 84 -27 84 -103c0 -94 -75 -130 -155 -130c-119 0 -148 91 -149 148z" />
    <glyph glyph-name="twothirds" unicode="&#x2154;" horiz-adv-x="844" 
d="M335 342v-62h-300c2 109 67 142 145 191c36 23 83 53 83 107c0 26 -13 73 -77 73c-78 0 -81 -61 -81 -80v-12h-70v13c0 62 33 141 152 141c103 0 150 -64 150 -131c0 -88 -65 -120 -133 -162c-37 -23 -68 -40 -86 -78h217zM192 0l428 700h72l-428 -700h-72zM506 135h70
c1 -28 12 -86 80 -86c58 0 80 34 80 72c0 64 -62 65 -74 65h-31v64h27c53 0 70 31 70 65c0 41 -35 56 -71 56c-40 0 -67 -20 -70 -86h-70c1 71 30 148 142 148c72 0 139 -33 139 -116c0 -59 -40 -83 -72 -93v-4c36 -5 84 -27 84 -103c0 -94 -75 -130 -155 -130
c-119 0 -148 91 -149 148z" />
    <glyph glyph-name="oneeighth" unicode="&#x215b;" horiz-adv-x="844" 
d="M82 589v42h12c63 0 94 33 101 69h57v-420h-74v309h-96zM152 0l428 700h72l-428 -700h-72zM581 225c-38 17 -55 54 -55 93c0 26 8 115 132 115s132 -89 132 -115c0 -39 -17 -76 -55 -93c42 -19 69 -51 69 -104c0 -54 -28 -134 -146 -134s-146 80 -146 134
c0 53 27 85 69 104zM658 254c58 0 62 41 62 60c0 57 -51 57 -62 57s-62 0 -62 -57c0 -19 4 -60 62 -60zM658 49c45 0 72 27 72 73c0 31 -15 70 -72 70s-72 -39 -72 -70c0 -46 27 -73 72 -73z" />
    <glyph glyph-name="threeeighths" unicode="&#x215c;" horiz-adv-x="844" 
d="M34 415h70c1 -28 12 -86 80 -86c58 0 80 34 80 72c0 64 -62 65 -74 65h-31v64h27c53 0 70 31 70 65c0 41 -35 56 -71 56c-40 0 -67 -20 -70 -86h-70c1 71 30 148 142 148c72 0 139 -33 139 -116c0 -59 -40 -83 -72 -93v-4c36 -5 84 -27 84 -103c0 -94 -75 -130 -155 -130
c-119 0 -148 91 -149 148zM182 0l428 700h72l-428 -700h-72zM581 225c-38 17 -55 54 -55 93c0 26 8 115 132 115s132 -89 132 -115c0 -39 -17 -76 -55 -93c42 -19 69 -51 69 -104c0 -54 -28 -134 -146 -134s-146 80 -146 134c0 53 27 85 69 104zM658 254c58 0 62 41 62 60
c0 57 -51 57 -62 57s-62 0 -62 -57c0 -19 4 -60 62 -60zM658 49c45 0 72 27 72 73c0 31 -15 70 -72 70s-72 -39 -72 -70c0 -46 27 -73 72 -73z" />
    <glyph glyph-name="fiveeighths" unicode="&#x215d;" horiz-adv-x="844" 
d="M29 393h70c3 -34 26 -68 81 -68c14 0 89 0 89 90c0 92 -64 94 -81 94c-21 0 -58 -2 -74 -33h-70l30 224h235v-62h-181l-13 -96c17 21 55 29 82 29c87 0 146 -52 146 -150c0 -95 -55 -154 -164 -154c-120 0 -147 80 -150 126zM182 0l428 700h72l-428 -700h-72zM581 225
c-38 17 -55 54 -55 93c0 26 8 115 132 115s132 -89 132 -115c0 -39 -17 -76 -55 -93c42 -19 69 -51 69 -104c0 -54 -28 -134 -146 -134s-146 80 -146 134c0 53 27 85 69 104zM658 254c58 0 62 41 62 60c0 57 -51 57 -62 57s-62 0 -62 -57c0 -19 4 -60 62 -60zM658 49
c45 0 72 27 72 73c0 31 -15 70 -72 70s-72 -39 -72 -70c0 -46 27 -73 72 -73z" />
    <glyph glyph-name="seveneighths" unicode="&#x215e;" horiz-adv-x="844" 
d="M26 638v62h320v-52c-50 -53 -91 -121 -113 -177c-20 -52 -39 -135 -42 -191h-74c9 88 32 151 43 178c15 38 47 111 112 180h-246zM142 0l428 700h72l-428 -700h-72zM581 225c-38 17 -55 54 -55 93c0 26 8 115 132 115s132 -89 132 -115c0 -39 -17 -76 -55 -93
c42 -19 69 -51 69 -104c0 -54 -28 -134 -146 -134s-146 80 -146 134c0 53 27 85 69 104zM658 254c58 0 62 41 62 60c0 57 -51 57 -62 57s-62 0 -62 -57c0 -19 4 -60 62 -60zM658 49c45 0 72 27 72 73c0 31 -15 70 -72 70s-72 -39 -72 -70c0 -46 27 -73 72 -73z" />
    <glyph glyph-name="partialdiff" unicode="&#x2202;" 
d="M230 671l23 62c291 -38 333 -166 333 -284c0 -112 -31 -469 -338 -469c-157 0 -214 88 -214 199c0 146 91 329 305 329c57 0 131 -16 149 -80h2c4 155 -91 214 -260 243zM254 62c101 0 178 103 178 243c0 104 -50 121 -90 121c-118 0 -178 -138 -178 -247
c0 -40 8 -117 90 -117z" />
    <glyph glyph-name="product" unicode="&#x220f;" horiz-adv-x="722" 
d="M206 594v-594h-128v594h-33v106h632v-106h-32v-594h-128v594h-311z" />
    <glyph glyph-name="summation" unicode="&#x2211;" horiz-adv-x="586" 
d="M548 700v-106h-330l197 -229l-214 -259h368v-106h-536v89l234 276l-215 243v92h496z" />
    <glyph glyph-name="minus" unicode="&#x2212;" 
d="M50 398h500v-86h-500v86z" />
    <glyph glyph-name="division" unicode="&#x2215;" horiz-adv-x="100" 
d="M-200 0l428 700h72l-428 -700h-72z" />
    <glyph glyph-name="radical" unicode="&#x221a;" horiz-adv-x="680" 
d="M252 500l100 -343l110 672h198v-86h-122l-144 -843h-84l-158 514h-132v86h232z" />
    <glyph glyph-name="infinity" unicode="&#x221e;" horiz-adv-x="960" 
d="M457 287c-55 -66 -139 -115 -227 -115c-123 0 -180 95 -180 178c0 80 57 179 217 179c76 0 151 -19 227 -117c86 113 200 116 232 116c133 0 184 -84 184 -168c0 -101 -70 -188 -207 -188c-96 0 -187 40 -246 115zM426 336c-56 66 -102 131 -183 131
c-64 0 -113 -44 -113 -117c0 -63 44 -111 116 -111c34 0 99 10 180 97zM530 371c48 -68 107 -137 188 -137c63 0 112 49 112 126c0 30 -14 101 -117 101c-67 0 -117 -18 -183 -90z" />
    <glyph glyph-name="integral" unicode="&#x222b;" horiz-adv-x="342" 
d="M154 130l-85 236c-34 94 -35 151 -35 182c0 29 3 173 160 173c81 0 107 -47 107 -77c0 -27 -16 -54 -56 -54c-11 0 -37 2 -47 33c-4 13 -8 32 -33 32c-9 0 -45 -5 -45 -56c0 -40 22 -88 67 -214l85 -236c16 -45 36 -115 36 -182c0 -28 -4 -173 -159 -173
c-82 0 -108 47 -108 77c0 20 10 54 56 54c12 0 38 -2 48 -33c4 -13 7 -32 33 -32c9 0 45 5 45 56c0 46 -30 105 -69 214z" />
    <glyph glyph-name="approxequal" unicode="&#x2248;" horiz-adv-x="614" 
d="M96 383l-46 19c42 125 103 142 140 142c31 0 65 -9 90 -23l103 -55c17 -9 35 -13 50 -13c25 0 60 14 85 84l46 -19c-26 -77 -68 -142 -140 -142c-28 0 -65 9 -90 23l-103 55c-14 8 -34 13 -52 13c-43 0 -69 -41 -83 -84zM96 173l-46 19c42 125 103 142 140 142
c31 0 65 -9 90 -23l103 -55c17 -9 35 -13 50 -13c25 0 60 14 85 84l46 -19c-26 -77 -68 -142 -140 -142c-28 0 -65 9 -90 23l-103 55c-14 8 -34 13 -52 13c-43 0 -69 -41 -83 -84z" />
    <glyph glyph-name="notequal" unicode="&#x2260;" 
d="M50 402v86h284l66 114l70 -42l-42 -72h122v-86h-172l-63 -114h235v-86h-285l-66 -114l-70 42l42 72h-121v86h171l63 114h-234z" />
    <glyph glyph-name="lessequal" unicode="&#x2264;" horiz-adv-x="678" 
d="M161 411l433 -237l-40 -72l-494 278v62l494 278l40 -72zM60 220l40 72l494 -278l-40 -72z" />
    <glyph glyph-name="greaterequal" unicode="&#x2265;" horiz-adv-x="678" 
d="M517 411l-433 237l40 72l494 -278v-62l-494 -278l-40 72zM618 220l-494 -278l-40 72l494 278z" />
    <glyph glyph-name="lozenge" unicode="&#x25ca;" horiz-adv-x="440" 
d="M306 350l-86 189l-86 -189l86 -189zM390 350l-170 -375l-170 375l170 375z" />
    <glyph glyph-name="openbullet" unicode="&#x25e6;" horiz-adv-x="300" 
d="M50 600c0 56 44 100 100 100s100 -44 100 -100s-44 -100 -100 -100s-100 44 -100 100zM104 600c0 -26 20 -46 46 -46s46 20 46 46s-20 46 -46 46s-46 -20 -46 -46z" />
    <glyph glyph-name="Accent" unicode="&#xf401;" horiz-adv-x="2" 
d="M-362 900h136l-118 -140h-96z" />
    <glyph glyph-name="Breve" unicode="&#xf406;" horiz-adv-x="520" 
d="M50 913h103c5 -53 52 -81 107 -81s102 28 107 81h103c-15 -86 -86 -153 -210 -153s-195 67 -210 153z" />
    <glyph glyph-name="Cedilla" unicode="&#xf407;" horiz-adv-x="320" 
d="M50 -232l19 61c25 -8 45 -9 58 -9c48 0 53 23 53 34c0 29 -34 28 -52 28h-43l18 60h46c27 0 121 0 121 -90c0 -69 -63 -92 -141 -92c-19 0 -44 1 -79 8z" />
    <glyph glyph-name="Circumflex" unicode="&#xf408;" horiz-adv-x="540" 
d="M270 854l-100 -94h-120l134 140h172l134 -140h-120z" />
    <glyph glyph-name="Commaaccent" unicode="&#xf409;" horiz-adv-x="232" 
d="M50 -60h132v-99c0 -103 -104 -111 -132 -111v64c33 -1 67 11 67 37v9h-67v100z" />
    <glyph glyph-name="Apostrophe" unicode="&#xf40a;" horiz-adv-x="232" 
d="M50 700h132v-139c0 -114 -70 -148 -132 -154v69c39 2 67 33 67 78v11h-67v135z" />
    <glyph glyph-name="Dotaccent" unicode="&#xf40b;" horiz-adv-x="228" 
d="M50 772v88h128v-88h-128z" />
    <glyph glyph-name="Ring" unicode="&#xf40c;" horiz-adv-x="300" 
d="M50 820c0 56 44 100 100 100s100 -44 100 -100s-44 -100 -100 -100s-100 44 -100 100zM106 820c0 -24 20 -44 44 -44s44 20 44 44s-20 44 -44 44s-44 -20 -44 -44z" />
    <glyph glyph-name="Tilde" unicode="&#xf40d;" horiz-adv-x="522" 
d="M392 880h80c-10 -50 -41 -116 -129 -116c-31 0 -51 8 -85 22c-27 11 -50 22 -77 22s-48 -13 -51 -36h-80c8 56 45 116 129 116c32 0 51 -6 85 -20c34 -13 47 -24 77 -24c32 0 48 17 51 36z" />
    <glyph glyph-name="Ogonek" unicode="&#xf40e;" horiz-adv-x="370" 
d="M123 0h100c-53 -17 -83 -63 -83 -120c0 -35 19 -60 51 -60c35 0 50 29 49 57h80c-3 -28 -22 -117 -143 -117c-93 0 -127 61 -127 116c0 45 21 97 73 124z" />
    <glyph glyph-name="exclamlowercase" unicode="&#xf430;" horiz-adv-x="320" 
d="M100 508h120v-179l-26 -154h-68l-26 154v179zM100 0v120h120v-120h-120z" />
    <glyph glyph-name="questionlowercase" unicode="&#xf431;" horiz-adv-x="500" 
d="M167 0v120h120v-120h-120zM155 367h-110c1 76 41 161 206 161c78 0 204 -22 204 -135c0 -71 -53 -104 -89 -126s-89 -45 -89 -79v-13h-100v15c0 37 5 68 73 110c39 24 85 46 85 88c0 26 -18 58 -86 58c-83 0 -96 -49 -94 -79z" />
    <glyph glyph-name="exclamdownlowercase" unicode="&#xf432;" horiz-adv-x="320" 
d="M220 0h-120v179l26 154h68l26 -154v-179zM220 508v-120h-120v120h120z" />
    <glyph glyph-name="questiondownlowercase" unicode="&#xf433;" horiz-adv-x="500" 
d="M333 508v-120h-120v120h120zM345 141h110c-1 -76 -41 -161 -206 -161c-78 0 -204 22 -204 135c0 71 53 104 89 126s89 45 89 79v13h100v-15c0 -37 -5 -68 -73 -110c-39 -24 -85 -46 -85 -88c0 -26 18 -58 86 -58c83 0 96 49 94 79z" />
    <glyph glyph-name="Udotaccent" unicode="&#xf47e;" horiz-adv-x="722" 
d="M72 700h128v-411c0 -140 41 -204 161 -204s161 64 161 204v411h128v-431c0 -113 -20 -290 -289 -290s-289 177 -289 290v431zM297 772v88h128v-88h-128z" />
    <glyph glyph-name="udotaccent" unicode="&#xf47f;" horiz-adv-x="606" 
d="M534 0h-120v67h-2c-33 -59 -104 -87 -169 -87c-167 0 -171 149 -171 188v340h120v-302c0 -58 2 -144 95 -144c126 0 127 137 127 162v284h120v-508zM243 594v106h120v-106h-120z" />
    <glyph glyph-name="Germandbls" unicode="&#xf485;" horiz-adv-x="1360" 
d="M720 225h127c3 -53 35 -140 182 -140c47 0 148 7 148 105c0 84 -81 99 -126 108c-28 5 -55 11 -82 17c-114 26 -217 60 -217 202c0 198 218 204 275 204c185 0 262 -99 271 -206h-127c-12 98 -110 100 -147 100c-19 0 -135 0 -135 -93c0 -73 79 -85 156 -99
c162 -29 269 -65 269 -220c0 -198 -175 -224 -293 -224c-240 0 -297 135 -301 246zM45 225h127c3 -53 35 -140 182 -140c47 0 148 7 148 105c0 84 -81 99 -126 108c-28 5 -55 11 -82 17c-114 26 -217 60 -217 202c0 198 218 204 275 204c185 0 262 -99 271 -206h-127
c-12 98 -110 100 -147 100c-19 0 -135 0 -135 -93c0 -73 79 -85 156 -99c162 -29 269 -65 269 -220c0 -198 -175 -224 -293 -224c-240 0 -297 135 -301 246z" />
    <glyph glyph-name="cyrTecedilla" unicode="&#xf4c4;" horiz-adv-x="594" 
d="M233 594h-220v106h568v-106h-220v-594h-128v594zM188 -232l19 61c25 -8 45 -9 58 -9c48 0 53 23 53 34c0 29 -34 28 -52 28h-43l18 60h46c27 0 121 0 121 -90c0 -69 -63 -92 -141 -92c-19 0 -44 1 -79 8z" />
    <glyph glyph-name="cyrtecedilla" unicode="&#xf4c5;" horiz-adv-x="494" 
d="M187 426h-174v82h468v-82h-174v-426h-120v426zM134 -232l19 61c25 -8 45 -9 58 -9c48 0 53 23 53 34c0 29 -34 28 -52 28h-43l18 60h46c27 0 121 0 121 -90c0 -69 -63 -92 -141 -92c-19 0 -44 1 -79 8z" />
    <glyph glyph-name="cyrChehook" unicode="&#xf4c6;" horiz-adv-x="698" 
d="M58 700h128v-189c0 -67 4 -117 147 -117c56 0 117 6 127 7v299h128v-618c51 -1 150 -22 150 -141c0 -170 -160 -172 -194 -171v82c33 1 88 12 88 79c0 65 -49 69 -73 69h-99v295c-39 -3 -98 -7 -143 -7c-150 0 -259 37 -259 194v218z" />
    <glyph glyph-name="cyrchehook" unicode="&#xf4c7;" horiz-adv-x="570" 
d="M44 508h120v-140c0 -49 0 -86 106 -86c15 0 28 1 80 2v224h120v-426c52 -2 130 -32 130 -142c0 -140 -114 -170 -178 -170v82c32 0 88 16 88 79c0 39 -25 69 -66 69h-94v202c-18 0 -77 -2 -114 -2c-178 0 -192 64 -192 145v163z" />
    <glyph glyph-name="cyrEscedilla" unicode="&#xf4c8;" horiz-adv-x="733" 
d="M568 239h127c-10 -106 -66 -260 -303 -260c-54 0 -347 5 -347 359c0 288 166 383 340 383c240 0 294 -147 300 -247h-127c-8 58 -42 141 -173 141c-156 0 -203 -127 -203 -272c0 -164 90 -258 216 -258c116 0 166 79 170 154zM257 -232l19 61c25 -8 45 -9 58 -9
c48 0 53 23 53 34c0 29 -34 28 -52 28h-43l18 60h46c27 0 121 0 121 -90c0 -69 -63 -92 -141 -92c-19 0 -44 1 -79 8z" />
    <glyph glyph-name="cyrescedilla" unicode="&#xf4c9;" horiz-adv-x="574" 
d="M424 186h114c-8 -74 -54 -206 -240 -206c-173 0 -255 112 -255 273c0 260 185 275 251 275c156 0 231 -91 242 -189h-114c-6 53 -42 107 -121 107c-99 0 -130 -89 -130 -193c0 -159 80 -191 137 -191c89 0 114 77 116 124zM175 -232l19 61c25 -8 45 -9 58 -9
c48 0 53 23 53 34c0 29 -34 28 -52 28h-43l18 60h46c27 0 121 0 121 -90c0 -69 -63 -92 -141 -92c-19 0 -44 1 -79 8z" />
    <glyph glyph-name="cyrUacute" unicode="&#xf4cc;" horiz-adv-x="623" 
d="M345 322l148 378h134l-235 -564c-59 -143 -137 -146 -198 -146c-33 0 -57 1 -91 11v111c22 -7 47 -12 73 -12c45 0 84 14 100 84l-267 516h157zM308 900h136l-118 -140h-96z" />
    <glyph glyph-name="cyruacute" unicode="&#xf4cd;" horiz-adv-x="541" 
d="M105 -183v82c12 -3 28 -6 46 -6c46 0 63 25 80 84l7 24l-231 507h144l153 -378l117 378h120l-194 -552c-16 -46 -42 -145 -167 -145c-22 0 -51 2 -75 6zM266 700h130l-110 -132h-90z" />
    <glyph glyph-name="uniF639" unicode="&#xf639;" horiz-adv-x="578" 
d="M289 -21c-220 0 -255 226 -255 371s35 371 255 371s255 -226 255 -371s-35 -371 -255 -371zM289 85c40 0 125 13 125 265s-85 265 -125 265s-125 -13 -125 -265s85 -265 125 -265z" />
    <glyph glyph-name="uniF63A" unicode="&#xf63a;" horiz-adv-x="586" 
d="M543 106v-106h-505c-2 187 122 251 235 320c74 45 147 91 147 182c0 30 -9 113 -126 113c-127 0 -133 -94 -133 -131v-17h-123v18c0 233 224 236 259 236c143 0 253 -68 253 -219c0 -153 -105 -206 -212 -271c-112 -68 -138 -88 -154 -125h359z" />
    <glyph glyph-name="uniF63B" unicode="&#xf63b;" horiz-adv-x="578" 
d="M29 226h123c0 -9 0 -17 1 -26c6 -51 32 -122 129 -122c14 0 29 1 43 5c81 21 88 94 88 123c0 100 -80 105 -122 105h-51v106h27c43 0 132 2 132 101c0 40 -16 97 -104 97c-87 0 -119 -49 -120 -136h-123c-2 102 38 242 241 242c174 0 236 -88 236 -195
c0 -76 -47 -137 -120 -152v-2c69 -9 134 -62 134 -177c0 -138 -102 -216 -258 -216c-240 0 -257 175 -256 247z" />
    <glyph glyph-name="uniF63C" unicode="&#xf63c;" horiz-adv-x="588" 
d="M338 153h-329v106l330 441h127v-441h97v-106h-97v-153h-128v153zM138 259h200v278z" />
    <glyph glyph-name="uniF63D" unicode="&#xf63d;" horiz-adv-x="582" 
d="M33 189h123c5 -51 41 -111 127 -111c57 0 136 26 136 156c0 138 -98 144 -131 144c-35 0 -90 -10 -118 -58h-121l48 380h409v-106h-315l-23 -162c12 12 56 52 154 52c134 0 227 -86 227 -249c0 -246 -218 -256 -274 -256c-185 0 -232 121 -242 210z" />
    <glyph glyph-name="uniF63E" unicode="&#xf63e;" horiz-adv-x="587" 
d="M548 541h-123c-17 67 -73 74 -111 74c-51 0 -144 -19 -153 -203h2c21 30 62 63 158 63c142 0 232 -87 232 -242c0 -160 -100 -254 -259 -254c-235 0 -259 201 -259 332c0 360 159 410 279 410c152 0 220 -89 234 -180zM165 227c0 -60 20 -142 129 -142
c92 0 129 64 129 142s-37 142 -129 142c-109 0 -129 -82 -129 -142z" />
    <glyph glyph-name="uniF63F" unicode="&#xf63f;" horiz-adv-x="579" 
d="M24 594v106h540v-88c-94 -96 -147 -184 -196 -299c-47 -109 -63 -186 -74 -313h-134c12 94 43 204 82 295c36 82 94 186 205 299h-423z" />
    <glyph glyph-name="uniF640" unicode="&#xf640;" horiz-adv-x="558" 
d="M148 375c-57 25 -93 79 -93 154c0 85 39 192 224 192s224 -107 224 -192c0 -75 -36 -129 -93 -154c43 -14 114 -57 114 -179c0 -188 -154 -217 -245 -217s-245 29 -245 217c0 122 70 165 114 179zM279 424c83 0 104 56 104 97c0 28 -11 94 -104 94s-104 -66 -104 -94
c0 -41 21 -97 104 -97zM279 85c84 0 115 61 115 117c0 47 -23 116 -115 116s-115 -69 -115 -116c0 -56 31 -117 115 -117z" />
    <glyph glyph-name="uniF641" unicode="&#xf641;" horiz-adv-x="587" 
d="M39 159h123c17 -67 73 -74 111 -74c51 0 144 19 153 203h-2c-21 -30 -62 -63 -158 -63c-142 0 -232 87 -232 242c0 160 100 254 259 254c235 0 259 -201 259 -332c0 -360 -156 -410 -279 -410c-152 0 -220 89 -234 180zM422 473c0 60 -20 142 -129 142
c-92 0 -129 -64 -129 -142s37 -142 129 -142c109 0 129 82 129 142z" />
    <glyph glyph-name="commaaccent" unicode="&#xf6c3;" horiz-adv-x="232" 
d="M50 -60h132v-99c0 -103 -104 -111 -132 -111v64c33 -1 67 11 67 37v9h-67v100z" />
    <glyph glyph-name="Acute" unicode="&#xf6c9;" horiz-adv-x="350" 
d="M172 900h136l-118 -140h-96z" />
    <glyph glyph-name="Caron" unicode="&#xf6ca;" horiz-adv-x="540" 
d="M270 806l100 94h120l-134 -140h-172l-134 140h120z" />
    <glyph glyph-name="Dieresis" unicode="&#xf6cb;" horiz-adv-x="466" 
d="M50 772v88h128v-88h-128zM288 772v88h128v-88h-128z" />
    <glyph glyph-name="Grave" unicode="&#xf6ce;" horiz-adv-x="350" 
d="M178 900l78 -140h-96l-118 140h136z" />
    <glyph glyph-name="Hungarumlaut" unicode="&#xf6cf;" horiz-adv-x="480" 
d="M128 900h130l-118 -140h-90zM300 900h130l-118 -140h-90z" />
    <glyph glyph-name="Macron" unicode="&#xf6d0;" horiz-adv-x="430" 
d="M50 760v80h330v-80h-165h-165z" />
    <glyph glyph-name="cyrBreve" unicode="&#xf6d1;" horiz-adv-x="520" 
d="M50 883h103c5 -53 52 -81 107 -81s102 28 107 81h103c-15 -86 -86 -153 -210 -153s-195 67 -210 153z" />
    <glyph glyph-name="cyrbreve" unicode="&#xf6d4;" horiz-adv-x="494" 
d="M50 700h102c2 -47 45 -73 95 -73s93 26 95 73h102c-12 -56 -52 -143 -197 -143s-185 87 -197 143z" />
    <glyph glyph-name="uniF6DC" unicode="&#xf6dc;" horiz-adv-x="416" 
d="M41 510v65h14c99 0 171 53 182 125h94v-700h-128v510h-162z" />
    <glyph glyph-name="rupiah" unicode="&#xf6dd;" horiz-adv-x="1284" 
d="M85 0v700h313c86 0 253 -12 253 -195c0 -104 -61 -154 -117 -170v-2c100 -32 102 -119 103 -182c1 -94 0 -118 26 -151h-132c-20 32 -22 56 -22 146c0 64 -5 132 -148 132h-148v-278h-128zM213 594v-210h160c65 0 146 10 146 105c0 101 -91 105 -143 105h-163zM720 508
h110v-50h2c45 55 112 70 164 70c117 0 245 -74 245 -271c0 -107 -42 -277 -241 -277c-14 0 -120 0 -160 72v-237h-120v693zM831 253c0 -114 48 -191 135 -191c54 0 147 26 147 188c0 144 -69 196 -142 196c-53 0 -140 -28 -140 -193z" />
    <glyph glyph-name="centinferior" unicode="&#xf6df;" horiz-adv-x="348" 
d="M256 113h70c-2 -60 -43 -119 -123 -120v-43h-40v43c-51 1 -137 26 -137 161c0 116 70 159 137 163v39h40v-39c63 -1 118 -44 121 -115h-70c-2 27 -20 53 -51 53v-200c31 2 51 32 53 58zM163 55v200c-48 -3 -63 -56 -63 -101c0 -54 23 -90 63 -99z" />
    <glyph glyph-name="centsuperior" unicode="&#xf6e0;" horiz-adv-x="348" 
d="M256 393h70c-2 -60 -43 -119 -123 -120v-43h-40v43c-51 1 -137 26 -137 161c0 116 70 159 137 163v39h40v-39c63 -1 118 -44 121 -115h-70c-2 27 -20 53 -51 53v-200c31 2 51 32 53 58zM163 335v200c-48 -3 -63 -56 -63 -101c0 -54 23 -90 63 -99z" />
    <glyph glyph-name="commainferior" unicode="&#xf6e1;" horiz-adv-x="200" 
d="M63 81h74v-91c0 -58 -42 -81 -74 -85v42c15 5 34 17 34 43v10h-34v81z" />
    <glyph glyph-name="commasuperior" unicode="&#xf6e2;" horiz-adv-x="200" 
d="M63 361h74v-91c0 -58 -42 -81 -74 -85v42c15 5 34 17 34 43v10h-34v81z" />
    <glyph glyph-name="dollarinferior" unicode="&#xf6e3;" horiz-adv-x="378" 
d="M32 125h70c4 -37 27 -71 67 -70v127c-115 16 -130 81 -130 128c0 102 88 116 130 117v43h40v-43c106 -4 124 -72 123 -114h-70c0 13 -3 52 -53 52v-116c56 -4 137 -25 137 -127c0 -113 -103 -128 -137 -129v-50h-40v50c-106 1 -135 79 -137 132zM209 176v-121
c31 -1 64 21 64 59c0 48 -41 61 -64 62zM169 256v109c-27 2 -60 -12 -60 -54c0 -35 29 -54 60 -55z" />
    <glyph glyph-name="dollarsuperior" unicode="&#xf6e4;" horiz-adv-x="378" 
d="M32 405h70c4 -37 27 -71 67 -70v127c-115 16 -130 81 -130 128c0 102 88 116 130 117v43h40v-43c106 -4 124 -72 123 -114h-70c0 13 -3 52 -53 52v-116c56 -4 137 -25 137 -127c0 -113 -103 -128 -137 -129v-50h-40v50c-106 1 -135 79 -137 132zM209 456v-121
c31 -1 64 21 64 59c0 48 -41 61 -64 62zM169 536v109c-27 2 -60 -12 -60 -54c0 -35 29 -54 60 -55z" />
    <glyph glyph-name="hypheninferior" unicode="&#xf6e5;" horiz-adv-x="240" 
d="M40 128v62h160v-62h-160z" />
    <glyph glyph-name="hyphensuperior" unicode="&#xf6e6;" horiz-adv-x="254" 
d="M47 408v62h160v-62h-160z" />
    <glyph glyph-name="periodinferior" unicode="&#xf6e7;" horiz-adv-x="200" 
d="M63 0v81h74v-81h-74z" />
    <glyph glyph-name="periodsuperior" unicode="&#xf6e8;" horiz-adv-x="200" 
d="M63 280v81h74v-81h-74z" />
    <glyph glyph-name="asuperior" unicode="&#xf6e9;" horiz-adv-x="340" 
d="M91 489h-64c0 33 14 109 140 109c124 0 126 -82 126 -109v-116c0 -8 0 -39 20 -39c3 0 7 1 9 2v-56c-6 -1 -22 -2 -31 -2c-27 0 -49 5 -57 38c-28 -29 -64 -43 -107 -43c-49 0 -105 22 -105 90c0 70 47 88 139 99c38 5 62 2 62 36c0 29 -16 44 -61 44
c-64 0 -71 -36 -71 -53zM223 409v16c-5 -5 -11 -9 -54 -14c-46 -6 -77 -8 -77 -45c0 -26 16 -37 44 -37c21 0 87 8 87 80z" />
    <glyph glyph-name="bsuperior" unicode="&#xf6ea;" horiz-adv-x="380" 
d="M43 700h70v-141c25 32 68 39 97 39c109 0 144 -92 144 -168c0 -116 -68 -162 -141 -162c-43 0 -84 17 -105 47h-2v-35h-63v420zM108 433c0 -75 41 -109 88 -109s88 34 88 109s-41 109 -88 109s-88 -34 -88 -109z" />
    <glyph glyph-name="dsuperior" unicode="&#xf6eb;" horiz-adv-x="380" 
d="M267 700h70v-420h-63v35h-2c-21 -30 -62 -47 -105 -47c-73 0 -141 46 -141 162c0 76 35 168 144 168c29 0 72 -7 97 -39v141zM96 433c0 -75 41 -109 88 -109s88 34 88 109s-41 109 -88 109s-88 -34 -88 -109z" />
    <glyph glyph-name="esuperior" unicode="&#xf6ec;" horiz-adv-x="360" 
d="M266 368h60c-10 -61 -65 -100 -137 -100c-87 0 -163 47 -163 159c0 29 2 171 157 171c72 0 148 -27 151 -167v-18h-238c1 -34 19 -89 91 -89c46 0 70 20 79 44zM96 465h168c-4 68 -50 77 -81 77c-73 0 -85 -57 -87 -77z" />
    <glyph glyph-name="isuperior" unicode="&#xf6ed;" horiz-adv-x="154" 
d="M42 586h70v-306h-70v306zM42 637v63h70v-63h-70z" />
    <glyph glyph-name="lsuperior" unicode="&#xf6ee;" horiz-adv-x="156" 
d="M43 700h70v-420h-70v420z" />
    <glyph glyph-name="msuperior" unicode="&#xf6ef;" horiz-adv-x="544" 
d="M43 586h70v-40c17 31 53 52 94 52c67 0 87 -47 92 -61c32 56 87 61 106 61c71 0 96 -47 96 -125v-193h-70v187c0 27 1 77 -53 77c-44 0 -71 -37 -71 -88v-176h-70v187c0 58 -22 75 -51 75c-54 0 -73 -53 -73 -83v-179h-70v306z" />
    <glyph glyph-name="osuperior" unicode="&#xf6f0;" horiz-adv-x="360" 
d="M26 433c0 101 61 165 154 165s154 -64 154 -165s-61 -165 -154 -165s-154 64 -154 165zM96 433c0 -38 11 -109 84 -109s84 71 84 109s-11 109 -84 109s-84 -71 -84 -109z" />
    <glyph glyph-name="rsuperior" unicode="&#xf6f1;" horiz-adv-x="238" 
d="M230 592v-56c-69 2 -106 -19 -115 -84c-2 -12 -2 -23 -2 -35v-137h-70v306h70v-53h1c14 29 44 59 101 59h15z" />
    <glyph glyph-name="ssuperior" unicode="&#xf6f2;" horiz-adv-x="319" 
d="M22 374h64c3 -23 20 -50 78 -50c53 0 63 24 63 43c0 24 -17 33 -59 39c-10 2 -21 3 -31 5c-91 18 -99 65 -99 96c0 86 99 90 130 90c98 0 120 -53 121 -93h-64c-5 33 -38 37 -59 37c-22 0 -58 -3 -58 -34c0 -34 40 -37 77 -43c48 -8 112 -20 112 -94
c0 -27 -9 -102 -132 -102c-110 0 -141 60 -143 106z" />
    <glyph glyph-name="tsuperior" unicode="&#xf6f3;" horiz-adv-x="206" 
d="M8 586h52v90h70v-90h64v-56h-64v-152c0 -43 18 -45 33 -45c13 0 24 2 31 3v-56c-19 -4 -43 -8 -59 -8c-69 0 -75 39 -75 66v192h-52v56z" />
    <glyph glyph-name="dollaroldstyle" unicode="&#xf724;" horiz-adv-x="540" 
d="M36 155h120c-1 -57 49 -88 91 -92v159c-99 15 -184 40 -184 153c0 126 125 151 184 152v61h66v-61c157 -5 177 -105 178 -154h-113c-1 54 -45 68 -65 72v-142c125 -25 191 -44 191 -157c0 -115 -104 -162 -191 -165v-58h-66v58c-88 1 -202 47 -211 174zM247 316v129
c-27 -2 -68 -17 -68 -65c0 -42 35 -59 68 -64zM313 210v-147c39 4 71 33 71 77c0 25 -6 56 -71 70z" />
    <glyph glyph-name="ampersandsmall" unicode="&#xf726;" horiz-adv-x="545" 
d="M430 228h90c-18 -43 -46 -87 -71 -114l96 -114h-135l-36 46c-53 -51 -123 -61 -163 -61c-61 0 -165 25 -165 154c0 35 8 115 125 156c-41 48 -43 92 -43 102c0 109 113 111 150 111c140 0 149 -81 149 -111c0 -56 -44 -93 -110 -124l81 -95c17 23 24 29 32 50zM325 106
l-106 125c-31 -12 -53 -42 -53 -90c0 -47 29 -74 70 -74c26 0 60 12 89 39zM271 332c33 19 46 33 46 57c0 37 -34 37 -41 37c-25 0 -38 -16 -38 -39c0 -21 10 -33 33 -55z" />
    <glyph glyph-name="zerooldstyle" unicode="&#xf730;" 
d="M300 -20c-244 0 -255 210 -255 274s11 274 255 274s255 -210 255 -274s-11 -274 -255 -274zM300 62c36 0 135 8 135 192s-99 192 -135 192s-135 -8 -135 -192s99 -192 135 -192z" />
    <glyph glyph-name="oneoldstyle" unicode="&#xf731;" 
d="M110 338v62h23c86 0 161 39 180 108h87v-508h-120v338h-170z" />
    <glyph glyph-name="twooldstyle" unicode="&#xf732;" 
d="M555 82v-82h-505c-1 133 116 183 242 227c61 21 148 49 148 124c0 22 -8 95 -134 95c-95 0 -143 -54 -143 -117v-16h-110v15c0 193 201 200 256 200c155 0 251 -61 251 -176c0 -109 -85 -148 -160 -179c-116 -47 -156 -55 -181 -91h336z" />
    <glyph glyph-name="threeoldstyle" unicode="&#xf733;" 
d="M38 24h114c0 -8 0 -16 1 -24c6 -50 36 -123 141 -123c86 0 136 53 136 133c0 112 -83 122 -137 122h-46v82h27c59 0 148 8 148 116c0 77 -51 116 -119 116c-132 0 -132 -121 -131 -149h-110c-5 97 29 231 238 231c162 0 236 -75 236 -188c0 -106 -73 -146 -120 -158v-2
c72 -12 134 -71 134 -177c0 -153 -130 -208 -254 -208c-228 0 -255 165 -258 229z" />
    <glyph glyph-name="fouroldstyle" unicode="&#xf734;" 
d="M350 0h-327v106l320 402h127v-426h107v-82h-107v-185h-120v185zM129 82h221v284z" />
    <glyph glyph-name="fiveoldstyle" unicode="&#xf735;" 
d="M41 -8h110c5 -42 34 -115 138 -115c77 0 148 41 148 160c0 87 -38 166 -141 166c-46 0 -112 -22 -127 -73h-110l47 378h409v-82h-323l-25 -191c35 36 102 50 151 50c133 0 239 -86 239 -244c0 -239 -209 -246 -267 -246c-83 0 -228 21 -249 197z" />
    <glyph glyph-name="sixoldstyle" unicode="&#xf736;" 
d="M555 541h-110c-20 87 -82 97 -124 97c-56 0 -152 -20 -161 -227h2c16 23 54 63 166 63c142 0 232 -87 232 -241c0 -159 -100 -253 -259 -253c-235 0 -259 201 -259 331c0 402 204 409 279 409c152 0 220 -89 234 -179zM162 227c0 -139 78 -165 139 -165
c122 0 139 106 139 165c0 43 -10 165 -139 165c-94 0 -139 -65 -139 -165z" />
    <glyph glyph-name="sevenoldstyle" unicode="&#xf737;" 
d="M34 426v82h532v-82c-96 -98 -145 -182 -196 -300c-24 -55 -66 -164 -74 -311h-128c11 94 40 204 85 302c48 106 116 214 208 309h-427z" />
    <glyph glyph-name="eightoldstyle" unicode="&#xf738;" 
d="M169 375c-58 25 -93 79 -93 154c0 84 39 191 224 191s224 -107 224 -191c0 -75 -35 -129 -93 -154c43 -14 114 -57 114 -179c0 -187 -154 -216 -245 -216c-90 0 -245 29 -245 216c0 122 69 164 114 179zM300 412c75 0 110 52 110 113c0 34 -11 113 -110 113
s-110 -79 -110 -113c0 -61 35 -113 110 -113zM300 62c91 0 125 74 125 140c0 51 -24 128 -125 128s-125 -77 -125 -128c0 -66 34 -140 125 -140z" />
    <glyph glyph-name="nineoldstyle" unicode="&#xf739;" 
d="M47 -33h110c7 -39 38 -90 124 -90c56 0 152 20 161 220h-2c-16 -23 -54 -63 -166 -63c-142 0 -232 87 -232 241c0 158 99 253 262 253c234 0 256 -200 256 -331c0 -352 -155 -402 -279 -402c-151 0 -221 86 -234 172zM440 281c0 139 -78 165 -139 165
c-122 0 -139 -106 -139 -165c0 -43 10 -165 139 -165c94 0 139 65 139 165z" />
    <glyph glyph-name="centoldstyle" unicode="&#xf7a2;" horiz-adv-x="574" 
d="M424 166h114c-16 -127 -115 -180 -202 -186v-72h-67v72c-106 4 -226 67 -226 243c0 182 119 244 226 245v66h67v-66c89 -5 186 -63 200 -169h-114c-5 42 -41 81 -86 87v-324c63 11 86 63 88 104zM269 62v324c-56 -9 -106 -53 -106 -163c0 -47 10 -139 106 -161z" />
    <glyph glyph-name="apple" unicode="&#xf8ff;" horiz-adv-x="833" 
d="M808 656c-72 -55 -108 -120 -108 -195c0 -95 52 -175 137 -208c-17 -47 -41 -95 -72 -144c-53 -83 -105 -124 -158 -124c-19 0 -47 6 -83 19s-67 19 -92 19c-19 0 -37 -3 -53 -9l-57 -21c-18 -7 -36 -10 -55 -10c-42 0 -84 26 -125 79c-95 120 -142 247 -142 382
c0 91 22 164 67 221s104 86 175 86c28 0 68 -8 120 -23c29 -9 51 -13 66 -13c17 0 47 7 90 22c37 13 71 19 100 19c78 0 141 -33 190 -100zM608 982c1 -9 2 -18 2 -27c0 -57 -22 -110 -67 -157c-16 -17 -31 -29 -46 -38c-21 -13 -50 -19 -87 -20c1 11 2 25 3 42
c13 96 80 180 195 200z" />
    <glyph glyph-name="mu1" 
d="M205 45v-230h-120v693h120v-277c0 -40 0 -160 95 -160c40 0 95 24 95 160v277h120v-365c0 -25 0 -64 40 -61l13 1v-83c-21 -3 -56 -5 -77 -5c-39 0 -85 8 -96 60c-15 -34 -45 -75 -98 -75c-40 0 -76 31 -92 65z" />
    <glyph glyph-name="uniF64A" horiz-adv-x="563" 
d="M17 426v82h532v-82c-96 -98 -145 -182 -196 -300c-24 -55 -66 -164 -74 -311h-128c11 94 40 204 85 302c48 106 116 214 208 309h-427z" />
    <glyph glyph-name="uniF644" horiz-adv-x="337" 
d="M0 338v62h23c86 0 161 39 180 108h87v-508h-120v338h-170z" />
    <glyph glyph-name="hyphenminus" horiz-adv-x="420" 
d="M80 216v106h260v-106h-260z" />
    <glyph glyph-name="uniF645" horiz-adv-x="585" 
d="M542 82v-82h-505c-1 133 116 183 242 227c61 21 148 49 148 124c0 22 -8 95 -134 95c-95 0 -143 -54 -143 -117v-16h-110v15c0 193 201 200 256 200c155 0 251 -61 251 -176c0 -109 -85 -148 -160 -179c-116 -47 -156 -55 -181 -91h336z" />
    <glyph glyph-name="uniF64B" horiz-adv-x="558" 
d="M148 375c-58 25 -93 79 -93 154c0 84 39 191 224 191s224 -107 224 -191c0 -75 -35 -129 -93 -154c43 -14 114 -57 114 -179c0 -187 -154 -216 -245 -216c-90 0 -245 29 -245 216c0 122 69 164 114 179zM279 412c75 0 110 52 110 113c0 34 -11 113 -110 113
s-110 -79 -110 -113c0 -61 35 -113 110 -113zM279 62c91 0 125 74 125 140c0 51 -24 128 -125 128s-125 -77 -125 -128c0 -66 34 -140 125 -140z" />
    <glyph glyph-name="uniF646" horiz-adv-x="575" 
d="M28 24h114c0 -8 0 -16 1 -24c6 -50 36 -123 141 -123c86 0 136 53 136 133c0 112 -83 122 -137 122h-46v82h27c59 0 148 8 148 116c0 77 -51 116 -119 116c-132 0 -132 -121 -131 -149h-110c-5 97 29 231 238 231c162 0 236 -75 236 -188c0 -106 -73 -146 -120 -158v-2
c72 -12 134 -71 134 -177c0 -153 -130 -208 -254 -208c-228 0 -255 165 -258 229z" />
    <glyph glyph-name="dollar.fitted" horiz-adv-x="578" 
d="M24 205h110c1 -31 10 -67 30 -93c15 -20 42 -44 85 -46v250c-50 7 -123 32 -160 67c-25 23 -51 65 -51 134c0 73 29 124 74 158c36 27 86 43 137 44v58h82v-58c55 -1 116 -21 154 -57c33 -31 59 -85 59 -147h-110c2 34 -11 64 -30 84c-5 5 -30 30 -73 34v-218
c67 -10 113 -26 148 -51c56 -40 73 -91 73 -161c0 -45 -6 -117 -73 -171c-38 -30 -95 -49 -148 -52v-73h-82v73c-50 -1 -108 13 -146 41c-70 52 -79 142 -79 184zM249 432v201c-22 -2 -42 -11 -55 -24c-16 -16 -28 -44 -28 -82c0 -73 57 -91 83 -95zM331 299v-233
c23 1 45 10 60 24c24 23 33 63 33 98c0 26 -6 57 -32 82c-8 8 -28 25 -61 29z" />
    <glyph glyph-name="uniF647" horiz-adv-x="584" 
d="M335 0h-327v106l320 402h127v-426h107v-82h-107v-185h-120v185zM114 82h221v284z" />
    <glyph glyph-name="florin.fitted" horiz-adv-x="521" 
d="M474 508l-17 -82h-110l-93 -446c-16 -77 -29 -169 -173 -169c-24 0 -57 3 -71 4l19 87h18c62 3 73 23 85 82l93 442h-93l18 82h92l11 54c13 64 40 138 182 138c29 0 55 -3 79 -7l-16 -78c-15 5 -34 7 -53 7c-37 0 -62 -25 -70 -61l-11 -53h110z" />
    <glyph glyph-name="uniF648" horiz-adv-x="577" 
d="M32 -8h110c5 -42 34 -115 138 -115c77 0 148 41 148 160c0 87 -38 166 -141 166c-46 0 -112 -22 -127 -73h-110l47 378h409v-82h-323l-25 -191c35 36 102 50 151 50c133 0 239 -86 239 -244c0 -239 -209 -246 -267 -246c-83 0 -228 21 -249 197z" />
    <glyph glyph-name="Euro.fitted" horiz-adv-x="627" 
d="M571 152v-116c-18 -11 -45 -27 -70 -36c-36 -13 -84 -20 -119 -20c-84 0 -149 27 -198 75c-43 42 -76 106 -83 183h-80l32 74h43c-3 23 -3 48 0 74h-75l32 74h52c4 36 13 69 28 100c16 35 38 67 67 93c65 59 140 67 199 67c21 0 42 -1 62 -5c24 -4 48 -12 69 -24
c15 -9 29 -20 42 -32c7 -7 13 -14 19 -21l-55 -97c-6 9 -12 17 -19 24c-10 11 -22 20 -35 28c-25 15 -51 21 -83 21c-35 0 -72 -7 -106 -40c-29 -29 -47 -73 -52 -114h258l-32 -74h-234c-3 -26 -3 -51 0 -74h207l-32 -74h-169c5 -42 23 -83 52 -111c15 -14 32 -25 51 -32
c20 -7 41 -9 62 -9c31 0 60 6 94 21c15 6 43 20 73 45z" />
    <glyph glyph-name="uniF649" horiz-adv-x="586" 
d="M548 541h-110c-20 87 -82 97 -124 97c-56 0 -152 -20 -161 -227h2c16 23 54 63 166 63c142 0 232 -87 232 -241c0 -159 -100 -253 -259 -253c-235 0 -259 201 -259 331c0 402 204 409 279 409c152 0 220 -89 234 -179zM155 227c0 -139 78 -165 139 -165
c122 0 139 106 139 165c0 43 -10 165 -139 165c-94 0 -139 -65 -139 -165z" />
    <glyph glyph-name="dotlessi1" horiz-adv-x="264" 
d="M72 508h120v-508h-120v508z" />
    <glyph glyph-name="nbspace" horiz-adv-x="233" 
 />
    <glyph glyph-name="sterling.fitted" horiz-adv-x="608" 
d="M515 140l61 -84c-55 -59 -104 -77 -149 -77c-54 0 -93 20 -125 34c-26 11 -52 20 -84 20c-37 0 -73 -11 -113 -38l-59 87c100 64 104 123 104 160c0 33 -9 46 -12 51h-109v82h75c-28 40 -37 91 -37 125c0 118 71 221 253 221c150 0 238 -78 238 -229v-18h-112v16
c0 112 -53 149 -125 149c-91 0 -126 -75 -126 -133c0 -45 19 -78 42 -131h130v-82h-98c2 -11 3 -27 3 -41c0 -52 -33 -98 -67 -129l2 -4c16 8 34 11 65 11c32 0 54 -4 86 -19c19 -9 43 -24 72 -24c33 0 60 19 85 53z" />
    <glyph glyph-name="numbersign.fitted" horiz-adv-x="669" 
d="M434 10h-92l24 153h-120l-24 -153h-92l24 153h-134l15 100h134l28 179h-134l15 100h134l24 152h92l-24 -152h120l24 152h92l-24 -152h134l-15 -100h-134l-28 -179h134l-15 -100h-134zM381 263l28 179h-120l-28 -179h120z" />
    <glyph glyph-name="yen.fitted" horiz-adv-x="636" 
d="M318 393l149 307h151l-236 -421v-4h100v-54h-100v-52h100v-54h-100v-115h-128v115h-100v54h100v52h-100v54h100v4l-236 421h151z" />
    <glyph glyph-name="colonmonetary.fitted" horiz-adv-x="701" 
d="M264 -100v91c-151 34 -237 173 -237 347c0 161 65 331 237 370v77h66v-68c14 3 28 4 42 4c15 0 30 -1 45 -4v68h66v-79c143 -33 177 -159 185 -232h-120c0 42 -24 100 -65 117v-478c38 19 69 74 75 126h120c-15 -103 -76 -219 -195 -246v-93h-66v82c-14 -2 -29 -3 -43 -3
c-15 0 -29 1 -44 3v-82h-66zM330 611v-519c15 -4 29 -7 44 -7c14 0 29 1 43 5v520c-15 3 -30 5 -45 5c-14 0 -28 -1 -42 -4zM264 118v474c-96 -56 -100 -195 -100 -249c0 -76 28 -176 100 -225z" />
    <glyph glyph-name="cent.fitted" horiz-adv-x="537" 
d="M405 186h114c-11 -97 -72 -193 -201 -204v-74h-67v73c-107 4 -227 75 -227 272c0 233 150 272 227 274v67h67v-68c88 -10 185 -66 199 -187h-114c-5 42 -32 92 -85 103v-377c70 16 86 86 87 121zM251 67v375c-75 -17 -99 -98 -99 -189c0 -147 72 -178 99 -186z" />
    <glyph glyph-name="onefitted" horiz-adv-x="416" 
d="M41 510v65h14c99 0 171 53 182 125h94v-700h-128v510h-162z" />
    <glyph glyph-name="uniF64C" horiz-adv-x="587" 
d="M39 -33h110c7 -39 38 -90 124 -90c56 0 152 20 161 220h-2c-16 -23 -54 -63 -166 -63c-142 0 -232 87 -232 241c0 158 99 253 262 253c234 0 256 -200 256 -331c0 -352 -155 -402 -279 -402c-151 0 -221 86 -234 172zM432 281c0 139 -78 165 -139 165
c-122 0 -139 -106 -139 -165c0 -43 10 -165 139 -165c94 0 139 65 139 165z" />
    <glyph glyph-name="uniF643" horiz-adv-x="578" 
d="M289 -20c-244 0 -255 210 -255 274s11 274 255 274s255 -210 255 -274s-11 -274 -255 -274zM289 62c36 0 135 8 135 192s-99 192 -135 192s-135 -8 -135 -192s99 -192 135 -192z" />
    <glyph glyph-name="uniF653" horiz-adv-x="513" 
d="M21 155h120c-1 -57 49 -88 91 -92v159c-99 15 -184 40 -184 153c0 126 125 151 184 152v61h66v-61c157 -5 177 -105 178 -154h-113c-1 54 -45 68 -65 72v-142c125 -25 191 -44 191 -157c0 -115 -104 -162 -191 -165v-58h-66v58c-88 1 -202 47 -211 174zM232 316v129
c-27 -2 -68 -17 -68 -65c0 -42 35 -59 68 -64zM298 210v-147c39 4 71 33 71 77c0 25 -6 56 -71 70z" />
    <glyph glyph-name="uniF654" horiz-adv-x="536" 
d="M405 166h114c-16 -127 -115 -180 -202 -186v-72h-67v72c-106 4 -226 67 -226 243c0 182 119 244 226 245v66h67v-66c89 -5 186 -63 200 -169h-114c-5 42 -41 81 -86 87v-324c63 11 86 63 88 104zM250 62v324c-56 -9 -106 -53 -106 -163c0 -47 10 -139 106 -161z" />
    </font>
</defs>
</svg>
